<?xml version="1.0" encoding="UTF-8"?>
<svg xmlns="http://www.w3.org/2000/svg" xmlns:xlink="http://www.w3.org/1999/xlink" id="Group_38647" data-name="Group 38647" width="38.563" height="38.543" viewBox="0 0 38.563 38.543">
  <defs>
    <clipPath id="clip-path">
      <path id="Path_45014" data-name="Path 45014" d="M0-17.457H38.564V-56H0Z" transform="translate(0 56)" fill="none"></path>
    </clipPath>
  </defs>
  <g id="Group_38551" data-name="Group 38551" clip-path="url(#clip-path)">
    <g id="Group_38549" data-name="Group 38549" transform="translate(0 11.814)">
      <path id="Path_45012" data-name="Path 45012" d="M-14.086-7.646v-2.576a3.67,3.67,0,0,0-2.94-3.586L-26.8-15.764a23.269,23.269,0,0,0-18.259-8.765h-.125v1.244h.125a22.031,22.031,0,0,1,17.425,8.471.621.621,0,0,0,.367.225l8.208,1.642v.858a3.11,3.11,0,0,0,3.11,3.11h.622v1.244h-3.15A8.075,8.075,0,0,0-29.63-10.2a8.067,8.067,0,0,0-3.116,3.711h-12.44v1.244h12.044A7.99,7.99,0,0,0-33.336-4h-11.85v1.244h14.343a5.6,5.6,0,0,0,6.2,4.922,5.6,5.6,0,0,0,4.921-4.922h5.013a2.482,2.482,0,0,0,2.486-2.48,2.482,2.482,0,0,0-1.864-2.408m-1.866-2.576a1.866,1.866,0,0,1-1.866-1.866v-.61l.548.109a2.421,2.421,0,0,1,1.94,2.366Zm-9.33,0A6.848,6.848,0,0,1-18.471-4h-1.249a5.6,5.6,0,0,0-6.2-4.921A5.6,5.6,0,0,0-30.843-4h-1.249a6.849,6.849,0,0,1,6.81-6.22m0,11.2a4.354,4.354,0,0,1-4.354-4.354,4.354,4.354,0,0,1,4.354-4.354,4.354,4.354,0,0,1,4.354,4.354A4.359,4.359,0,0,1-25.282.973M-14.708-4h-2.52a8.012,8.012,0,0,0-.59-2.488h3.11a1.244,1.244,0,0,1,1.244,1.244A1.244,1.244,0,0,1-14.708-4" transform="translate(45.186 24.529)" fill="#0f3863"></path>
    </g>
    <g id="Group_38550" data-name="Group 38550" transform="translate(1.244 14.303)">
      <path id="Path_45013" data-name="Path 45013" d="M-6.451-3.221a.623.623,0,0,0-.074-.658,17.113,17.113,0,0,0-13.427-6.453h-.12a.622.622,0,0,0-.622.622v6.22a.621.621,0,0,0,.622.622H-7.011a.62.62,0,0,0,.56-.352m-13-.891V-9.081A15.854,15.854,0,0,1-8.376-4.112Z" transform="translate(20.695 10.332)" fill="#0f3863"></path>
    </g>
  </g>
  <path id="Path_45015" data-name="Path 45015" d="M2.711-22.568H5.2v1.244H2.711Z" transform="translate(-0.845 45.578)" fill="#0f3863"></path>
  <g id="Group_38556" data-name="Group 38556" clip-path="url(#clip-path)">
    <g id="Group_38552" data-name="Group 38552" transform="translate(17.416 30.474)">
      <path id="Path_45016" data-name="Path 45016" d="M-1.127,0A2.488,2.488,0,0,0-3.615,2.488,2.489,2.489,0,0,0-1.127,4.976,2.489,2.489,0,0,0,1.361,2.488,2.488,2.488,0,0,0-1.127,0m0,3.732A1.244,1.244,0,0,1-2.371,2.488,1.244,1.244,0,0,1-1.127,1.244,1.244,1.244,0,0,1,.117,2.488,1.244,1.244,0,0,1-1.127,3.732" transform="translate(3.615)" fill="#0f3863"></path>
    </g>
    <g id="Group_38553" data-name="Group 38553" transform="translate(14.93 6.188)">
      <path id="Path_45017" data-name="Path 45017" d="M-9.3-8.151a10.745,10.745,0,0,0-.062-1.171l-.423-3.8a2.432,2.432,0,0,0-1.82-2.083l-.459-.115.684-1.145a6.319,6.319,0,0,1,1.755-1.9l2.659-1.9a1.852,1.852,0,0,0,.431-2.583,1.852,1.852,0,0,0-1.507-.776h0a2.377,2.377,0,0,0-1.516.551L-11.942-21.1a8.326,8.326,0,0,0-1.6,1.783l-1.444,2.167-1.176-1.174.179-.045A3.935,3.935,0,0,0-13.665-20l1.416-2.123a2.758,2.758,0,0,0,.465-1.537A1.837,1.837,0,0,0-13.621-25.5a1.836,1.836,0,0,0-1.529.818l-1.437,2.156a1.694,1.694,0,0,1-1.035.711A3.113,3.113,0,0,0-19.267-25.9a3.113,3.113,0,0,0-4.085,1.644,3.115,3.115,0,0,0,.878,3.618l-2.9,1.812-1.129-1.129a1.923,1.923,0,0,0-1.371-.569,1.941,1.941,0,0,0-1.942,1.941,1.943,1.943,0,0,0,.538,1.342l1.609,2.085a2.2,2.2,0,0,0,1.73.852,2.183,2.183,0,0,0,1.212-.368l2.773-1.848a9.565,9.565,0,0,0,8.272,4.7h.1l.431,3.877A1.935,1.935,0,0,0-11-6.245,1.935,1.935,0,0,0-9.3-8.151Zm-11.2-16.725a1.866,1.866,0,0,1,1.866,1.866,1.866,1.866,0,0,1-1.866,1.866,1.866,1.866,0,0,1-1.866-1.866,1.866,1.866,0,0,1,1.866-1.866M-11.231-7.46a.69.69,0,0,1-.684-.615l-.492-4.43a.622.622,0,0,0-.621-.553h-.657a8.336,8.336,0,0,1-7.491-4.632.622.622,0,0,0-.834-.279.594.594,0,0,0-.067.039l-3.338,2.224a.948.948,0,0,1-.523.159.95.95,0,0,1-.746-.368l-1.631-2.115a.5.5,0,0,0-.053-.062.7.7,0,0,1,.006-.986.7.7,0,0,1,.483-.2.7.7,0,0,1,.493.2l1.479,1.48a.622.622,0,0,0,.769.087l3.96-2.476a3.014,3.014,0,0,0,2.534-.54H-18a2.94,2.94,0,0,0,2.452-1.312l1.437-2.156a.593.593,0,0,1,.823-.165.593.593,0,0,1,.264.494,1.525,1.525,0,0,1-.257.847L-14.7-20.69a2.7,2.7,0,0,1-1.589,1.12l-1.244.31a.623.623,0,0,0-.452.755.625.625,0,0,0,.164.288l2.488,2.488a.622.622,0,0,0,.88,0,.636.636,0,0,0,.078-.094l1.866-2.8a7.086,7.086,0,0,1,1.364-1.518l2.383-1.983a1.134,1.134,0,0,1,.723-.263.607.607,0,0,1,.607.606h0a.609.609,0,0,1-.254.5l-2.659,1.9a7.575,7.575,0,0,0-2.1,2.273l-1.119,1.867a.622.622,0,0,0,.213.853.638.638,0,0,0,.169.07l1.273.318a1.181,1.181,0,0,1,.886,1.013l.423,3.8a9.548,9.548,0,0,1,.06,1.031.692.692,0,0,1-.691.691" transform="translate(29.82 26.148)" fill="#3db5e5"></path>
    </g>
    <g id="Group_38554" data-name="Group 38554" transform="translate(6.22 4.349)">
      <path id="Path_45018" data-name="Path 45018" d="M-.118-2.2,4.236.908,4.959-.1,2.185-2.086H5.842a.622.622,0,0,0,.59-.425L7.2-4.819,8.394-2.43l1.114-.556L7.642-6.718a.632.632,0,0,0-.6-.344.623.623,0,0,0-.546.425L5.393-3.33H.243a.622.622,0,0,0-.622.622A.622.622,0,0,0-.118-2.2" transform="translate(0.379 7.064)" fill="#3db5e5"></path>
    </g>
    <g id="Group_38555" data-name="Group 38555" transform="translate(17.416 0)">
      <path id="Path_45019" data-name="Path 45019" d="M-.564-1.083.816.642A.622.622,0,0,0,1.58.81L5.214-1.007,4.444,1.3l1.182.393L6.87-2.038a.622.622,0,0,0-.391-.788A.625.625,0,0,0,6-2.792L1.474-.528-.7-3.245a.622.622,0,0,0-.875-.091.623.623,0,0,0-.23.479V2.119H-.564Z" transform="translate(1.808 3.475)" fill="#3db5e5"></path>
    </g>
  </g>
  <g id="Group_38557" data-name="Group 38557" transform="translate(34.513 27.453)">
    <path id="Path_45021" data-name="Path 45021" d="M0-.483.64-1.55,3.75.316,3.11,1.383Z" transform="translate(0 1.55)" fill="#3db5e5"></path>
  </g>
  <g id="Group_38558" data-name="Group 38558" transform="translate(33.612 29.682)">
    <path id="Path_45022" data-name="Path 45022" d="M0-.155,1.2-.5,2.44,3.857l-1.2.342Z" transform="translate(0 0.497)" fill="#3db5e5"></path>
  </g>
</svg>
