<?xml version="1.0" encoding="UTF-8"?>
<svg xmlns="http://www.w3.org/2000/svg" xmlns:xlink="http://www.w3.org/1999/xlink" id="Group_38639" data-name="Group 38639" width="56.76" height="39.533" viewBox="0 0 56.76 39.533">
  <defs>
    <clipPath id="clip-path">
      <path id="Path_45056" data-name="Path 45056" d="M0-13.4H56.76V-52.933H0Z" transform="translate(0 52.933)" fill="none"></path>
    </clipPath>
  </defs>
  <g id="Group_38596" data-name="Group 38596" clip-path="url(#clip-path)">
    <g id="Group_38592" data-name="Group 38592" transform="translate(7.184 17.339)">
      <path id="Path_45052" data-name="Path 45052" d="M-2.345-.346l-4.523-.975A1.994,1.994,0,0,0-9.262.63V2.492C-9.262,4-8.11,4.355-6.691,4.355h4.967c.976,0,1.952-.178,1.952-1.242V2.847A3.166,3.166,0,0,0-2.345-.346M-7.577,2.492V.542c0-.178.177-.355.355-.267l4.523.976a1.622,1.622,0,0,1,1.153,1.33c-3.1,0-5.765,0-6.031-.089" transform="translate(9.262 1.365)" fill="#0f3863"></path>
    </g>
    <g id="Group_38593" data-name="Group 38593" transform="translate(0 0)">
      <path id="Path_45053" data-name="Path 45053" d="M-18.428-3.006l-6.386-3.015a10.843,10.843,0,0,0-6.651-.887l-.976-1.951a4.713,4.713,0,0,0-4.345-3.016H-57.54a4.633,4.633,0,0,0-4.346,2.927l-3.459,7.184a4.332,4.332,0,0,0-3.548-1.863H-70.4a2.385,2.385,0,0,0-2.394,2.394v.975a2.385,2.385,0,0,0,2.394,2.4h2.306a7.16,7.16,0,0,0-1.419,4.434v5.321a8.7,8.7,0,0,0,2.129,5.676V21.56a3.179,3.179,0,0,0,3.193,3.193h3.282a3.179,3.179,0,0,0,3.193-3.193v-1.6h17.738a24.128,24.128,0,0,0,10.11,7.628.748.748,0,0,0,.621,0c.089-.089,13.215-4.878,13.215-16.851V.807a4.353,4.353,0,0,0-2.394-3.813M-60.289-8.239A2.885,2.885,0,0,1-57.54-10.1h20.753A3.041,3.041,0,0,1-33.948-8.15l.8,1.685a5.415,5.415,0,0,0-1.064.444L-40.6-3.006A4.22,4.22,0,0,0-42.995.719H-64.724c.355-.532,0,.355,4.435-8.958M-71.02-.257v-.975a.606.606,0,0,1,.621-.621h1.508A2.955,2.955,0,0,1-66.32.01a1.565,1.565,0,0,1-.355.443H-70.4a.752.752,0,0,1-.621-.71m11.53,21.729a1.4,1.4,0,0,1-1.419,1.419H-64.28A1.349,1.349,0,0,1-65.7,21.472V18.9a7.106,7.106,0,0,0,3.548.976h2.661Zm-2.75-3.282c-3.193,0-5.676-3.1-5.676-6.386V6.483A6.013,6.013,0,0,1-66.231,2.4h23.236v7.8H-52.75a.889.889,0,0,0-.887.887.838.838,0,0,0,.887.887h9.844a9.621,9.621,0,0,0,.266,1.685H-52.75a.889.889,0,0,0-.887.887.838.838,0,0,0,.887.887h10.465a12.937,12.937,0,0,0,1.242,2.749Zm44.433-7.45c0,9.845-9.933,14.368-11.707,15.077-6.386-2.572-11.707-8.07-11.707-15.077V.807A2.427,2.427,0,0,1-39.8-1.409l6.386-3.016a9.021,9.021,0,0,1,7.982,0l6.386,3.016A2.588,2.588,0,0,1-17.63.807V10.74Z" transform="translate(72.794 11.875)" fill="#0f3863"></path>
    </g>
    <g id="Group_38594" data-name="Group 38594" transform="translate(34.056 9.091)">
      <path id="Path_45054" data-name="Path 45054" d="M-6.072-1.157l-5.853-2.749a6.576,6.576,0,0,0-5.765,0l-5.765,2.749a1.019,1.019,0,0,0-.532.8V8.953c0,7.007,6.119,10.82,8.78,12.15a1.229,1.229,0,0,0,.8,0c2.66-1.33,8.78-5.144,8.78-12.15V-.359A.932.932,0,0,0-6.072-1.157ZM-7.314,8.953c0,5.676-4.967,9.047-7.45,10.377-2.927-1.6-7.45-4.789-7.45-10.377V.173L-16.892-2.4a5.1,5.1,0,0,1,4.257,0L-7.314.173Z" transform="translate(23.987 4.572)" fill="#3db5e5"></path>
    </g>
    <g id="Group_38595" data-name="Group 38595" transform="translate(38.386 18.293)">
      <path id="Path_45055" data-name="Path 45055" d="M-.487-1.375A.967.967,0,0,0-1.729-1.2c-.355.355-.177.887.178,1.241l3.37,2.572a.967.967,0,0,0,1.242-.178L8.028-4.035A.967.967,0,0,0,7.85-5.277.966.966,0,0,0,6.609-5.1L2.174.665Z" transform="translate(1.922 5.432)" fill="#3db5e5"></path>
    </g>
  </g>
</svg>
