<?xml version="1.0" encoding="UTF-8"?>
<svg xmlns="http://www.w3.org/2000/svg" xmlns:xlink="http://www.w3.org/1999/xlink" width="190" height="190" viewBox="0 0 190 190">
  <defs>
    <clipPath id="clip-path">
      <rect id="Rectangle_3944" data-name="Rectangle 3944" width="87.158" height="19.287" fill="none"></rect>
    </clipPath>
  </defs>
  <g id="Group_42928" data-name="Group 42928" transform="translate(-588 -576)">
    <g id="Ellipse_2703" data-name="Ellipse 2703" transform="translate(606 594)" fill="none" stroke="#0d3461" stroke-width="1" opacity="0.5">
      <circle cx="77" cy="77" r="77" stroke="none"></circle>
      <circle cx="77" cy="77" r="76.5" fill="none"></circle>
    </g>
    <g id="Ellipse_2704" data-name="Ellipse 2704" transform="translate(588 576)" fill="none" stroke="#0d3461" stroke-width="1" stroke-dasharray="3" opacity="0.2">
      <circle cx="95" cy="95" r="95" stroke="none"></circle>
      <circle cx="95" cy="95" r="94.5" fill="none"></circle>
    </g>
    <g id="Ellipse_2705" data-name="Ellipse 2705" transform="translate(622 610)" fill="#f1f1f1" stroke="rgba(60,180,231,0.15)" stroke-width="7">
      <circle cx="61.5" cy="61.5" r="61.5" stroke="none"></circle>
      <circle cx="61.5" cy="61.5" r="58" fill="none"></circle>
    </g>
    <g id="Group_13739" data-name="Group 13739" transform="translate(639 664.713)">
      <g id="Group_13738" data-name="Group 13738" clip-path="url(#clip-path)">
        <path id="Path_16851" data-name="Path 16851" d="M94.9,12.965c-6.93-.076-13.981-.97-20.842-.075a43.63,43.63,0,0,0-9.265,2.369c-3.9,1.409-8.364,3.17-12.606,4.4a59.251,59.251,0,0,1-19.5,2.712c-7.239-.346-16.219-2.755-20.4-9.407a22.375,22.375,0,0,0,5.071,1.6C28.526,16.547,41.2,12.424,51.864,9,57.141,7.318,62.414,5.4,68,4.835c9.581-.97,19.027,2.692,26.9,8.13" transform="translate(-10.252 -3.906)" fill="#33b3e1"></path>
        <path id="Path_16852" data-name="Path 16852" d="M114.532,13.073c4.242-1.231,8.707-2.992,12.606-4.4A43.615,43.615,0,0,1,136.4,6.3a55.456,55.456,0,0,1,7.887-.388,33.562,33.562,0,0,0-12.114-1.078C126.588,5.406,121.314,7.32,116.037,9c-8.3,2.661-17.808,5.746-26.883,6.055a39.1,39.1,0,0,0,5.874.726,59.251,59.251,0,0,0,19.5-2.712" transform="translate(-74.426 -3.908)" fill="#80dbd1"></path>
        <path id="Path_16853" data-name="Path 16853" d="M24.58,19.288q-1.1,0-2.187-.051C17.781,19.017,6.5,17.624,1.376,9.47L0,7.281,2.35,8.358a21.611,21.611,0,0,0,4.9,1.549C18.105,11.829,30.291,7.919,41.043,4.47l.333-.107q1.084-.346,2.166-.7A68.327,68.327,0,0,1,57.672.163C68.814-.966,78.729,4.033,85.084,8.425l2.074,1.433-2.521-.028c-2.185-.024-4.413-.13-6.568-.233A80.773,80.773,0,0,0,63.9,9.75a42.649,42.649,0,0,0-9.1,2.33c-.935.338-1.889.691-2.9,1.065-3.2,1.184-6.507,2.408-9.754,3.351A62.267,62.267,0,0,1,24.58,19.288M4.288,10.749c5.227,5.691,14.25,6.759,18.178,6.947a58.406,58.406,0,0,0,19.25-2.682c3.2-.927,6.477-2.142,9.65-3.317,1.012-.375,1.969-.729,2.911-1.069A44.122,44.122,0,0,1,63.706,8.22a81.909,81.909,0,0,1,14.437-.163c1.258.06,2.542.121,3.824.166C75.862,4.421,67.282.74,57.827,1.7A67.178,67.178,0,0,0,44.019,5.13q-1.087.354-2.173.7l-.332.107c-10.922,3.5-23.3,7.476-34.549,5.485a25.154,25.154,0,0,1-2.677-.674" transform="translate(0 -0.001)" fill="#0d3862"></path>
      </g>
    </g>
  </g>
</svg>
