<?xml version="1.0" encoding="UTF-8"?>
<svg xmlns="http://www.w3.org/2000/svg" xmlns:xlink="http://www.w3.org/1999/xlink" id="Group_38641" data-name="Group 38641" width="41.8" height="41.823" viewBox="0 0 41.8 41.823">
  <defs>
    <clipPath id="clip-path">
      <path id="Path_45047" data-name="Path 45047" d="M0-14.177H41.8V-56H0Z" transform="translate(0 56)" fill="none"></path>
    </clipPath>
  </defs>
  <g id="Group_38585" data-name="Group 38585" clip-path="url(#clip-path)">
    <g id="Group_38581" data-name="Group 38581" transform="translate(0 0)">
      <path id="Path_45043" data-name="Path 45043" d="M-1.33-11.715A4.069,4.069,0,0,0-1.1-9.842a2.6,2.6,0,0,0,2.465,1.9A2.867,2.867,0,0,0,1.937-8,56.486,56.486,0,0,0,7.793-9.756c1.565.922,2.556,3.723,2.813,4.774a.7.7,0,0,0,.678.532L28.731-4.5a.7.7,0,0,0,.559-.283A.7.7,0,0,0,29.4-5.4a5.353,5.353,0,0,0-.706-1.335,6.481,6.481,0,0,1-.444-.738,13.664,13.664,0,0,1-.788-2,23.068,23.068,0,0,1-.819-4.122,11.572,11.572,0,0,1,.075-3.3.7.7,0,0,0-.24-.661.7.7,0,0,0-.694-.114.7.7,0,0,0-.441.548,12.968,12.968,0,0,0-.084,3.689,24.425,24.425,0,0,0,.871,4.365,14.978,14.978,0,0,0,.862,2.19,7.719,7.719,0,0,0,.535.9l.052.078L11.81-5.845A11.116,11.116,0,0,0,9.358-10.3l.513-.179c.521-.183.915-.322,1.115-.384,2.982-.938,4.473-2.3,4.432-4.036a.685.685,0,0,0-.212-.492.681.681,0,0,0-.5-.188.7.7,0,0,0-.68.712c.017.718-.569,1.766-3.458,2.674-.205.065-.614.209-1.155.4-.5.175-1.111.39-1.782.619A57.665,57.665,0,0,1,1.652-9.365,1.23,1.23,0,0,1,.22-10.3a2.7,2.7,0,0,1-.169-1.23c.019-.144.052-.288.084-.432A3.1,3.1,0,0,0,.2-13.452a2.3,2.3,0,0,0-1.282-1.426l-.149-.086A2.61,2.61,0,0,1-.963-15.4a.7.7,0,0,0,.141-.523.7.7,0,0,0-.276-.466c-.167-.124-.564-.422-.85-.651.035-.065.076-.139.112-.2.107-.189.229-.407.349-.656A2.57,2.57,0,0,0-1.3-19.453c-.161-.854-.975-1.272-1.571-1.575a4.091,4.091,0,0,1-.575-.335A3.493,3.493,0,0,1-3.86-21.7c0-.1.111-.358.645-1.015A28.043,28.043,0,0,0-.038-27.89a2.015,2.015,0,0,0,.273-.945A2.43,2.43,0,0,0-.783-30.577c-.279-.258-.547-.5-.577-.717a1.2,1.2,0,0,1,.111-.488c.114-.3.247-.6.38-.9a10.093,10.093,0,0,0,.674-1.828l.057-.246a17.308,17.308,0,0,1,.58-2.109,11.855,11.855,0,0,1,2.5-4.082,11.379,11.379,0,0,1,6.229-2.972,45.308,45.308,0,0,1,6.523-.937A14.364,14.364,0,0,1,23.683-43a.7.7,0,0,0,.7-.013.7.7,0,0,0,.338-.61.7.7,0,0,0-.36-.6,15.919,15.919,0,0,0-8.741-2.031,46.617,46.617,0,0,0-6.725.963,12.711,12.711,0,0,0-6.97,3.38A13.241,13.241,0,0,0-.867-37.347a18.478,18.478,0,0,0-.627,2.277l-.057.243a8.885,8.885,0,0,1-.59,1.575c-.145.323-.288.646-.412.976A2.346,2.346,0,0,0-2.741-31.1a2.663,2.663,0,0,0,1.016,1.552c.341.313.565.533.567.733a1.176,1.176,0,0,1-.122.3,26.946,26.946,0,0,1-3.046,4.966,2.911,2.911,0,0,0-.913,2.045,2.155,2.155,0,0,0,1.007,1.3,5.145,5.145,0,0,0,.725.418c.3.152.8.409.836.593a1.2,1.2,0,0,1-.076.7c-.1.217-.209.406-.3.57-.272.481-.682,1.209-.039,1.752.15.133.407.335.643.515a1.752,1.752,0,0,0-.225,1.01,1,1,0,0,0,.409.677,5.125,5.125,0,0,0,.488.3c.409.235.568.343.624.558a1.953,1.953,0,0,1-.075.845c-.041.189-.081.371-.105.554" transform="translate(5.254 46.274)" fill="#0f3863"></path>
    </g>
    <g id="Group_38582" data-name="Group 38582" transform="translate(6.404 4.117)">
      <path id="Path_45044" data-name="Path 45044" d="M-.467-2.81l.069-.3A15.429,15.429,0,0,1,.069-4.833,9.188,9.188,0,0,1,1.981-7.97,7.286,7.286,0,0,1,5.194-9.734a.7.7,0,0,0,.476-.509.7.7,0,0,0-.2-.667.7.7,0,0,0-.679-.157A8.63,8.63,0,0,0,.968-8.927,10.576,10.576,0,0,0-1.238-5.314a16.51,16.51,0,0,0-.516,1.887l-.069.3a.7.7,0,0,0,.193.682.7.7,0,0,0,.69.161.7.7,0,0,0,.474-.526Z" transform="translate(1.847 11.098)" fill="#0f3863"></path>
    </g>
    <g id="Group_38583" data-name="Group 38583" transform="translate(5.576 13.943)">
      <path id="Path_45045" data-name="Path 45045" d="M-.236,0a.7.7,0,0,1,.7.7.7.7,0,0,1-.7.7.7.7,0,0,1-.7-.7.7.7,0,0,1,.7-.7" transform="translate(0.933)" fill="#0f3863"></path>
    </g>
    <g id="Group_38584" data-name="Group 38584" transform="translate(12.532 4.172)">
      <path id="Path_45046" data-name="Path 45046" d="M-7.794-5.848l4.027-4.064.126-.132.006-.007.045-.046a7.737,7.737,0,0,0-.184-10.725,7.582,7.582,0,0,0-10.646-.186c-.064.06-.128.122-.19.187,0,0-.006.011-.01.016l-7.287,7.348a2.161,2.161,0,0,0,0,3.038,2.118,2.118,0,0,0,1.5.627l6.981,7.05a.766.766,0,0,1,0,1.074.73.73,0,0,1-.523.219.733.733,0,0,1-.523-.219l-8.486-8.563a.7.7,0,0,0-.986,0,.7.7,0,0,0,0,.986l8.487,8.566a.766.766,0,0,1,0,1.075.75.75,0,0,1-1.046,0L-27.546-10.751c-.05-.051-.1-.1-.148-.155a6.343,6.343,0,0,1,.151-8.8,6.219,6.219,0,0,1,4.427-1.851A6.221,6.221,0,0,1-18.688-19.7a.7.7,0,0,0,.677.193.7.7,0,0,0,.5-.5.7.7,0,0,0-.186-.679,7.615,7.615,0,0,0-5.418-2.264,7.616,7.616,0,0,0-5.418,2.264,7.737,7.737,0,0,0-.183,10.726.13.13,0,0,0,.012.019l.164.166,0,0L-17.5,1.366A2.13,2.13,0,0,0-15.988,2a2.127,2.127,0,0,0,1.514-.633,2.146,2.146,0,0,0,.614-1.432A2.116,2.116,0,0,0-12.437-.69a2.152,2.152,0,0,0,.614-1.432A2.108,2.108,0,0,0-10.4-2.749a2.149,2.149,0,0,0,.614-1.432,2.116,2.116,0,0,0,1.423-.627,2.141,2.141,0,0,0,.569-1.04m-13.124-6.627L-13.46-20a6.193,6.193,0,0,1,8.7.155,6.342,6.342,0,0,1,.15,8.8L-4.652-11-8.1-7.519a2.14,2.14,0,0,0-.254-.314l-6.543-6.6.616-.621a5.407,5.407,0,0,0,3.248,1.48,4.8,4.8,0,0,0,3.7-1.641.7.7,0,0,0,.176-.676.7.7,0,0,0-.5-.491.7.7,0,0,0-.674.186,3.521,3.521,0,0,1-2.632,1.229,4.429,4.429,0,0,1-2.781-1.521.7.7,0,0,0-.508-.258.7.7,0,0,0-.53.207l-1.591,1.607-2.03,2.049-1.46,1.473a.733.733,0,0,1-.524.22.734.734,0,0,1-.523-.22.768.768,0,0,1-.01-1.065m9.53,8.755a.747.747,0,0,1-1.046,0l-6.552-6.611c.034-.03.07-.054.1-.086l.963-.971L-11.4-4.8l.006.009a.767.767,0,0,1,0,1.075m.995-2.054-6.545-6.606,1.055-1.064,6.533,6.592a.766.766,0,0,1,0,1.074.747.747,0,0,1-1.042,0" transform="translate(30.788 23.101)" fill="#3db5e5"></path>
    </g>
  </g>
</svg>
