<?xml version="1.0" encoding="UTF-8"?>
<svg xmlns="http://www.w3.org/2000/svg" xmlns:xlink="http://www.w3.org/1999/xlink" id="Group_38640" data-name="Group 38640" width="41.823" height="41.823" viewBox="0 0 41.823 41.823">
  <defs>
    <clipPath id="clip-path">
      <path id="Path_45060" data-name="Path 45060" d="M0-14.177H41.823V-56H0Z" transform="translate(0 56)" fill="none"></path>
    </clipPath>
  </defs>
  <g id="Group_38601" data-name="Group 38601" clip-path="url(#clip-path)">
    <g id="Group_38598" data-name="Group 38598" transform="translate(8.156 29.886)">
      <path id="Path_45057" data-name="Path 45057" d="M-11.2-.819h-3.351l-1.443-1a8.022,8.022,0,0,0-7.888-.689l-1.774.816h-3.785a3.489,3.489,0,0,0-3.47,3.164L-41.228-.754A2.411,2.411,0,0,0-44.011.512a2.412,2.412,0,0,0-.078,1.946A2.412,2.412,0,0,0-42.7,3.824l5.509,2.081a.613.613,0,0,0,.217.04.613.613,0,0,0,.574-.4.614.614,0,0,0-.357-.792l-5.509-2.081a1.167,1.167,0,0,1-.68-.67,1.165,1.165,0,0,1,.037-.953,1.182,1.182,0,0,1,1.364-.62l9.451,2.531a1.224,1.224,0,0,0,.4.068h7.079A.614.614,0,0,0-24,2.418a.614.614,0,0,0-.614-.614h-7.079A.008.008,0,0,1-31.7,1.8,2.26,2.26,0,0,1-29.445-.462h3.919a.611.611,0,0,0,.257-.057l1.9-.872A6.791,6.791,0,0,1-16.7-.808L-15.1.3a.608.608,0,0,0,.35.11h2.928V5.7h-3.146a.56.56,0,0,0-.106.01L-23.748,7.23a16.348,16.348,0,0,1-8.6-.809l-2.1-.795a.615.615,0,0,0-.792.358.614.614,0,0,0,.358.791l2.1.795A17.573,17.573,0,0,0-26.575,8.7a17.56,17.56,0,0,0,3.04-.264l8.625-1.516H-11.2a.614.614,0,0,0,.614-.614V-.2A.614.614,0,0,0-11.2-.819" transform="translate(44.257 3.233)" fill="#3db5e5"></path>
    </g>
    <g id="Group_38599" data-name="Group 38599" transform="translate(21.617 13.409)">
      <path id="Path_45058" data-name="Path 45058" d="M-.8-3.289A.614.614,0,0,0-.185-3.9V-4.33A2.47,2.47,0,0,0,1.608-6.3,2.174,2.174,0,0,0,.13-8.756L-.185-8.87v-1.905a1.224,1.224,0,0,1,.329.185.614.614,0,0,0,.419.165.614.614,0,0,0,.614-.614A.611.611,0,0,0,.971-11.5a2.554,2.554,0,0,0-1.155-.55v-.329A.614.614,0,0,0-.8-12.991a.614.614,0,0,0-.614.614v.371l-.107.029a2.047,2.047,0,0,0-1.4,1.6,1.82,1.82,0,0,0,.6,1.792,4.474,4.474,0,0,0,.91.533v2.542A1.839,1.839,0,0,1-2.2-5.848a.613.613,0,0,0-.849.178.613.613,0,0,0,.177.849,2.961,2.961,0,0,0,1.465.549v.37A.614.614,0,0,0-.8-3.289m.614-4.272A.928.928,0,0,1,.4-6.5a1.244,1.244,0,0,1-.582.854ZM-1.564-9.545a.62.62,0,0,1-.153-.6.9.9,0,0,1,.3-.527v1.233c-.055-.036-.105-.072-.152-.108" transform="translate(3.154 12.991)" fill="#0f3863"></path>
    </g>
    <g id="Group_38600" data-name="Group 38600" transform="translate(0)">
      <path id="Path_45059" data-name="Path 45059" d="M-3.819-7.5A6.571,6.571,0,0,0-2.364-3.861C-.425-1.519,3.269-.381,8.929-.381a30.028,30.028,0,0,0,4.7-.334.615.615,0,0,0,.509-.7.613.613,0,0,0-.7-.508,28.734,28.734,0,0,1-4.509.318C3.731-1.609.25-2.63-1.418-4.644a5.4,5.4,0,0,1-1.2-3.22.633.633,0,0,0-.007-.125A10.1,10.1,0,0,1-2.439-10.3,15.155,15.155,0,0,1,.416-16.622a7.942,7.942,0,0,0,.507-.643A18.117,18.117,0,0,1,3.492-19.8l2.386.866a3.821,3.821,0,0,0,4.511-1.506H13.5a17.011,17.011,0,0,1,2.869,2.533A15.838,15.838,0,0,1,20.3-10.3a7,7,0,0,1-.642,5.138,6.921,6.921,0,0,1-3.911,2.7.614.614,0,0,0-.4.772.615.615,0,0,0,.772.4,8.089,8.089,0,0,0,4.573-3.213,8.161,8.161,0,0,0,.811-6.023,17.07,17.07,0,0,0-4.252-8.237,19.092,19.092,0,0,0-2.429-2.237,1.944,1.944,0,0,0,.583-1.388,1.954,1.954,0,0,0-1.455-1.887l1.08-2.847a1.843,1.843,0,0,0-.206-1.7,1.843,1.843,0,0,0-1.516-.8H4.55a1.842,1.842,0,0,0-1.516.8,1.843,1.843,0,0,0-.206,1.7l.53,1.4a7.441,7.441,0,0,0-7.959.818.613.613,0,0,0-.1.862.613.613,0,0,0,.862.1A6.212,6.212,0,0,1,2.873-24.6l6.548,3.394A2.6,2.6,0,0,1,6.3-20.09L2.047-21.634a.613.613,0,0,0-.529.053.614.614,0,0,0-.29.445A7.881,7.881,0,0,1,.087-18.217c-.051.078-.1.154-.155.229a6.692,6.692,0,0,1-.451.571l-.019.023a6.429,6.429,0,0,1-5.043,2.072.614.614,0,0,0-.614.614.614.614,0,0,0,.614.614,8.593,8.593,0,0,0,3.376-.639,15.774,15.774,0,0,0-1.44,4.2,12.2,12.2,0,0,0-.2,1.647l-1.89-.943A10.226,10.226,0,0,0-10.283-10.9h-3.575v-9.776h5.677a.614.614,0,0,0,.382-.133l2.037-1.618a.613.613,0,0,0,.1-.862.614.614,0,0,0-.863-.1L-8.4-21.9h-6.077a.614.614,0,0,0-.614.614v11a.614.614,0,0,0,.614.614h4.189a9,9,0,0,1,4,.942Zm7.864-20.63a.605.605,0,0,1,.506-.265h8.757a.616.616,0,0,1,.574.831l-1.22,3.218H6.037L4.99-24.888,3.976-27.563a.605.605,0,0,1,.069-.566m4.362,5.011h5.047a.724.724,0,0,1,.723.724.724.724,0,0,1-.723.724H10.573a1.2,1.2,0,0,0-.558-.613Z" transform="translate(15.086 29.622)" fill="#0f3863"></path>
    </g>
  </g>
</svg>
