<?xml version="1.0" encoding="UTF-8"?>
<svg xmlns="http://www.w3.org/2000/svg" xmlns:xlink="http://www.w3.org/1999/xlink" id="Group_38531" data-name="Group 38531" width="53.763" height="60" viewBox="0 0 53.763 60">
  <defs>
    <clipPath id="clip-path">
      <rect id="Rectangle_4152" data-name="Rectangle 4152" width="53.763" height="60" fill="#fff"></rect>
    </clipPath>
  </defs>
  <g id="Group_38530" data-name="Group 38530" clip-path="url(#clip-path)">
    <path id="Path_44829" data-name="Path 44829" d="M30.877,37.28a7.1,7.1,0,1,0-7.1-7.1,7.109,7.109,0,0,0,7.1,7.1m0-11.376A4.274,4.274,0,1,1,26.6,30.178,4.278,4.278,0,0,1,30.877,25.9" fill="#fff"></path>
    <path id="Path_44830" data-name="Path 44830" d="M35.509,39.426h-9.28a9.4,9.4,0,0,0-9.4,9.372v8.7a2.474,2.474,0,0,0,2.5,2.5H42.378a2.474,2.474,0,0,0,2.5-2.5v-8.69a9.378,9.378,0,0,0-9.372-9.381m6.545,17.755h-2.6V48.84a1.164,1.164,0,1,0-2.328,0v8.341H24.557V48.84a1.164,1.164,0,1,0-2.328,0v8.341H19.667V48.807a6.568,6.568,0,0,1,6.562-6.553h9.28A6.551,6.551,0,0,1,42.054,48.8Z" fill="#fff"></path>
    <path id="Path_44831" data-name="Path 44831" d="M39.759,14.2a7.1,7.1,0,1,0-7.1-7.1,7.109,7.109,0,0,0,7.1,7.1m0-11.377A4.275,4.275,0,1,1,35.485,7.1a4.279,4.279,0,0,1,4.274-4.275" fill="#fff"></path>
    <path id="Path_44832" data-name="Path 44832" d="M51.01,19.094a9.319,9.319,0,0,0-6.628-2.753h-9.43a9.362,9.362,0,0,0-7.526,3.826,1.412,1.412,0,1,0,2.27,1.68,6.525,6.525,0,0,1,5.247-2.67H44.39a6.559,6.559,0,0,1,6.545,6.545V34.1h-2.6V25.764a1.165,1.165,0,1,0-2.329,0V34.1H38.71a1.413,1.413,0,0,0,0,2.827H51.251a2.475,2.475,0,0,0,2.5-2.5V25.722h.008a9.277,9.277,0,0,0-2.752-6.628" fill="#fff"></path>
    <path id="Path_44833" data-name="Path 44833" d="M14.037,23.684a7.1,7.1,0,1,0-7.1-7.1,7.109,7.109,0,0,0,7.1,7.1m0-11.385a4.274,4.274,0,1,1-4.274,4.274A4.278,4.278,0,0,1,14.037,12.3" fill="#fff"></path>
    <path id="Path_44834" data-name="Path 44834" d="M14.935,43.584H7.75V35.235a1.165,1.165,0,1,0-2.329,0v8.349h-2.6V35.2a6.562,6.562,0,0,1,6.569-6.544l9.339.008a6.282,6.282,0,0,1,2.4.466,1.48,1.48,0,0,0,.532.1,1.41,1.41,0,0,0,.532-2.719,9.151,9.151,0,0,0-3.459-.673L9.4,25.829A9.4,9.4,0,0,0,0,35.2v8.7a2.474,2.474,0,0,0,2.5,2.5H14.935a1.41,1.41,0,1,0,0-2.819" fill="#fff"></path>
  </g>
</svg>
