<?xml version="1.0" encoding="UTF-8"?>
<svg xmlns="http://www.w3.org/2000/svg" xmlns:xlink="http://www.w3.org/1999/xlink" id="Group_38537" data-name="Group 38537" width="62.909" height="65.425" viewBox="0 0 62.909 65.425">
  <defs>
    <clipPath id="clip-path">
      <rect id="Rectangle_4154" data-name="Rectangle 4154" width="62.909" height="65.425" fill="#fff"></rect>
    </clipPath>
  </defs>
  <g id="Group_38541" data-name="Group 38541" clip-path="url(#clip-path)">
    <path id="Path_44842" data-name="Path 44842" d="M42.971,18.142a17.963,17.963,0,0,0-12.652-4.986,17.961,17.961,0,0,0-12.652,4.986,17.022,17.022,0,0,0-5.115,12.31,17.394,17.394,0,0,0,6.149,13.2,11.271,11.271,0,0,1,3.772,7.044,3.536,3.536,0,0,0-1.757,3.047V54.8A3.549,3.549,0,0,0,23.3,58.2a3.477,3.477,0,0,0-.311,1.439V60.7a3.558,3.558,0,0,0,3.568,3.538h7.529A3.558,3.558,0,0,0,37.651,60.7v-1.06a3.489,3.489,0,0,0-.31-1.439,3.548,3.548,0,0,0,2.58-3.4v-1.06a3.536,3.536,0,0,0-1.757-3.047,11.271,11.271,0,0,1,3.772-7.044,17.388,17.388,0,0,0,6.149-13.2A17.025,17.025,0,0,0,42.971,18.142ZM35.415,60.7A1.318,1.318,0,0,1,34.083,62H26.554a1.318,1.318,0,0,1-1.331-1.3v-1.06a1.318,1.318,0,0,1,1.331-1.3h7.529a1.318,1.318,0,0,1,1.331,1.3Zm2.27-5.9a1.318,1.318,0,0,1-1.331,1.3H24.284a1.318,1.318,0,0,1-1.331-1.3v-1.06a1.318,1.318,0,0,1,1.331-1.3h12.07a1.318,1.318,0,0,1,1.331,1.3ZM26.851,36.17H24.632a1.593,1.593,0,1,1,0-3.186h.592a1.612,1.612,0,0,1,1.627,1.593Zm4.78,14.03H29.087V38.407h2.544Zm8.851-8.252a13.437,13.437,0,0,0-4.5,8.252H33.868V38.407h2.255a3.83,3.83,0,1,0,0-7.66h-.628a3.851,3.851,0,0,0-3.863,3.831V36.17H29.087V34.577a3.852,3.852,0,0,0-3.863-3.831h-.592a3.83,3.83,0,1,0,0,7.66h2.219V50.2H24.659a13.437,13.437,0,0,0-4.5-8.252,15.152,15.152,0,0,1-5.367-11.5c0-8.585,6.677-15.06,15.53-15.06s15.53,6.475,15.53,15.06a15.149,15.149,0,0,1-5.366,11.5M33.868,36.17V34.577a1.612,1.612,0,0,1,1.627-1.593h.628a1.593,1.593,0,1,1,0,3.186Z" transform="translate(1.135 1.19)" fill="#fff"></path>
    <path id="Path_44843" data-name="Path 44843" d="M49.366,56.552a3.169,3.169,0,0,1-2.255-.932l-3.145-3.136L45.545,50.9l3.146,3.136a1.076,1.076,0,0,0,1.385.052l3.855-3.716a1.061,1.061,0,0,0,.051-1.36l-3.071-3.063a1.118,1.118,0,0,1-.132-1.424,22.958,22.958,0,0,0,3.5-8.221,1.119,1.119,0,0,1,1.095-.89h4.375a1.022,1.022,0,0,0,.928-.973V29.035a1.051,1.051,0,0,0-1.109-.924H55.108a1.119,1.119,0,0,1-1.1-.933,22.208,22.208,0,0,0-3.372-8.33,1.118,1.118,0,0,1,.147-1.4l3.145-3.136a1.064,1.064,0,0,0,.052-1.373L50.25,9.092a1.074,1.074,0,0,0-1.372-.05L45.807,12.1a1.12,1.12,0,0,1-1.421.132,23.077,23.077,0,0,0-8.246-3.488,1.119,1.119,0,0,1-.891-1.095V3.209a.926.926,0,0,0-.847-.973H28.98a1.022,1.022,0,0,0-.928.973V7.782a1.118,1.118,0,0,1-.936,1.1,22.368,22.368,0,0,0-8.355,3.364,1.119,1.119,0,0,1-1.4-.146L14.219,8.967a1.076,1.076,0,0,0-1.385-.051L8.979,12.631a1.062,1.062,0,0,0-.05,1.36L12,17.053a1.119,1.119,0,0,1,.132,1.425,22.96,22.96,0,0,0-3.5,8.221,1.118,1.118,0,0,1-1.094.89H3.165a1.023,1.023,0,0,0-.929.973v5.407a1.024,1.024,0,0,0,.979.922H7.671a1.118,1.118,0,0,1,1.1.934,22.211,22.211,0,0,0,3.373,8.33,1.119,1.119,0,0,1-.147,1.4L8.853,48.694A1.064,1.064,0,0,0,8.8,50.067l3.726,3.845a1.077,1.077,0,0,0,1.373.05L16.971,50.9l1.579,1.583L15.405,55.62a1.126,1.126,0,0,1-.141.119,3.308,3.308,0,0,1-4.321-.25l-.013-.014-3.8-3.92a1.181,1.181,0,0,1-.106-.126,3.291,3.291,0,0,1,.251-4.318L9.787,44.6a24.583,24.583,0,0,1-3.04-7.476H3.216a3.255,3.255,0,0,1-3.207-2.94A1.184,1.184,0,0,1,0,34.049V28.561a3.254,3.254,0,0,1,2.946-3.2,1.166,1.166,0,0,1,.138-.009H6.648a25.286,25.286,0,0,1,3.125-7.358L7.274,15.5a1.135,1.135,0,0,1-.12-.141,3.292,3.292,0,0,1,.251-4.318l.013-.013L11.35,7.239a.913.913,0,0,1,.128-.106,3.305,3.305,0,0,1,4.321.25l2.516,2.509a24.716,24.716,0,0,1,7.5-3.035V3.209a3.252,3.252,0,0,1,2.945-3.2A.984.984,0,0,1,28.9,0h5.5a3.152,3.152,0,0,1,3.085,3.209V6.76a25.371,25.371,0,0,1,7.382,3.12l2.5-2.5a1.05,1.05,0,0,1,.142-.119,3.305,3.305,0,0,1,4.321.25l.013.013,3.8,3.92a1.172,1.172,0,0,1,.106.128,3.291,3.291,0,0,1-.25,4.318L52.992,18.4a24.638,24.638,0,0,1,3.04,7.476h3.531a3.287,3.287,0,0,1,3.338,2.94,1.185,1.185,0,0,1,.009.14v5.488a3.252,3.252,0,0,1-2.946,3.2.974.974,0,0,1-.138.009H56.261a25.292,25.292,0,0,1-3.125,7.359l2.5,2.493a.978.978,0,0,1,.119.141,3.291,3.291,0,0,1-.25,4.318l-.014.013-3.931,3.789a1,1,0,0,1-.128.106A3.564,3.564,0,0,1,49.366,56.552Z" fill="#fff"></path>
  </g>
</svg>
