<?xml version="1.0" encoding="UTF-8"?>
<svg xmlns="http://www.w3.org/2000/svg" xmlns:xlink="http://www.w3.org/1999/xlink" width="65.093" height="76.81" viewBox="0 0 65.093 76.81">
  <defs>
    <clipPath id="clip-path">
      <rect id="Rectangle_4153" data-name="Rectangle 4153" width="31.803" height="36.291" fill="#fff"></rect>
    </clipPath>
  </defs>
  <g id="Group_38536" data-name="Group 38536" transform="translate(-698.71 -701.19)">
    <g id="Group_38537" data-name="Group 38537" transform="translate(698.71 741.709)">
      <g id="Group_38535" data-name="Group 38535" clip-path="url(#clip-path)">
        <path id="Path_44838" data-name="Path 44838" d="M15.9,36.291a1.391,1.391,0,0,1-.7-.187L.7,27.728A1.4,1.4,0,0,1,0,26.52V9.77A1.4,1.4,0,0,1,.7,8.562L15.2.187a1.4,1.4,0,0,1,1.4,0L31.1,8.562a1.394,1.394,0,0,1,.7,1.208V26.52a1.394,1.394,0,0,1-.7,1.208L16.6,36.1a1.391,1.391,0,0,1-.7.188M2.792,25.714,15.9,33.283l13.109-7.569V10.576L15.9,3.007,2.792,10.576Z" transform="translate(0 0)" fill="#fff"></path>
        <path id="Path_44839" data-name="Path 44839" d="M25.379,47.233a1.4,1.4,0,0,1-1.4-1.4V29.088a1.4,1.4,0,0,1,2.792,0V45.837a1.4,1.4,0,0,1-1.4,1.4" transform="translate(-9.477 -10.943)" fill="#fff"></path>
        <path id="Path_44840" data-name="Path 44840" d="M15.9,25.012a1.385,1.385,0,0,1-.7-.187L.7,16.449a1.395,1.395,0,1,1,1.395-2.416L16.6,22.408a1.4,1.4,0,0,1-.7,2.6Z" transform="translate(0 -5.471)" fill="#fff"></path>
        <path id="Path_44841" data-name="Path 44841" d="M25.381,25.012a1.4,1.4,0,0,1-.7-2.6l14.5-8.375a1.4,1.4,0,1,1,1.4,2.418l-14.5,8.375A1.386,1.386,0,0,1,25.381,25.012Z" transform="translate(-9.477 -5.471)" fill="#fff"></path>
      </g>
    </g>
    <g id="Group_38538" data-name="Group 38538" transform="translate(732 741.709)">
      <g id="Group_38535-2" data-name="Group 38535" clip-path="url(#clip-path)">
        <path id="Path_44838-2" data-name="Path 44838" d="M15.9,36.291a1.391,1.391,0,0,1-.7-.187L.7,27.728A1.4,1.4,0,0,1,0,26.52V9.77A1.4,1.4,0,0,1,.7,8.562L15.2.187a1.4,1.4,0,0,1,1.4,0L31.1,8.562a1.394,1.394,0,0,1,.7,1.208V26.52a1.394,1.394,0,0,1-.7,1.208L16.6,36.1a1.391,1.391,0,0,1-.7.188M2.792,25.714,15.9,33.283l13.109-7.569V10.576L15.9,3.007,2.792,10.576Z" transform="translate(0 0)" fill="#fff"></path>
        <path id="Path_44839-2" data-name="Path 44839" d="M25.379,47.233a1.4,1.4,0,0,1-1.4-1.4V29.088a1.4,1.4,0,0,1,2.792,0V45.837a1.4,1.4,0,0,1-1.4,1.4" transform="translate(-9.477 -10.943)" fill="#fff"></path>
        <path id="Path_44840-2" data-name="Path 44840" d="M15.9,25.012a1.385,1.385,0,0,1-.7-.187L.7,16.449a1.395,1.395,0,1,1,1.395-2.416L16.6,22.408a1.4,1.4,0,0,1-.7,2.6Z" transform="translate(0 -5.471)" fill="#fff"></path>
        <path id="Path_44841-2" data-name="Path 44841" d="M25.381,25.012a1.4,1.4,0,0,1-.7-2.6l14.5-8.375a1.4,1.4,0,1,1,1.4,2.418l-14.5,8.375A1.386,1.386,0,0,1,25.381,25.012Z" transform="translate(-9.477 -5.471)" fill="#fff"></path>
      </g>
    </g>
    <g id="Group_38539" data-name="Group 38539" transform="translate(708.058 717.091) rotate(-30)">
      <g id="Group_38535-3" data-name="Group 38535" clip-path="url(#clip-path)">
        <path id="Path_44838-3" data-name="Path 44838" d="M15.9,36.291a1.391,1.391,0,0,1-.7-.187L.7,27.728A1.4,1.4,0,0,1,0,26.52V9.77A1.4,1.4,0,0,1,.7,8.562L15.2.187a1.4,1.4,0,0,1,1.4,0L31.1,8.562a1.394,1.394,0,0,1,.7,1.208V26.52a1.394,1.394,0,0,1-.7,1.208L16.6,36.1a1.391,1.391,0,0,1-.7.188M2.792,25.714,15.9,33.283l13.109-7.569V10.576L15.9,3.007,2.792,10.576Z" transform="translate(0 0)" fill="#fff"></path>
        <path id="Path_44839-3" data-name="Path 44839" d="M25.379,47.233a1.4,1.4,0,0,1-1.4-1.4V29.088a1.4,1.4,0,0,1,2.792,0V45.837a1.4,1.4,0,0,1-1.4,1.4" transform="translate(-9.477 -10.943)" fill="#fff"></path>
        <path id="Path_44840-3" data-name="Path 44840" d="M15.9,25.012a1.385,1.385,0,0,1-.7-.187L.7,16.449a1.395,1.395,0,1,1,1.395-2.416L16.6,22.408a1.4,1.4,0,0,1-.7,2.6Z" transform="translate(0 -5.471)" fill="#fff"></path>
        <path id="Path_44841-3" data-name="Path 44841" d="M25.381,25.012a1.4,1.4,0,0,1-.7-2.6l14.5-8.375a1.4,1.4,0,1,1,1.4,2.418l-14.5,8.375A1.386,1.386,0,0,1,25.381,25.012Z" transform="translate(-9.477 -5.471)" fill="#fff"></path>
      </g>
    </g>
    <g id="Ellipse_2695" data-name="Ellipse 2695" transform="translate(708 734)" fill="none" stroke="#fff" stroke-width="2">
      <circle cx="3.5" cy="3.5" r="3.5" stroke="none"></circle>
      <circle cx="3.5" cy="3.5" r="2.5" fill="none"></circle>
    </g>
    <g id="Ellipse_2696" data-name="Ellipse 2696" transform="translate(749 732)" fill="none" stroke="#fff" stroke-width="2">
      <circle cx="3.5" cy="3.5" r="3.5" stroke="none"></circle>
      <circle cx="3.5" cy="3.5" r="2.5" fill="none"></circle>
    </g>
  </g>
</svg>
