<?xml version="1.0" encoding="UTF-8"?>
<svg xmlns="http://www.w3.org/2000/svg" xmlns:xlink="http://www.w3.org/1999/xlink" id="Group_38529" data-name="Group 38529" width="68.053" height="60" viewBox="0 0 68.053 60">
  <defs>
    <clipPath id="clip-path">
      <rect id="Rectangle_4150" data-name="Rectangle 4150" width="68.053" height="60" fill="#fff"></rect>
    </clipPath>
  </defs>
  <g id="Group_38525" data-name="Group 38525" clip-path="url(#clip-path)">
    <path id="Path_44817" data-name="Path 44817" d="M47.028,28.5V41.365a.716.716,0,0,0,.717.717h4.328V54.933a.717.717,0,0,0,.717.717h9.5a.717.717,0,0,0,.718-.717V42.082h4.327a.716.716,0,0,0,.717-.717V28.5a10.512,10.512,0,0,0-21.024,0m10.5-9.066A9.073,9.073,0,0,1,66.618,28.5V40.648h-3.61V30.042a.717.717,0,1,0-1.435,0V54.216H58.258V41.365a.717.717,0,1,0-1.434,0V54.216H53.508V30.042a.717.717,0,1,0-1.435,0V40.648h-3.61V28.5A9.076,9.076,0,0,1,57.53,19.435Z" fill="#fff"></path>
    <path id="Path_44818" data-name="Path 44818" d="M57.542,3.288a6.367,6.367,0,1,0,6.365,6.368,6.374,6.374,0,0,0-6.365-6.368m0,11.3a4.932,4.932,0,1,1,4.93-4.931,4.938,4.938,0,0,1-4.93,4.931" fill="#fff"></path>
    <path id="Path_44819" data-name="Path 44819" d="M0,28.5V41.365a.716.716,0,0,0,.717.717H5.045V54.933a.717.717,0,0,0,.717.717h9.5a.717.717,0,0,0,.718-.717V42.082h4.327a.716.716,0,0,0,.717-.717V28.5A10.512,10.512,0,0,0,0,28.5m10.5-9.066A9.073,9.073,0,0,1,19.59,28.5V40.648H15.98V30.042a.717.717,0,1,0-1.435,0V54.216H11.23V41.365a.717.717,0,1,0-1.434,0V54.216H6.48V30.042a.718.718,0,1,0-1.435,0V40.648H1.435V28.5A9.076,9.076,0,0,1,10.5,19.435Z" fill="#fff"></path>
    <path id="Path_44820" data-name="Path 44820" d="M10.513,3.288a6.366,6.366,0,1,0,6.366,6.368,6.374,6.374,0,0,0-6.366-6.368m0,11.3a4.932,4.932,0,1,1,4.931-4.931,4.938,4.938,0,0,1-4.931,4.931" fill="#fff"></path>
    <path id="Path_44821" data-name="Path 44821" d="M23.135,18.5A3.486,3.486,0,0,0,24,20.409c.85,5.651,5.578,10.9,9.9,10.9,5.035,0,9.624-5.68,10.516-10.889a3.482,3.482,0,0,0,.887-1.915c.29-1.058.655-2.9.007-3.76-.034-.042-.073-.084-.1-.126.609-2.225,1.379-6.818-1.375-9.952a10.137,10.137,0,0,0-5.091-3.13L37.171.993A25.076,25.076,0,0,0,32.874,0a1.019,1.019,0,0,0-.355.031,1.767,1.767,0,0,1-.641.073A4.443,4.443,0,0,0,30.158.4c-.212.083-5.241,2.1-6.769,6.786-.139.383-.749,2.375.059,7.257a1.405,1.405,0,0,0-.32.307c-.651.856-.282,2.695.007,3.753M25.109,7.856c.01-.024.017-.049.028-.077,1.243-3.861,5.655-5.644,5.683-5.658a3.008,3.008,0,0,1,.8-.188,3.66,3.66,0,0,0,1.2-.08,25.759,25.759,0,0,1,3.771.888l1.584.543A8.413,8.413,0,0,1,42.38,5.8a.551.551,0,0,0,.059.069c2.549,2.876,1.233,7.629.77,9.015a.916.916,0,0,0,.212.93.928.928,0,0,0,.425.254,8.477,8.477,0,0,1-.324,2c-.01.035-.017.07-.024.1a1.582,1.582,0,0,1-.481,1.049.9.9,0,0,0-.362.609c-.616,4.366-4.655,9.645-8.747,9.645-3.44,0-7.538-4.861-8.12-9.628a.917.917,0,0,0-.362-.623,1.636,1.636,0,0,1-.484-1.052c0-.034-.014-.073-.021-.108a8.71,8.71,0,0,1-.32-1.9.934.934,0,0,0,.491-.191.92.92,0,0,0,.341-.9c-1.01-5.3-.324-7.211-.324-7.211" fill="#fff"></path>
    <path id="Path_44822" data-name="Path 44822" d="M53.491,35.441a7.972,7.972,0,0,0-3.461-2.333s-.2-.063-.516-.164a38.653,38.653,0,0,0-4.22-1.668c-.442-.156-.825-.309-1.18-.463-1.466-.727-2.688-1.546-2.946-2.315l1.1,8.834L34.28,57.859,26.738,37.75l.153-9.266c-.682,2.138-8.865,4.624-8.865,4.624a8,8,0,0,0-3.461,2.333c-3.6,5.338-4.022,17.208-4.022,17.208.049,2.713,1.219,3,1.219,3,8.27,3.688,21.254,4.346,21.254,4.346.7.014,1.355-.021,2-.063l.017.07s12.985-.658,21.255-4.346c0,0,1.173-.285,1.218-3,0,0-.421-11.88-4.018-17.215" fill="#fff"></path>
    <path id="Path_44823" data-name="Path 44823" d="M40.89,28.849c.094-.118.188-.226.279-.352a.83.83,0,0,1-.021-.118c-.087.167-.174.306-.258.47" fill="#fff"></path>
    <path id="Path_44824" data-name="Path 44824" d="M26.933,28.466l-.021-.084-.017.1c0-.017.021-.035.024-.052a.249.249,0,0,1,.014.038" fill="#fff"></path>
    <path id="Path_44825" data-name="Path 44825" d="M30.806,32.22l3.544,5.422,3.544-5.422a8.758,8.758,0,0,1-7.088,0" fill="#fff"></path>
    <path id="Path_44826" data-name="Path 44826" d="M34.35,55.874l2.709-16.463L34.35,37.642l-2.713,1.769Z" fill="#fff"></path>
  </g>
</svg>
