<?xml version="1.0" encoding="UTF-8"?>
<svg xmlns="http://www.w3.org/2000/svg" xmlns:xlink="http://www.w3.org/1999/xlink" id="Group_38535" data-name="Group 38535" width="40.095" height="45.753" viewBox="0 0 40.095 45.753">
  <defs>
    <clipPath id="clip-path">
      <rect id="Rectangle_4153" data-name="Rectangle 4153" width="40.095" height="45.753" fill="#fff"></rect>
    </clipPath>
  </defs>
  <g id="Group_38535-2" data-name="Group 38535" clip-path="url(#clip-path)">
    <path id="Path_44838" data-name="Path 44838" d="M20.048,45.753a1.754,1.754,0,0,1-.88-.236L.88,34.958A1.759,1.759,0,0,1,0,33.435V12.317A1.759,1.759,0,0,1,.88,10.794L19.168.236a1.761,1.761,0,0,1,1.76,0L39.214,10.794a1.758,1.758,0,0,1,.88,1.524V33.435a1.758,1.758,0,0,1-.88,1.524L20.928,45.516a1.754,1.754,0,0,1-.88.236M3.52,32.418l16.528,9.543,16.527-9.543V13.334L20.048,3.791,3.52,13.334Z" transform="translate(0 0)" fill="#fff"></path>
    <path id="Path_44839" data-name="Path 44839" d="M25.743,52.328a1.761,1.761,0,0,1-1.76-1.76V29.452a1.76,1.76,0,0,1,3.52,0V50.568a1.761,1.761,0,0,1-1.76,1.76" transform="translate(-5.695 -6.576)" fill="#fff"></path>
    <path id="Path_44840" data-name="Path 44840" d="M20.047,27.924a1.746,1.746,0,0,1-.878-.236L.881,17.129a1.759,1.759,0,1,1,1.758-3.046L20.927,24.64a1.76,1.76,0,0,1-.881,3.284Z" transform="translate(0 -3.288)" fill="#fff"></path>
    <path id="Path_44841" data-name="Path 44841" d="M25.745,27.924a1.759,1.759,0,0,1-.882-3.284L43.15,14.082a1.76,1.76,0,1,1,1.759,3.048L26.623,27.688A1.748,1.748,0,0,1,25.745,27.924Z" transform="translate(-5.695 -3.288)" fill="#fff"></path>
  </g>
</svg>
