<?xml version="1.0" encoding="UTF-8"?>
<svg xmlns="http://www.w3.org/2000/svg" xmlns:xlink="http://www.w3.org/1999/xlink" width="360" height="403.375" viewBox="0 0 360 403.375">
  <defs>
    <clipPath id="a">
      <rect width="360" height="403.375" fill="none"></rect>
    </clipPath>
    <filter id="b" x="15.5" y="186.5" width="55" height="55">
      <feOffset dy="5"></feOffset>
      <feGaussianBlur stdDeviation="7.5" result="c"></feGaussianBlur>
      <feFlood flood-opacity="0.102"></feFlood>
      <feComposite operator="in" in2="c"></feComposite>
      <feComposite in="SourceGraphic"></feComposite>
    </filter>
    <filter id="d" x="35.5" y="203.5" width="15" height="15">
      <feOffset dy="2"></feOffset>
      <feGaussianBlur stdDeviation="1.5" result="e"></feGaussianBlur>
      <feFlood flood-opacity="0.102"></feFlood>
      <feComposite operator="in" in2="e"></feComposite>
      <feComposite in="SourceGraphic"></feComposite>
    </filter>
    <filter id="f" x="22.5" y="174.5" width="55" height="55">
      <feOffset dy="5"></feOffset>
      <feGaussianBlur stdDeviation="7.5" result="g"></feGaussianBlur>
      <feFlood flood-opacity="0.102"></feFlood>
      <feComposite operator="in" in2="g"></feComposite>
      <feComposite in="SourceGraphic"></feComposite>
    </filter>
    <filter id="h" x="42.5" y="191.5" width="15" height="15">
      <feOffset dy="2"></feOffset>
      <feGaussianBlur stdDeviation="1.5" result="i"></feGaussianBlur>
      <feFlood flood-opacity="0.102"></feFlood>
      <feComposite operator="in" in2="i"></feComposite>
      <feComposite in="SourceGraphic"></feComposite>
    </filter>
    <filter id="j" x="32.5" y="231.5" width="55" height="55">
      <feOffset dy="5"></feOffset>
      <feGaussianBlur stdDeviation="7.5" result="k"></feGaussianBlur>
      <feFlood flood-opacity="0.102"></feFlood>
      <feComposite operator="in" in2="k"></feComposite>
      <feComposite in="SourceGraphic"></feComposite>
    </filter>
    <filter id="l" x="52.5" y="248.5" width="15" height="15">
      <feOffset dy="2"></feOffset>
      <feGaussianBlur stdDeviation="1.5" result="m"></feGaussianBlur>
      <feFlood flood-opacity="0.102"></feFlood>
      <feComposite operator="in" in2="m"></feComposite>
      <feComposite in="SourceGraphic"></feComposite>
    </filter>
    <filter id="n" x="55.5" y="196.5" width="55" height="55">
      <feOffset dy="5"></feOffset>
      <feGaussianBlur stdDeviation="7.5" result="o"></feGaussianBlur>
      <feFlood flood-opacity="0.102"></feFlood>
      <feComposite operator="in" in2="o"></feComposite>
      <feComposite in="SourceGraphic"></feComposite>
    </filter>
    <filter id="p" x="75.5" y="213.5" width="15" height="15">
      <feOffset dy="2"></feOffset>
      <feGaussianBlur stdDeviation="1.5" result="q"></feGaussianBlur>
      <feFlood flood-opacity="0.102"></feFlood>
      <feComposite operator="in" in2="q"></feComposite>
      <feComposite in="SourceGraphic"></feComposite>
    </filter>
    <filter id="r" x="85.5" y="105.5" width="55" height="55">
      <feOffset dy="5"></feOffset>
      <feGaussianBlur stdDeviation="7.5" result="s"></feGaussianBlur>
      <feFlood flood-opacity="0.102"></feFlood>
      <feComposite operator="in" in2="s"></feComposite>
      <feComposite in="SourceGraphic"></feComposite>
    </filter>
    <filter id="t" x="105.5" y="122.5" width="15" height="15">
      <feOffset dy="2"></feOffset>
      <feGaussianBlur stdDeviation="1.5" result="u"></feGaussianBlur>
      <feFlood flood-opacity="0.102"></feFlood>
      <feComposite operator="in" in2="u"></feComposite>
      <feComposite in="SourceGraphic"></feComposite>
    </filter>
    <filter id="v" x="109.5" y="247.5" width="55" height="55">
      <feOffset dy="5"></feOffset>
      <feGaussianBlur stdDeviation="7.5" result="w"></feGaussianBlur>
      <feFlood flood-opacity="0.102"></feFlood>
      <feComposite operator="in" in2="w"></feComposite>
      <feComposite in="SourceGraphic"></feComposite>
    </filter>
    <filter id="x" x="129.5" y="264.5" width="15" height="15">
      <feOffset dy="2"></feOffset>
      <feGaussianBlur stdDeviation="1.5" result="y"></feGaussianBlur>
      <feFlood flood-opacity="0.102"></feFlood>
      <feComposite operator="in" in2="y"></feComposite>
      <feComposite in="SourceGraphic"></feComposite>
    </filter>
    <filter id="z" x="172.5" y="164.5" width="55" height="55">
      <feOffset dy="5"></feOffset>
      <feGaussianBlur stdDeviation="7.5" result="aa"></feGaussianBlur>
      <feFlood flood-opacity="0.102"></feFlood>
      <feComposite operator="in" in2="aa"></feComposite>
      <feComposite in="SourceGraphic"></feComposite>
    </filter>
    <filter id="ab" x="192.5" y="181.5" width="15" height="15">
      <feOffset dy="2"></feOffset>
      <feGaussianBlur stdDeviation="1.5" result="ac"></feGaussianBlur>
      <feFlood flood-opacity="0.102"></feFlood>
      <feComposite operator="in" in2="ac"></feComposite>
      <feComposite in="SourceGraphic"></feComposite>
    </filter>
  </defs>
  <g transform="translate(-113 -625)">
    <g transform="translate(113 625)" opacity="0.13">
      <g clip-path="url(#a)">
        <path d="M158.944,729.578a6.163,6.163,0,0,1-.489-1.242c-.445-1.429-.03-.166-.7-1.066-.444-.593.2-2.963-.59-3.119a11.486,11.486,0,0,0-3.19.205c-1.427.271-1.593.914-2.289,1.836a21.8,21.8,0,0,0-1.8,2.3c-1.355,2.323-1.473,2.724-3.7,4.51a21.97,21.97,0,0,0-2.143,1.962,18.526,18.526,0,0,0-2.055,2.055c-.8,1.072.131,5.154,1.056,6.146.556.6.677.292,1.465.466.865.191.6.41,1.4.776,1.733.8,2.242-.438,3.612.083.992.377.991,2.109.714,3.147-.526,1.969-2.738,2.717-1.389,5.943.285.681,1.239,1.516,1.751,2.362a16.156,16.156,0,0,0,1.542,2.571c2.253.326,2.629-1.289,4.366-.476.514,1.874-.962,1.6-.949,2.786,0,.166.815,3.019.939,3.3.443,1,1.333,1.641,1.67,2.437.351.827.078,1.894.323,2.795.519,1.911,1.789-.133,3.294-.087l.674,1.239c1.868-.01,2.361-.774,3.757-.779a35.73,35.73,0,0,1,3.576.762c.987-.094-.242-.719,1.442-.42a20.063,20.063,0,0,0,4.178.535,11.494,11.494,0,0,1,1.176-.009c1.4.229.891.914.076,1.526.207.112,2.541.892,2.8.948a9.411,9.411,0,0,1,2.494,1.183c4.059,1.927,2.289-.376,3.576-2.072,1.307-.028,1.742.976,2.251,2.122.682,1.536-.084,1.865-.978,2.585.2,1.029.226.494.691,1.208.311.478.343.988.622,1.447l.621-1.431c2.019-.433,1.348,1.186,1.826,2.19,1.092,2.291.509,1.941-.35,3.431,2.087,3.746,3.716-.615,3.942,5.553a21.211,21.211,0,0,0,1.783,1.269,3.337,3.337,0,0,0,.932-1.152c1.337-.043,1.111.231,1.641.942.4.537.909.581,1.25,1.3.571,1.207-.209.6,1.228,1.31a2.947,2.947,0,0,1,1.338,1.167,4.39,4.39,0,0,0,2.512-.9c1-.534,1.624-.116,2.638-.886-.165-.565-.371-.642-.784-1.148-1.249-.036-1.006.4-1.866-.295a2.681,2.681,0,0,1,2.277-2.768c1.752-.11.882-.025,1.915-.707,1.334-.881.494.178,1.195-1.549.363-.895.576-.584-.024-1.715-1.18-2.225,1.318-2.318.1-4.019-.95-1.332-.336-.409-.812-1.912-.362-.671-1.309-.781-1.1-1.831.308-1.537.809-.362-.192-1.981-.494-.8.009-2.8.915-3.123l.956-.227a.947.947,0,0,0,.441-.234c-.286-1.834-2.058-1.116-1.16-3.41,1.654-.192,1.609,1.273,3.021,1.242.65-.8.323-1.719,1.313-2.189,2.45-1.161,4.268.476,2.361,1.59l1.185.613c-.015,1.757-1.351,1.11-2.561.968.427,1.578.418.788,1.745,1.067.636.134.538.3.876.456.685.311.157-.026.965-.1.993-.1.211.267,1.008-.017.521-.185-.083-.2.937-.452,1.686-.41,2.566-1.369,2.777,1.174.128,1.533,1.629,2.212.65,3.471a1.138,1.138,0,0,1-.739.445l-1.05.23c.308,1.436.495.6,1.145,1.564-.22,1.073-.423.588-.942,1.369.474,1.376.367,2.609-.872,3.183-.517-.237-.274-.121-.586-.449-.166-.174-.13-.179-.27-.33-.254-.275.015-.076-.317-.3-1.189.636-.362.667-2.078,1.083,1.543,1.528-.292.21,2.463,2.431.3-2.75.553-1.7,2.385-1.144.331-.426.732-.832,1.045-1.246.6-.795.17-.833.886-1.457,1.93-1.684.981-.976,1.145-3.389,1.4-.508,1.747-.763,2.368.65,4.437-.111,1.909-.379,3.715.768l.8-1.148a1.205,1.205,0,0,1,1.625-.294c.458.736.187.8-.012,1.645a8.2,8.2,0,0,0,1.462,1.145c.774-3.236-.114-1.915-.539-2.84-.061-.918.232-1.3.053-1.895-.249-.833-.51-.492-.5-1.729,1.653-.067,1.58.672,3.348.439a4.8,4.8,0,0,0-.328-2.942l-1.762-.8c-.149-1.065.083-.586.176-1.236.2-1.377-.728-2.783,1.687-2.928,1.572-.094,1.289.111,2.629-.488,1.323-.591,1.466.166,2.693.187a9.94,9.94,0,0,0-.693-2.831c-.126-.4-.1-.649-.237-1.072-.841.35-.811,1.078-1.318,1.763-1.043.045-1.061-.231-2.129.07-2.692.758-3.184.358-4.9-1.563-.919-1.031-2.472-.6-2.836-1.891-.226-.806-.073-1.056-.372-1.946a1.474,1.474,0,0,1,.2-1.7c.758-1.286.174-2.469,2-2.669s1.833.576,2.6-1.732c.679-2.041,1.069-.594,2.482-2.207.971-1.108,1.538-.99,3.257-1.471.527-3.588,2.348-1.427,4.306-2.706.9-.586-.059-.358.719-1.041.227-.2.763-.359,1.125-.627,1.274-.945,1.2-.481,2.745-.776.124-.961-.154-.392-.055-1.244.071-.61.3-.357.227-1.091-.638-.009-.685.243-1.644.27-2.211.061-1,.715-3.325.916-1.273.11-.937.609-1.815.337-.409-.632-.5-1.9.412-2.253.7-.273,1.423.153,2.625-.269-.3-.613-.658-.5-1.227-1.071-1.594-1.6,0-1.721,1.1-2.614a5.274,5.274,0,0,0-2.072-2.72c-.748.478-.479.563-1.606.465-.521-1.086-.324-2.813-.428-4.255a10.543,10.543,0,0,1-1.254-.082,9.54,9.54,0,0,0-1.216-.33c.212.671.876,1.286.279,2.18-.673,1.007-1.346.806-1.553-.33-.049.034-.112.036-.14.114s-.1.086-.143.109-.241.156-.3.18c-1.716.683-1.551-2.761-1.126-3.538.708-1.295.28-.244.022-2.26-.194-1.519-.725-2.688-1.953-1.624-2.043,1.769-.378,2.65-2.136,2.735-.854.041-.989-.425-1.322-.964-.448-.724-1.031-1.979-1.834-2.347.279,1.426,1.353,2.319-.541,2.582-.255.035-1.081-.424-.737,1.076.158.689.589.711.138,1.414-.467.583-2.615.539-3.335-.128-1.459-1.353.249-1.632-.271-3.241-.6-1.847,1.069-1.083-.273-2.859-.943-1.248-1.85-1.029-2.541-1.963-.494-.669-1.588-1.8-1.724-2.558l-.847-3.5c-.212-.577-.511-.656-.648-1.456a17.85,17.85,0,0,0-.125-2.017,18.932,18.932,0,0,0-1.76-2.852c-.943.225-.835.916-2.349.885-1.047-.021-1.327-.645-1.988-1.16-3.78-2.95-3.174,1.189-5.05-1.4-.9-1.24-1.544-1.058.028-2.152.435-2.5-.383-.956,1.061-2.956-1.3.2-2.153.2-2.541-.955.774-1.318,1.538-.256,1.24-2.112-2.637-.71-2.719-.028-4.246-.1a11.509,11.509,0,0,0-2.386-.132c-4.09.385-1.422-1.553-3.76-.447-1.075.509-1.5.045-2.494.217-.815.14-2.21,2.1-2.429,2.882-.549,1.951-.07,4.209-1.895,5.735-1.123.94-1.595,3.2-3.215,4.806-.954.945-1.261,2.123-2.753,2.532-2.194.6-3.225-.435-3.635,1.458-.457,2.108-1.852,1.351-2.623,2.64-.625,1.045-.538,2.935-1.428,3.854-.85.878-2.319,1.36-3.141,2.137-1.008.954-.331,2.647-1.511,3.572-1.233.967-2.959-.165-4.548-.15a36.658,36.658,0,0,0-4.7.627c-2.3.343-1.583,1.947-3.743,1.625" transform="translate(-121.163 -596.334)" fill="#737272" fill-rule="evenodd"></path>
        <path d="M579.034,1007.786c-1.029,2.3.761,1.377-2.675,2.416-.922.279-.932.571-1.38,1.173-.558.75-.8.462-1.637.874-.732.795-.433,1.714-1.27,2.47-.909.819-1.781.268-3.088.659a10.251,10.251,0,0,0-.327,1.419c-.454,1.532-.852.541-.349,2.419a10.95,10.95,0,0,1,.166,1.63c.739.461,1.4.477,2.124.98,1.609,1.128,1.637,2.655,4.115,2.028a6.95,6.95,0,0,1,2.661-.306c.54-.951.7-1.872,2.011-1.7l.914,2.226c.382,1.082.72,2.955-.719,2.929-1.2-.022-1.148-.679-2.34-.081-1.257.63-2.289.191-3.549.548a2.794,2.794,0,0,0-.077,1.522c.149,1.2.076.469-.245,1.424,1.188.411,1.7.4,2,1.663a3.891,3.891,0,0,1-.083,3.044c-1.634.352-1.591.048-2.961-.32.214.859.454.613.371,1.664-.122,1.547-.2.508.516,1.508s-.02,2.727-.547,3.328c-.872-.048-.967-.439-1.612-.969-1.1-.9-.673-.709-.407-2.1-1.44.278-.614.809-1.432,1.433-.878.671-1.316-.191-1.761-.67a17.248,17.248,0,0,1-2.738.188c-.9-.166-.177.13-.508-.412-.007-.012-.3-1.4-.9-.409-.3.5.2.918,0,1.8-.234,1.035-1.2.974-1.817,2.117-1.663,3.1-2.077,2.132-3.629,1.689-.164,1.1.119.864-.376,1.7-1.037.1-.982-.258-1.753-.767a5.967,5.967,0,0,1-1.886-2.5c.478-.51.242-.3.972-.52,1.983-.6,1.1-2.049,3.057-.1,1.055-.942.223-1.433.2-2.8a4.3,4.3,0,0,0,.842-.725c-.424-.5-1.023-.922-1.032-1.775-.016-1.633.932-.6,1.663-.887,1.073-.415-.357-1.887-.477-2.826-.026-.2-.043-.585-.073-.75l-.132-.457c-.216-.659-.59,0-.6.007a5.714,5.714,0,0,1-1.121.268c-1.079.285-.3.5-1.889.513-.776.009-1.078.338-1.748-.08-1.171-.732-.642-.162-2.089-.49-.3-.458-.976-1.289-.528-1.872.915-.891,1.277.292,2.268-.255l-1.359-.465c.262-1.595.839-.386,1.005-1.905a8.3,8.3,0,0,0-2.175.4c-.9.539-.514,3.126-2.465,2.113-.721-.375-.574-.675-1.709-1.147.235,1.846,1.77.81,1.3,3.438l-1.795.421-.547,1.308c-.195.561-.187.44.212,1.028,1.123,1.656.169,1.135.131,2.629.561.715.927.511,1.163,1.4.43,1.628.044.548.789,1.731,1.216,1.931-1.2,2.029-.273,3.773.4.746.752,1.019.367,1.953-.771,1.87-.953,1.807-2.356,2.756-1.609,1.088-1.964-.921-3.278,2.119,1.147-.162,1.318-.392,1.985.386a2.633,2.633,0,0,1,.8,1.565c-1.146,1.031-1.146.688-2.59,1.04-.948.232-1.413.855-2.751,1.137.31,1.482.639.392,1.307,1.485.515,1.087-.314,2.251-.607,3.358-.546,2.065-.764,1.587-2.385,1.359-1.67,2.708.978,1.862.05,4.138-1.48.636-1.418-.273-2.509-.361-.451,1.638,2.122,2.62,1.15,6.321,1.192.234.59.055,1.426-.24.665-.235,1-.074,1.421-.525.773-.825.27-2.053,1.994-1.932.413.571.306.624.487,1.478.255,1.2.052.6.82,1.137,1.145.8.191,1.632.363,2.714l2.827,2.331c1.4.157,1.132-2,3.942.729.832.809.275,1.5.744,2.379.814.4,1.1-.164,1.831-.323a7.879,7.879,0,0,1,2.29.127c.992.041,1.226-.324,2.154-.412,1.406-.133.942.362,2.139.409,1.5.059,3.049-.832,4.128.178.885.829.138,2.605.618,4.25,2.277-.6,1.189-.438,3.131.154.3-2.167.713-1.556,2.563-1.957.195-1.016-.313-1.37-.068-2.621.985-1.174.952.008,1.512-1.811a13.033,13.033,0,0,1,1.146-2.171c1.231-2.3,3.368-.549,5.546-.907.352-.592.229-1.3,1.173-1.362a10.394,10.394,0,0,1,2.17.575c.764.182,1.387.108,1.659.873,1.084,3.045-.431,2.893-1.764,3.63a1.679,1.679,0,0,0,2.069,1.025c1.738-.433,1.378-.286,3.07,0,2.27.378,4.022-1.787,4.52-2.2,2.967-2.463,5,2.549,8.016.975,1.092-.57.593-1.286,1.143-2.338,2.232-.618,2.789.517,3.419-.731a5.01,5.01,0,0,1,.281-.653c1.741-.126,2.781,1.493,4.536,2,1.412.408,1.148-.5,2.486-.332,1.148.141,1.16.733,2.785.491,1.776-.264,2.7-1.509,5.217-1.086,1.184.2,1.02.744,1.658,1.686.606.895.114,1.462-.057,2.631.872-.183,1.413-.841,2.175-.685,1,.205.469,1.146.808,1.828.618-.35.638-.753.683-1.448.105-1.632.034-.886.622-2.011.506-.969.122-1.218.128-2.09.007-1.11.418-.958.831-1.554-.639-.408-.693-.033-.728-.776-.03-.643.3-.6.544-1.055.628-1.161-.285-1.688,1.239-1.91,2.226-.325.018-.459,2.108-1.752l1.444-1.155c.093-1.213-.443-.839-.195-2.138,1.914-.8,1.982-.084,2.687.911.81-.515.477-.609,1-1.129.72-.714.962-.092,1.548-.144a6.586,6.586,0,0,0,1.236-.774,5.117,5.117,0,0,0,.675-1.655l2.283-.342c-.322-.858-2.188-1.236-1.778-2.355a2.216,2.216,0,0,1,1.509-.912l.178-.476a1.4,1.4,0,0,1,1.128-1.021c1.058-.253,1.32.325,2.477-.04.337-.215.345-1.078.544-1.44.291-.528.634-.508,1.076-1a3.264,3.264,0,0,0-1.3-1.819c-.739.336-1.054,1.062-2.084.807-1.157-.286-.6-1.18-1.139-2.036-1.18-1.885-2.795,1.1-4.4.115-.748-1.528,1.318-1.355,1.02-2.6-.314-1.3-1.454-1.089-.681-3.086,1.733.081.945,1.535,2.595,1.472l.495-1.488c1.887-.279,1.357.779,4.909,1.493a6.274,6.274,0,0,0,1.232.209c.9-.052.648-.24,1.048-.641,1-1.007,1.442-.155,2.368.146.482-.565.65-.493.968-1.375-.031-.04-.087-.146-.105-.111l-1.213-.79c-.882-.462-1.1-.352-1.129-1.25.75-.521,1.711-.253,2.885-.479-.055-.421-.444-.558-.76-.824-.969-.816-1.6-3.021-.56-4.007.544-.317.344-.106.882-.3l.7-.448c-1.4-.655-1.852.65-1.865-1.75-.011-2.1.078-1.742.826-2.964a10.79,10.79,0,0,0-1.492-.771c-.7.54,0,.385-.978.635l-.94-.749c-.721.357-.676.8-1.407,1.192a5.02,5.02,0,0,1-2.323-1.875c-1.342-1.759-1.358-.485-2.754-1.348-1.307-.809-.253-1.15-2.544-1.544l-2.781-1.309-.071-1.319c-.831.19-.768.433-1.474.485-.871.064-.784-.229-1.546-.411l-.23.395c-.47.983-.3,1.032-.261,1.984l-.289.776a19.425,19.425,0,0,1-4.867.143c-1.924-.47-.31-2.1-.209-3.338l-1.04.2c-.42,1.158.219,2.085-1.641,1.893-.541-.678-.167-.742-.654-1.409-.8.3-.345.535-.791,1.3-.475.811-1.051.292-1.745.265s-.63.352-1.57-.054c-.641-1.176.417-1.888.421-2.748,0-.729-1.04-1.827-1.353-2.32-1.493.633-.55.162-2,.195-1.245,1.25-.234,1.17-2.336,1.753-.286,1.822.6,1.99-1.5,2.23-1.921.221-1.6-.142-2.926-.794-.441,1.874-3.4,1.937-2.279-.308l.838-1.008-1.582.21-.408,1.194c-.4.1-.716.124-1,.21-.982.294-1.475.383-2.452-.819l-.433-.532c-.484.5-.542.737-1.353.724a6.848,6.848,0,0,1-.6-3.528l1.35-.471-.569-1.211c-1.182.934-1.128,1.546-1.494,2.775-1.187.214-1.209-.034-1.828-.674l-.148.277c-.5,1.122-1.061,1.161-1.291,1.8,2.434,1.593,1.238.389,2.025,3.211.287,1.033.787.7,1.3,1.456.666.98.033,1.313.323,2.446.658.649-.026.083.687.307,1.15.361,1.274.774,1.334,2.147a8.058,8.058,0,0,1-.575,3.777c-.782,1.441-1.456.946-3.058.621-1.447-.293-1.262-1.455-2.359-2.238-1,.521-.433,1.293-1.76,1.424-.588-.494-.432-.613-.566-1.33-.2-1.068-.154-.666-.916-1.243-1.4-1.057-.9-1.234-.583-2.851-1.008-1.629-.4-.393-.946-2.272-.327-1.128-.952-1.033.25-2.046.5-.422,1.695-.708,1.987-1.35a3.071,3.071,0,0,0-.012-2.52,4.354,4.354,0,0,1,.843-4.859c.955-.9,1.442-.056,2.614-.309.939-.2,1.2-.915,2.119-1.248-.226-.971-.83-1.444.008-2.1,1.578-1.225.479.241,1.358-1.784.431-.992.955-.975.79-2.152-.187-1.333,0-1.406.739-2.182,2.265-2.376.889-1.794.112-4.129-.626-1.884-1.822-1.99-3.321-2.952-1.04-.668-1.123-.459-2.333-.46-1.037,0-1.58-.639-2.35-.348-.642.242-1.13.955-2,1.107-.5.088-.932,0-1.508.073-1.46.188-.489,1.167-1.763,1.406a10.2,10.2,0,0,0-1.441.1c-.161.045-1.84,1.2-1.858,1.218-.775.938.02.855-1.869,1.3a23.3,23.3,0,0,0-2.617.5" transform="translate(-457.886 -856.925)" fill="#737272" fill-rule="evenodd"></path>
        <path d="M411.273,1471.5c-.379.99-.744.723-1.541,1.2.214.629.735,1.221.318,2.024-.434.836-1.209.422-.784,1.6.955.708,1.7-.272,3.228-.252,1.639.022,2.338-.652,3.539-.258a2.939,2.939,0,0,1-.02,1.97c-2.117.422-3.751-.075-4.458,1.2-.829,1.5-.3,1.681-2.224,2.028l-.345.482c-.465.617-1.073.491-1.752.977,1.375,1.046,1.393.594,2.623,2.253s.552,1.742-.256,3.25c-.422.789-.124,1.307-.51,1.845a2.143,2.143,0,0,1-2.027.484c-3-.568-1.989-1.36-3.168-1.89l-.574.491c.072,1.311.73.93.853,1.818.078.567-.507,1.35-.627,2.148-.419,2.775-.3,2.484-2.923,2.973l-.384,1.5c-1.761.283-2.6-1.27-4.116-.952-1.078.226-.268.477-1.93.132a2.626,2.626,0,0,1-1.081-.323c-.738-.371.1-.329-.949-.378-.339.48-.138.521-.38,1.127a10.7,10.7,0,0,1-.582.98c-.487,1.024,0,1.771-.5,2.638-.607,1.065-.87.784-.206,2.344a2.738,2.738,0,0,0,1.185,1.367c.035.027.083.072.114.1.725.625-.146,1.287-.416,1.785,1.775,1.082,1.229,1.431.632,2.166-.3.372-.2-.373-.316.722a10.491,10.491,0,0,0,.319,2.89c1.027-1.075,1.2-2.131,3.272-.952.177,1.489-.368,1.245-1.181,1.988.1,2.452.257,1.442-1.817,2.279-.639,3.114,2.525,1.93.061,4.1.076,2.153,1.375,1.539,1.841,2.748.374.971-.185,1.114-.094,2.01.07.685.555.879.817,1.552.333.853.062.91.587,1.764a2.393,2.393,0,0,1,.515,1.778c.13,2.223.779,1.684.081,3.911.451.282.859.267,1.141.615.608.749.035.866-.076,1.438-.222,1.147,1.311.8.594,2.553-.77,1.883.314,4.429.607,6.4.447,3.021-.054,3.617,1.458,6.162.911,1.534.409,1.74.857,2.857.54,1.347,1.483-.1,1.4,2.535,1.731-.3,2.305-1.556,3.64-1.636,3.528,4.838,2.528-.3,5.014-.32,2.787-.025,2.56.1,2.514-2.814.379-.664.947-.839.767-1.916-.159-.954-.677-.746-1.219-1.512-.615-.87-.081-1.069-.849-1.887-2.452-2.613,1.724-2.109,2.294-2.34,2.224-.9,1.028.019,2.359.149.887-.124.648-1.813,2.579-2.028.27-.03.551-.02.734-.043.066-.008.116-.013.177-.023l.329-.083c.793-.194,0-1.5.388-2.124,1.744-1.638,2.083,1.859,4.569.446,3.656-2.079,5.049-.668,5.707-1.308l.068-.268c-.008-.429-.162-.514-.439-.98-.573-.967-.159-.879-.277-1.891-.144-1.237-1.15-1.817.047-2.952,1.121-.21,1.735.567,2.5,1,1.233.693,1.8.331,3.161.412,1.293.077,1.1.835,2.72.31,1.682-.544,1.778.652,2.771-.168-.244-.839-1.02-.589-1.317-1.2-.223-1.6.481-1.591,1.176-2.653.542-.83,1.035-1.87,1.892-2.006l.483.911c1.372-.019.777.345,1.685.7.29-.866.265-1.485.48-2.267,2.242-.434,1.666.347,1.87-2.079a2.321,2.321,0,0,1,1.763-2.134c1.5-.469,1.433-.549,2.126-1.788.585-1.046.606-2.07,1.762-2.462,1.466.506.679,1.59,1.361,2.7,1.3.5,1.241-.495,1.684-1.5.535-1.208,1.333-1.12,1.7-1.813.228-.426.1-.72.462-1.3.535-.845.963-.462,1.294-1.289.137-.343.046-.437.261-.688.492-.574.767-.182,1.409-.5-.186-1.692-2.26-1.38-2.082-3.1.014-.132,1.773-3.354,1.906-3.537,1.876-.333,2.678,1.483,3.685.95,1.132-1.129-.674-1.343,1.782-2.737.13-1.938-.3-.885.526-2.619.775-1.629-.314-1.13.022-2.509,1.43-.449,1.081.213,2.029.214,1.1,0,.259-.79,2.117-.149,1.467.506,2.005.009,2.643,1.486.71,1.645,1.731.583,3.064,1.429a7.074,7.074,0,0,0,1.944,1.2c.34-.645.256-1.183,1.173-1.278s1.321.439,2.023.616c1.816.456,2.591-.8,3.849-.838a3.074,3.074,0,0,1,2.738,2.1,21.611,21.611,0,0,1-.024,2.528c-.012,1.16-.292.908-.83,1.744.141.912.4.843.679,1.534a5.575,5.575,0,0,1,.2,1.993c.1,1.972.791,2.01,2.7,2.01,3.477,0,1.9-1.693,2.3-3.222s.03-1.781,1.107-2.62l.211-.181c.668-.756.75-2.1,2.321-2.359,1.125-.182,1.038.6,1.849.945,1.781.752,2.3-2.118,2.348-3.184-1.075-1.108-.577-.593-2.094-1.2-1.032-.414-1.527-.656-1.732-1.822-1.167.167-1.582.369-2.314-.364.032-1.2.563-.452,1.057-1.724.562-1.446.316-.728,1.176-1.687-.286-.578-.584-.689-1.019-1.544-.627-.027-1.168.161-1.459-.34-.8-1.376,2.09-1.988,2.842-2.678l.048-2.327c-.712-.644-1.175-.546-1.7-1.174-.11-1.334.257-.78.762-1.76-.148-1.214-1.532-2.9-1.981-4.12-.766-2.084,1.278-2.327,2.448-3.186l-.145-1.635c-1.261.095-1.171,1.023-2.7.529-.317-1.093.2-1.27.17-2.156-.015-.5-.5-.979-.808-1.893-3.937-.584-4.439,1.8-7.916.659-1.827-.6-1.42,1-3.932-.153-.872-.4-2.388-1.6-3.156-1.69l-.262,1.143-3.512.076c-.15,1.311-.285,1.957-1.293,2.472a3.641,3.641,0,0,1-3.161,0c-1.575-.9-3.407-2.629-5.114-.652-.913,1.057-.627.877-2.241,1.465-1.665.607-1.1.647-3.129.267-1.633-.307-1.976.451-3.149.251a2.3,2.3,0,0,1-1.818-2.135l2.147-1.012-.313-2.044c-.111-.025-.181-.118-.2-.077s-.1-.068-.136-.083a2.039,2.039,0,0,0-.443-.177c-.246-.076-.6-.131-.927-.23a4.527,4.527,0,0,0-1.629-.409c-.542,1.036-.171,1.71-2.1,1.417-2.964-.45-3.484-.808-4.851,2.163-.707,1.538-.049,1.444-1.693,2.191l.229,2.526c-.866.719-.65.444-1.9.742-1.31.312-.278.988-1.088,1.642-.693.56-.991-.253-1.776-.343-.947-.109-1.35.708-2.029.083-1.039-.774-.077-3.127-.637-4.08-.856-.862-1.826-.242-3.162-.124-1.852.163-1.657-.669-3.18-.289-1.861.464-1.046.36-3.02.154-1.457-.152-1.83.986-3.031.355-1.1-.786-.262-1.313-.8-2.324a9.1,9.1,0,0,0-1.7-1.461c-.939.216-1.194.783-2.128.635-.82-.13-1.03-.839-1.538-1.258s-1.29-.651-1.6-1.146c-.553-.872.061-1.494-.027-2.52-.776-.613-.782-.081-1.127-1-.172-.46-.181-1.116-.419-1.652-1.2.715-.236,1.675-2.023,2.185-2.382.678-.893.676-3.506.252" transform="translate(-333.626 -1256.357)" fill="#737272" fill-rule="evenodd"></path>
        <path d="M466.345,1.967c-1.688.022-1.21-1.026-2.312-1.5-.637.612-.653,1.569-1.643,1.918-.934.329-.637-.213-1.479.248-.293.161-.622.713-.984,1-2.406-.068-1.9-2.273-3.36-1.6L456.349,3.5c2.38.847,1.75,2.968-.559,2.106-2.921-1.091-2.6-1.748-4.244-.605-.97.674-1.495.152-2.527.22A13.622,13.622,0,0,0,448.072,7c-.463,1-.8.973-1.951.988-.536,1.747.332,1.559-1.439,2.464-1.345.687-.5,1.054-2.352,1.747a1.671,1.671,0,0,0-.818,2.574c1.069,2.14.564.8.815,3.348,1.868,1.1,1.686.425,3.915.3,2.014-.114,2.257.963,3.173,1.756a7.324,7.324,0,0,1,2.159,2.537c1.173,1.98,1.7-.463,3.15.166.927,1.17-.735,2.166,1.243,3.844,1.789,1.518,2.079.8,3.61,1.638.5,2.238-1.425,3.894-3,4.744-.913.491-1.938.119-1.991.542a.388.388,0,0,1-.065.143,3.065,3.065,0,0,1-1.02,1.707c-.9.634-1.555.377-2.679.478-.212,1.086.76,1.109.983,1.95.26.981-.673.968-.29,2.226.316,1.036.962,1.118.849,2.354s-.84,1.311-1,2.354c1.087.936,1.258.408,1.249,2.344-.008,1.606.607,1.881.724,3.327-.712,1.18-1.311.961-.814,2.912.89,3.5-2.163,2.6,1.35,5.493,1.211,1,3.524.3,5.748,1.881,1.257.895,1.015,1.05,1.875,1.977,1.046.054,3.337-.113,3.75.612.815,1.431-1.043,1.7.8,3.115.721.552.44.461,1.344.447,1.323-.02.636.343,1.55.451.947.112.616-.484,1.5.369.733.708.371.542,1.711.43.62-.724.5-1.051,1.275-1.637,1.036,0,.69.277,1.521.6a11.156,11.156,0,0,1,1.8.581c.926-1.368.354-.975,1.844-1.9,5.141-3.188.578-5.434,1.048-7.545,1.2-.2,1.154.263,2.221.366a3.113,3.113,0,0,1,2.259-.985c1.4-.257.848-.87,1.742-1.577l1.934-1.421c1.165-.458,1.949.4,2.639.752.8-.481.895-1.658,2.03-.519a12.486,12.486,0,0,1,1.694,2.035c.655,1.17.913.774,2.372,1.345,5.05,1.98,1.869.644,3.887.427.722-.078.493.3,1.345,0,.411-.9.067-1.432.8-2.132.92.135,1,1.008,1.63,1.649.491-.253.921-.644,1.286.142.4.87-.148,1.206-.395,1.739,1.687.5.37.619,1.031,1.49.288.38.525.179.81.759a4.737,4.737,0,0,1,.2,1.372l.876-.968c.339-.6.073-.794.746-1.193.457-.271.9-.224,1.435-.526.67-.377.381-.552,1.3-.482.574,1.38-.341,3.014-.807,4.313-.179.5-.3.066-.024.439.964.956,3.584-1.555,4.848.607.376.644.44,1.849.942,2.386.625.668,2.375,1.086,2.887.122a2.986,2.986,0,0,0,.187-.6c.243-.828.516-.837,1.252-1.051.913-.266.562-.915,1.355-1.237,1.038-.121,1.2.209,2.012.4,3.913-4.478-1.737-4.938-1.483-7.41.121-1.181,1.133-2.055.7-2.981-.64-1.012-1.381-.421-2.663-.869-1.062-.371-2.614-.216-2.992-.5-.04-.037-.088-.158-.1-.13l-.228-.626a5.692,5.692,0,0,0-.055-.875c-.154-.772-.536-.677-.2-1.762.328-1.05,1.307-1.679,1.713-2.443-.1-.754-.239-.607-.512-1.278-.457-1.121,0-.587-1.088-.8-.7-.137-.81-.048-.746-1.019.229-3.463,5.3-.064,6.257-.552.876-.62.394-.8.9-1.484.15-.2.962-.85,1.248-1.125.12-1.409-.333-2.189.574-3.308,1-1.231,1.514-.732,3.016-1.088l-.053-2.541c1.145-.2,1.784.227,2.766-.21,1.053-.83.61-2.193.668-3.425.054-1.144.288-.743.57-1.445.424-1.055.234-2.225.849-3.224.219-.355.817-.964.945-1.211a4.778,4.778,0,0,0-.543-3.119c-.312-.428-1.9-1.056-2.515-1.594-.98-.849-.614-1.391-2.483-1.652-2.083-.291-1.48-.821-2.73-1.349-.6-.254-1.017-.144-1.461-.688s-.144-.7-.8-1.3c-1.45.1-.622.549-1.747.932-1.23.419-1.009-.053-2.089.852-1.952,1.637-1.769-.42-3.985-.221-.732.643-.18.854-1.549,1.152-1.144.249-3.43.779-4.306,1.541-.431.375-.777,1.034-1.4,1.534a4.275,4.275,0,0,1-2.287.7c-1.263.228-.549.661-2.123.643-1.411-.015-.91.452-1.792.866A2.7,2.7,0,0,1,500,23.738c-.392-1.017.228-.875-.128-1.8a15.879,15.879,0,0,0-1.009-1.544c-.4-.591-.465-.932-1.226-1.087-1.517-.308-3.155.37-4.668.171-1.9-.249-1.9-3.721-2.16-5.3-3.337-1.29-1.856-.141-3.3-3.152-1.246-.189-2.136.47-3.023-.3-.657-.571-.152-.615-1.077-.875a11.508,11.508,0,0,1-1.577-.374V7.852c-4.768-2.486-3.439-3.126-5.122-4.805-.478-.477-.637-.263-.948-.632-.55-.653-.135-.609-.255-1.479L474.4.44c-1.161,1.082-1.116,1.733-2.541.661-3,2.631-2.272-.614-4.781-1.1-.188.957-.161,1.382-.729,1.967" transform="translate(-377.338)" fill="#737272" fill-rule="evenodd"></path>
        <path d="M819.832,709.168c.273,1.069.557.748.646,2.336a15.679,15.679,0,0,0,.12,2.71c.359.2-.133.131.307.02.325-.083,1.455-1.131,2.891,1.364.953,1.657,1.192,2.687-1.077,3.094.262.637.352.7.988,1.076l.264.131c.043.023.1.045.141.067a.93.93,0,0,1-.121,1.737c-.794.382-1.645.052-2.55.2l-.059.946c.892-.449.712-.236,1.8-.338.862-.081.936-.446,1.5-.72a12.128,12.128,0,0,1,3.613-.337,1.857,1.857,0,0,1-.082,1.711c1.877-.285,2.308.019,3.712-.953,1.709-1.183,1.633-.035,3.579-.088s1.953.523,3.217,1.233c1.135.638,2.063.727,2.493,1.992a4.857,4.857,0,0,0,.609,1.556,2.83,2.83,0,0,1,.672,1.623c0,1.392-1.338,1.948-1.8,2.666-.5.771-.075.837-.052,1.646.023.825-.386,1.112-.724,1.675-.465.776-.224.931-.539,1.573-.365.743-.719.443-1.36,1.046.195.831.376.632.407,1.613-3.487,2.938-4.258.851-5.224,2.141-1.94,2.59.258,3.3-.253,6.2-.281,1.595-1.825,1.755-2.707,2.751a7.107,7.107,0,0,1,.4,1.124c.045.212.063.508.1.65.264.971.889.47.791,1.691-.17,2.118-1.078.735.961,2.67.664.63.429,1.039.7,1.836.569-.628.561-1.213,1.725-1.305,1.027.493.841.99,1.506,1.8a6.433,6.433,0,0,0,2.4.873c.844-.739.908-.731,1.109-2.155.189-1.337.078-3.935-.284-3.3a1.988,1.988,0,0,1-1.733-1.577c-.143-1.632.611-1.1-.931-2.426-1.01-.866-.329-1.564-.852-2.675-.4-.857-1.428-.682-1.777-1.9.387-1.04.555-.476,1.023-1.107.406-.548.046-.731.709-1.416.923.04.819.416,1.564.817.3-.584.207-1.01.7-1.5.459-.461.132.011.531-.643.36-.591-.1-.231.531-.723a1.833,1.833,0,0,1,1.53,2.23,13.564,13.564,0,0,0-1.33.782c.179,1.213.35.57.255,2.134.624-.163.55-.6,1.3-.789.932.58.282.847,1.35,1.427.779.423.671.087,1.88-.1.1-1.034.287-1.14,1.265-1.309.914-.157,1.287-.243,1.892.244.053,1.344-.857.745-1.125,2.367,1.176-.238,1.044-.718,1.548-1.41,1.4-.026.838.321,1.817.74a5.226,5.226,0,0,0,2.144-.025c.125-3.239,1.032-1.364,1.933-2.9.774-1.317,1.187-.751,2.408-.974.519-.095.185-.243,1.167-.2A27.431,27.431,0,0,1,859,745.12c.445,1.246-.532,1.605-.518,2.855.643-.009.55-.208,1.079-.208.692,0,.425.164,1.188.369.238-1.082.486-2.227,1.773-1.68.613.511.079-.036.446.759.352.761-.166.362.46.593.443-.788-.169-1.927,1.507-2.169,2.2-.318.432,2.265.452,3.269l4.751.076c-.045-1.067-.441-.526-.032-1.684.129-.365.24-1.265.626-1.509,1.356-.3,1.174.349,2.1.278.885-.068.626-.7,2.045-.417l.15,1.038c.011.059.025.116.037.168s.033.123.043.164c.092.389.833.466,1.2.728.732.516.33.376,1.416.539,1.947.292,1.256,1.02,2.333,1.578,1.251.649,1.564-.2,2.6,1.115a5.775,5.775,0,0,0,1.987,1.89c.614-.708,1.477-1.743,2.409-.444.944-.544,1.015-.649,2.088-.106.182.092.239.109.4.188a1.911,1.911,0,0,1,.713.456c-.04,1.368-.976.884-.776,4.287,1.136-.052,1.55-.083,2,.8-.341,1.051-1.2.825-2.022,1.369-.5,1.516-.074,2.892,1.262,3.247a3.915,3.915,0,0,1,1.077.3c.557.251.055.245,1,.32a6.777,6.777,0,0,0,2.621-.072l-.076-.341c-.245-.723-.1.234-.2-.554-.123-1.03,1.373-1.571,2.136-1.93-.17-4.149.381-1.826.636-5.462.064-.919.316-.772.584-1.569-.061-1.015-2.757-2.235-2.156-7.43.105-.91.224-.723.75-1.183,1.265-1.108-.332-.756,1.927-1.946l.164-2.154c1.759-.809,1.783,1.232,2.978-1.393.537-1.179,1.693-3.388,3.108-3.222,1.782.209.244,1.065,3.059.4,1.591-.374,3.041.85,3.067-.966-3.39-.981-3.648-2.353-5.337-2.772a5.359,5.359,0,0,1-2.523-1.609c-1.663-1.911.356-1.812,1.043-1.947l.245-2c-1.184-.49-2.231-.338-2.6-1.547l2.305-2.125c.951.042,1.224.468,2.269.09.273-1.059-.607-1.476-1.044-2.319-.456-.881-.546-1.808-1.685-2.007-1.474-.258-1.667.334-2.3-1.24-.689-1.71-.018-1.856-.4-3.313a37.141,37.141,0,0,0-3.8-1.1c-2.655-.6-2.285.667-3.207,1.65-1,.542-1.206-1.044-4.692-1.161-4.049-.136-1.636-1.647-2.542-2.966-1.834-1.12-1.91,1.737-4.554-.509-4.065-3.452-4.739-1.47-7.106-1.908-1.1-.2-1-.8-1.761-1.347s-1.365-.291-2.076-1.055c-.542-.582-.561-1.294-1.124-1.992-2.264-.515-1.606-.084-2.952-1.753-1.7-2.106-1.477-1.238-3.017-1.515-.76-.137-.619-.469-1.682-.6-.949-.114-1.238.041-1.831-.545-.762-.754-1.205-2.026-2.25-2.6-.52.451-.5.921-.783,1.513-2.241.42-3.819-2.561-4.7-2.5-1.2.086.137,2.158-1.986,1.406-1.01-.358-.966-1.163-1.674-1.932-1.218.609-.373,1.062-2.767.665a2.425,2.425,0,0,1-1.266-.486c-.826-.72-.058-.6-.939-1.072-1.362-.58-1.8.95-3.634-2.326-1.2-.094-2.681-.009-3.524-.784.094-.855.349-.755.958-1.129l-.954-.485c-.4-.218-.439-.175-.6-.8-.365-1.45.263-1.281,1.108-1.713-1.038-.863-.706-.022-1.507-1.48-.577.381-.538.562-1.462.389a4.933,4.933,0,0,1-1.83-.518c-.19-1.106.337-.676.09-1.617a3.918,3.918,0,0,0-.827-1.162c-1.574-1.235-1.339.385-1.987-2.114-.375.319-.467.511-.478,1.231-.027,1.716-.04,1.833-1.745,3.013l-1.031-.267-.45-1.575c-1.008.383-1.051,1.429-2.284.646-.913-.958.283-6.319.689-7.479-.035-.035-.1-.131-.116-.094a8.007,8.007,0,0,0-1.932-1.2c-.719-.14-.736-.172-1.288-.314a1.069,1.069,0,0,0-1.159.283c-1.483,1.2-1.821,2.457-2.541,4.113a11.041,11.041,0,0,0-.944,2.354c-.086.532-.409,2.47-.385,2.833.051.779.534,1.688.689,2.6.177,1.037.123,1.994.273,3.038.423,2.944.776,5.223,2.447,7.519A4.238,4.238,0,0,1,821.4,700c.271,1.119.891,1.553.794,2.461-.081.759-.523,2-.206,2.821,1.047,2.718-.068,1.33-1.3,2.949a9.7,9.7,0,0,1-.848.939" transform="translate(-698.554 -577.298)" fill="#737272" fill-rule="evenodd"></path>
        <path d="M38.182,1199.978c.344.655.907.929.736,1.881-.108.6-.644,1.215-.845,2.01.753.826,2.069.766,1.895,2.176a13.423,13.423,0,0,1-2.682.269c-1.533.186-.421.969-1.848,1.265a2.079,2.079,0,0,1-2.252-.639c-.692-1.173.586-1.456-.3-2.41-.2-.163.369-.267-.528-.188-.658.058-.737.6-1.155,1.08-1.275-.165-.279-.575-2.1-.078a14.272,14.272,0,0,1-2.56.19c-.461,1.526.208,3.541-2.085,2.525-1.762-.781-2.31.195-4.057-1.431-.957-.89-1.939-2.1-3.729-1-.438.27-1.2.927-1.717.9-.721-.041-.966-.783-1.589-1.071-.654.316-.507.561-1.062.717-.8.223-.743-.2-1.376-.433-.864-.318-.47.126-1.293-.479-.615-.451-1.526-.99-1.559.386-.034,1.422,1.433,4.36-.963,4.58-2.29.209-5.787-3.207-6.62.377-.256,1.1.3.975.6,1.888-.367,1.026-.8.826-1.1,1.76a1.131,1.131,0,0,0,1.937.308c.883-.753.226-1.017,1.759-1.57,1.736-.626,2.034-2.4,4.365-1.273a1.717,1.717,0,0,1-1.2,2.09c-.865.409-2.49.017-2.884.814-.014.029-.051.1-.068.132l-.367.823c-.381.674-.556.477-.739,1.218.735,1.457,1.591,1.223,2.357,1.95.58.55.242.822.617,1.537.405.774,1.665,1.44,2.3,2,1.531,1.336.34,1.121,3.747,2.9.967.505,2.1.793,3,1.3,1.7.97,1.44.757,3.629.744,3.728-.023,1.349-1.254,2.76-1.59.974-.232,1.772,1.084,3.717.431.031-.049.054-.19.064-.161l.7-1.434c1.234-.273.956.247,1.693.185.105-.009,1.153-.426,1.517-.51a.684.684,0,0,0,0-.145l0-.292c-.014-2.078,2.525-1.037,2.872-.474,1.1,1.783-1.394,2.4-2.27,2.845-.579.292-1.379,2.012-2.457,3.028-1.7,1.6-1.736,1.111-4.367,1.158a1.862,1.862,0,0,1-1.888.981c-2.03.057-.936.379-1.954,1.207-1.241-.163-.649-.584-1.955-.792l-.556.764c-.9.123-.881-.123-1.579.234-.6.308-.3.517-1.32.465-.947-.888-.48-1.774-1.247-2.463-.553-.283-.749-.09-1.476.068-.209.045-.66.118-.829.17-.542.165-.282.009-.663.339-.375.836.718,4.485,1.225,5.1.475.578,1.327.978,1.823,1.5l4.92,5.442c1.427,1.321,2.177,1.482,3.128,3.717a10.955,10.955,0,0,0,2.656,3.993c.541.594,1.038,1.077,1.646,1.675,1.621,1.593,1.755.709,3.547,3.3.806,1.167,1.455.5,2.659.872.843.263,1.363,1.068,2.02,1.307,1.441.522,1.566-.589,1.96-1.3,2.018-.1,1.3.83,3.449.279a14.117,14.117,0,0,0,3.244-.865c.783-.434,1.274-1.336,2.37-1.73,1.24-.445,2.35.092,3.148-.965,1-1.327.611-1.082,2.525-1.378,1.819-.282.972-1.384,1.607-2.511.354-.628,1.677-1.483,1.918-2.221.614-1.871-.659-2.179-.824-3.288l1.243-1.145c-.165-2.316-1.974-1.013.065-4.622,1.055-1.868-.5-3.6.511-5.326,1.374.154,1.039,1.606,1.75,2.482s2.181.135,2.528,1.768c-.468,1.135-1.1.983-2.372,1.315l-.112,1.943c1.141.249,2.312-.376,2.179,1.225-.1,1.218-1.043,1.043-1.862,1.578.425,1.771,2.438.446,4.366,1.117.522,2.156-.656,2.121-2.3,2.655l-.051,1.875c-.894.323-1.777.137-1.615,1.347.1.76.887,1.393,1.255,1.928.612.888.513,2.381,1.24,3.259a4.938,4.938,0,0,1,.644.888c1.854-.869,1.82-.546,2.468,1.068.975,2.428-.214,1.734-1.941,1.716a4.222,4.222,0,0,1-.521,2.728c-.622,1.347-1.122.425-1.29,1.95a10.174,10.174,0,0,0,3.252,1.065c-.5-2.035-.234-1.66,1.218-2.574,1.166-.734,1.159-1.366,2.859-.637.112,1.085-.046.613-.366,1.365.318.375.607.59.894.981,3.016.072,2.575-.694,3.072-2.88.173-.762.4-.717.528-1.62-.374-.488-.948-.854-.833-1.74a1.37,1.37,0,0,1,1.415-1.2c1.022.49.856,1.113,1.632,1.5,3.232,1.61,3.026-.987,3.264-1.487.81-1.7,1.6-1.822-.694-3.82-.858-.748-1.842-.564-1.844-1.859.63-.577,1.483-.343,1.963-.959.447-.573-.259-.331.661-.7.666-.266.575.115,1.181-.4,1.338-1.129.365-2.7,4-2.686.965,0,1.642.134,1.194-.952-.549-.2-1.368.33-2.2.365-2.717.114-.826-.012-2.755.438a1.527,1.527,0,0,1-2.046-1.043c-.225-1.176.632-1.12,1.088-1.888-.046-1.1-.649-.819-.43-1.772.59-1.024.637-.247,1.439-.964.375-.335.054-.155.591-.579.954-.752.676-.639.676-2.159,0-2.115-2.009-2-1.158-4.582,1.855-.446,1.256.628,2.531.383.2-1.254-1.267-1.2-.7-2.836.651-1.881,1.182-1.26,2.558-1.185.3-.781,1.195-3.2,1.076-4.011-1.224-.968-.657.163-1.514-1.6a4.339,4.339,0,0,0-1.633-1.5c-1.645-.831-.714-.444-1.473-1.667a3.576,3.576,0,0,0-.8-.754c-.553-.5-.331-.479-.728-.979-1.506.545-.844,2.446-3.586-.184-.9-.867-.123-1.687-.584-2.924-.352-.945-1.437-.668-2.335-1.2a3.583,3.583,0,0,1-1.478-2.188c.392-.779,1.264-.8.814-2.225-.165-.523-.446-.616-.578-1.174-.211-.891.24-.574-.248-1.47-.612.281-.64,1.384-1.4,1.772-1.015-.391-.618-.964-1.1-1.86-.279-.519-1.338-1.249-.745-2.132.407-.606,1.593-.223.915-1.934-.294-.74-.554-1.406-1.341-1.647-.646,1.2.311,2.445-1.65,2.7-1.835.239-3.114-1.466-4.7-1.818a5.052,5.052,0,0,1-1.571-.541c-1.183-.481-3.006-.43-1.333-1.964a14.334,14.334,0,0,1-5.488-.535c-1.035.279-.23.893-2.391.165-3.3-1.111-2.862,0-5.545.276-1.5.154-1.163-.5-1.841-1.232-.537.338-1.428.7-1.976,1.1" transform="translate(0 -1025.286)" fill="#737272" fill-rule="evenodd"></path>
        <path d="M566.755,1827.31c1.277-.31,1.267.179,2.019-.912,1.093-1.585.2-2.969-.223-4.541-.261-.962.026-1.384-.445-2.323-1.193.564-.545,1.051-2.509.362-.375-.894-.2-1.943-.614-2.456-.782.107-.938,1.177-1.313,1.9-1.309,2.519-2.941,1.859-3.628,3.025-.927,1.574.829,3.136-2.156,3.317-.225,1.364-.345,2.34-1.472,2.693-.534-.39-.463-.371-.6-1.032-.715.08-.467.2-1.039-.091l-.546-.534c-.506.944-2,2.382-2.065,3.374.426.416.974.561,1.442.994-.009,1.689-.877,1.615-2.239,1.3-1.4-.329-1.268.8-3.175.046-1.354-.537-2.255.031-3.609-.489-1-.385-1.658-1.211-2.6-1.241-.213.86.337,1.825.383,3.1.055,1.53.925,1.01.746,2.539-1.186,1.321-3.275.01-5.631,1.4-3.521,2.083-3.028-.605-4.862-.374-.065,1.555.243,1.2-.44,2.49-1.769.384-2.165-.532-3.1,1.218-.978,1.836-1.9.656-2.588.394-1.883.85-1.334.281-3.28.594-.02,1.167.349.755.831,1.411.512.7.015.778.568,1.588.465.681,2.016,1.2,1.177,3.077-.466,1.042-.667.12-.558,1.577a2.086,2.086,0,0,1-.287,1.687c-.777,1.232-1.677.864-3.4.915l-.855,1.377c.775-.085.947-.571,1.547-.379a1.945,1.945,0,0,1,1.064,1.264c.749,1.8.657,1.828-.453,3.069.252,1.868.491.4-.108,2.5-.232.808.118,1.821-.054,2.9-.276,1.725-.831,1.021-1.409,1.912l-1.07,2.08c1.977,1.4,1.714-.953,1.986,3.128.609.706.736.3,1.063,1.283.3.893.044.95.734,1.611,1.841,1.764-.907,1.19.171,2.94.58.943,1.641,1.948,1.784,2.967.157,1.123-.106.875.643,1.663,1.467,1.543.1,1.487.1,2.813a35.124,35.124,0,0,0,.8,4.7c.25,1.569-.186,1.716.674,3.044a5,5,0,0,1,.893,2.614c2.234.084,2.656-1.106,3.814.5.555.768.724.468,1.575.971,1.212.716.251.348,1.847.532.683,1.138,1.585,1.881,1.723,2.736.387,2.39.215,1.526,1.7,2.794.919.782,1.051,1.9,2.419,2.122,2.888.463,1.326.49,1.958,1.888,1.865.6,1.776-.335,2.912-.284,1.52.069.982,1.729,2.359,2.132,1.875.549,1.282,1.014,2.159,2.356,1.666-.149,1.315-1.037,3.168.079,1.668,1,1.4.371,3.286.8.33-4.658,2.33-1.5,5.725-2.855,1.384-.553,1.3.181,2.682-.052,1.426-1.548-.316-1.351,2.475-2.217a2.489,2.489,0,0,0,2.019-2.451c-1.264-.265-3.149.443-3.3-1.029-.114-1.078,1.227-1.585,1.711-2.317.176-1.522-1.563-2-.346-3.307.777-.833,1.634-.21,2.572-1.928,1.413-2.589,2.246-1.192,4.318-.7a10.593,10.593,0,0,1,1.775.553c1.479-3.87,3.171-1.406,3.9-4.533.245-1.046.58-1.175.621-2.275a3.149,3.149,0,0,1-1.848-.146,2.107,2.107,0,0,1-1.1-2.222l-.049-1.37c-.055-.569-1.882.349-2.99-1.07-1.268-1.622-.923-.9-.566-2.565-2.266-.227-1.836.213-3.549-.833-.26,1.185-.6,1.875-1.857,2.12-.923.181-2.185.765-2.94.607-1.441-.3-.355-1.166-2.312-1.591-2.088-.454-1.255-.673-2.673-1.164a3.393,3.393,0,0,1,.289,2.127c-2.267.792-3.747-.4-2.337-2.624-.466-.835-1.573-2.885-1.309-3.756.811-.353,1.146.221,1.8.645,3.711,2.405,1.465.867,3.868,1.593,1.214.367.525.9,1.566,1.075-.264-.911-1.28-2-.981-2.932.841-.444.46-.064,1.288-.044,1.61.037.9-1.4-.246-1.827-.517.437-.823,1.351-1.927.733-.912-.51-.29-.978-1.742-1.112l-.153,1.575c-1.107.206-3.375-.733-3.628-1.857-.168-.743.208-.616.317-1.214.013-.068.067-.072.095-.112-2.634-.9-2.142-1.408-1.824-3.925.181-1.438.749-.823,1.151-1.941-.672-1.029-1.841-.44-1.855-2.757,2.767-1.065,3.494.951,5.581-.437.195-1.122.07-1.5-.5-2.094-.838-.873-.515-.488-.8-1.767-.57-.246-1.689-.3-1.448-1.262.315-1.261,2.572-.538,2.125-3.078-.334-1.9-.317-.74-.868-1.9.089-1.111.244-1.263,1.132-1.608,3.455-1.339,1.891.551,3.786.767.874.1,1.514-.118,1.682-.971.361-1.835-.97-2.66,1.221-3.974-1.11-1.528-1.757.221-3.941-1.167-.133-1.909,1.666-2.181,1.976-3.443.425-1.73-1.265-3.156.452-3.79a2.639,2.639,0,0,1,.005-2.28l-.832-.474a1.977,1.977,0,0,1,.585-1.828c2.022-2.363,2.947-2.3,3.545-2.935l-.971-.42a4.932,4.932,0,0,1-.818-.358c-.7-.3-1.043-.194-1.857-.561Z" transform="translate(-444.885 -1554.29)" fill="#737272" fill-rule="evenodd"></path>
        <path d="M866.712,1762.511c.086-1.468-.7-2.731.205-3.963a11.89,11.89,0,0,1,2.241-2.057c4.642-3.637,3.787-1.346,5.767-3.036,1.642-1.4,2.04-3.752,3.585-5.21a27.8,27.8,0,0,0,2.235-2.263,4.7,4.7,0,0,0,1.215-3.112c-3.885.032-.539,2.595-5.557,3.462-2.68.463-3.4.833-5.128-1.2-.72-.849-.358-.375-1.544-.631a7.177,7.177,0,0,0-.7-1.811c-1.02.989-.71.43-2.084.654-.142.417-.129.644-.259.931-.443.979-.484.458-.593,1.333a3.547,3.547,0,0,1-2.206,2.881c-1.332.639-1.773.773-1.139,2.243.473,1.1.131.718-.147,1.515-.288.827.281.532-.217,1.385-1.47.851-1.535-.584-2.632-.287-.59.16-.979,1-1.855,1.486-2.139,1.177-2.521-1.781-3.337-2.739-2.606,1.406-.087,3.96-.739,5.45-.335.388-.537.464-.831.781-.242.261-.392.535-.568.755-1.213.047-1.281-.267-1.708-.973-2.479.078-2.141,1.165-3.451,1.54-1.047.3-1.265-.205-2.086.44-.422.331-.708.844-1.221,1.125-.6.329-1.2.29-1.865.677-.616.36-.716.656-1.526.806-1.419.263-2.026-.771-3.8-.826-.776.8-1.328,1.362-1.946-.054-1.4.771-.884.327-2.549.638-1.656,2.293-1.77,2.62-5.646,2.565.244.43,1.378,1.94-1.348,1.453-.8-.142-1.521-.972-2.785-1.147l-1.278,1.125c-.018-.036-.081.055-.115.089.828,1.614,1.122.28,1.9,1.253a1.992,1.992,0,0,1,.272,1.292c.007.835.173.655-.251,1.121-.523.381-2.17-.463-2.742-.863-.791-.553-1.041-1.756-1.45-2.568a12.659,12.659,0,0,1-3.753.6l-.207.826c.329.374.677.3,1.3.552.194,1.29-.631,1.525-1.271,2.308-.278.34-.146.3-.52.668-1,.987-1.983-.477-3.071-.671-1.211-.217-2.108.854-3.515,1.09-2,.335-1.853.737-3.277,1.433.213,1.045.736.389.251,1.793a6.31,6.31,0,0,1-.731,1.447c-.743.815-2.375.246-3.51.4.285,1.41-.884,1.819-1.67,2.44-2.935,2.318-1.936-2.318-6.228.417-1.924,1.226-.813.716-1.749,2.527-1.427.292-1.3.077-1.692-1.1l-.125-.264c-.63.622-.277.6-.592,1.3-.4.89-.271.218-.865.921-1.2,1.42,1.1,4.723-2.453,4.6-1.787-.064-1.319-.626-2.152-1.307a3.415,3.415,0,0,0-2.275,1.108c.138.532,1.271,2.038,1.012,3.22-.35,1.595-1.619,1.849-2.274,2.244.347.383.968.434,1.286.879.4.555.156.817.536,1.425.445.712,1.629,1.335.794,3-.947,1.739-3.609.218-5.384.567.286,1.651.977.8,1.688,1.929.316,1.188-.305,1.319-.943,1.811l-.471,2.91a9.162,9.162,0,0,1,.8.53c.356.218-.1,0,.4.2,2.862,1.137-1.083,1.187,1.516,2.779a3.011,3.011,0,0,0,1.461.688c.152-1.058-.124-2.058,1.377-1.614,1.094.323.585.912,1.849,1.2l.6-.673c1.142-.829,3.115,1.232,2.06,2.474-.454.535-1.063.495-1.853.414a13.731,13.731,0,0,0,.627,1.364,6.466,6.466,0,0,1,.282.715c.114.783.172.25-.138.743-1,.55-1.174-.049-1.8-.6-.877-.767-1.07-.222-2.089-.446a37.34,37.34,0,0,1-3.118-2.058c.138.588.371.973.6,1.666.311.924.435.558.718,1.408-.479,1.486-1.814,1.96,1.046,2.157-.056-1.191-.629-1.178-.322-1.993.7-1.059,1.994.567,2.826.76a4.767,4.767,0,0,1,1.645.522c1.644,1.038.245,1.732,4.172.5,1.448-.454.636-1.682,1.644-2.444.9.119.435.815,1.519,1.086.658.165,1.841.021,2.586.147.48,1.611-.025.579-.081,2.058.454.373.806,1.106,1.425,1.265,1.05.269,1.519-.282,2.328.424.781.886-.4,2,.451,3.049.952,1.169,1.587.029,2.534,1.038.3,1.036-.279,1.471-.53,2.537-.726,3.089-2.2,1.839-3.129,3.1-1.975,2.68-.257,1.828.747,2.513.732.5.234.69,1.077,1.085l.64-.943c.5-.442.376-.288,1.137-.182.049-1.883.234-1.078.757-2.035.353-.647-.1-1.105.007-2.175,1.615-.744,1.454-1.2,1.761-1.33,1.216-.112,2.412.745,3.816.873.984.09.916-.236,1.672-.454.629-.182,1.4-.089,2.1-.242,2.483-.544,1.1-1.458,2.168-2.54a1.66,1.66,0,0,1,1.649-.461,5.707,5.707,0,0,0,2.047.351c.674.622.41,1.058,1.4,1.259.6-.471.366-.484.749-1.159s.569-.56.885-1.079c.3-.494.237-.985.615-1.347.563-.542.6-.141,1.355-.2a3.512,3.512,0,0,1,.353-.819l.565-.634a1.345,1.345,0,0,1-.232-1.385c1.261-.362,1.676.255,2.731.562.306-1.011-.054-1.458-.547-2.325a24.057,24.057,0,0,1-.848-2.483c-.478-.887-1.049-.46-1.226-2.035-.158-1.4-.774-1.18-.716-2.574a5.522,5.522,0,0,0,1.722-.922,34.56,34.56,0,0,0-.437-3.98c-.448-1.343-1.975-3.823-1.812-6.75a2.715,2.715,0,0,1,1.578-2.706c1.053-.642.45-1.636,1.342-2.956a6.063,6.063,0,0,1,2.138-2.164,4.072,4.072,0,0,1,3.336-1.028c1.267.025,1.845,1.117,2.529,1.859,1.376-.375,1.451-1.035,2.111-2.242.6-1.095,1.378-1.2,1.814-2.294.682-1.712,1.3-.493,1.45-2.791.062-.941-.119-1.1.477-1.739,2.2-2.372,2.563-.063,3.75.573a23.575,23.575,0,0,0,3.394-.265c.352-.121,2.22-1.258,2.748-1.557,1.282-.729,1.94-.17,2.842-1.273-.609-1.2-2.32-.9-1.452-2.6.49-.956,1.495-.09,2.773-.923a2.669,2.669,0,0,0-.65-1.67,1.44,1.44,0,0,1-.062-1.613c.693-1.806,2.512-1.474,4.981-4.021,1.6-1.65.671-1.1,3.1-1.025.464-.745.522-.971,1.657-1.108,1.21-.146.862-.138,1.533-.963a29.406,29.406,0,0,1,2.8-2.424" transform="translate(-664.236 -1490.361)" fill="#737272" fill-rule="evenodd"></path>
        <path d="M1272.033,1427.814c-.551.238-.857.47-1.516.182-3.056-1.336-3.927.592-5.008.734-3.259.43-2.205-5.522-2.286-6.167-1.025.123-.245.311-1.243.714s-1.192-.022-2.05.085c-.75.094-.768.519-1.449.723-.949.284-1.113-.11-2.032.095-1.19.266-1.674,1.22-3.234.377-1.345-.727-.362-1.24-2.486-1.859.18.689.616,1.274.174,1.989-.8,1.3-2.249,1.489-3.315,1.765a5.2,5.2,0,0,0-1.764.992c-.294,2.107-.2.878-.789,1.955,1.235,1.658.643,1.68-.375,2.745l-.984.555c-.652.246-.637.648-.958,1.217-.211.373-.6.685-.724,1.042-.453,1.352.494,1.922.528,2.849-.536.6-.481.2-.933.84-.485.682-.116.356-.805.962-.756.666-.765,1.488-1.393,2.279-1.377.067-1.534-.667-2.167-1.379-2.007.962-3.546-.727-4.037,2.075l-.625,1.715c-.812,1.333.947,2.439-2.3,1.888,1.031,2.606.072,1.609.435,3.424a9.291,9.291,0,0,1,.42,1.691c.063,1.722-.485,4.029,1.034,5.072,1.562,1.073,1.8.206,3.4.5.074.438.063,3.071-.3,3.424-1.21.911-2.27-.4-2.967-.542-1.22-.253-1.952.864-2.7-.818-.715-1.606-.651-1.232-2.528-1.286-1.057-.03-1.633-.454-2.568-.148-.744.244-.236-.167-.648.4-.194,1.253.93,1.358,2.113,1.74,1.258.406,1.407,1.41.577,2.44,1.125,1.457.029,1.241.69,2.539.245.481,1.275,1.173,1.776,1.733.092.827-.161,2.462-.06,2.855.21.821.988.9.785,2.345-.143,1.015-.672,1.186-1.177,1.956-.389.593-.927,1.7-1.221,2.041a2.15,2.15,0,0,1-1.934-.3c.5,1,.895.826.01,1.946-1.522,1.927-1.667,2.709-4.061,3.76-.465.2-.87.211-1.309.421-.224,2.525.3,3.113-1.374,4.677a1.671,1.671,0,0,0,.42,1.189c1.058-.932,1.6-.622,2.611-1.238.976-.594.571-1.336,2.445-1.483,1.925-.151,1.139-.725,2.637-1.279,2.309-.854,1.88-.255,3.029.605a3.708,3.708,0,0,0,1.4-1.272c-.061-1.333-.737-2.334-.524-3.677a3.21,3.21,0,0,1,2.059-2.124c.716.137,1.168,2.644,1.951,3.018,1.568.092,1.6-.957,2.27-1.406,1.273-.85,1.8.294,2.942.212-.22-1.047-.19-.637.167-1.414.446-.97.092-.339-.211-1.346-.428-1.422.739-2.033,1.646-2.484.97-.481,1.864-.95,1.908-2.293.049-1.513,0-.481.55-1.507.315-.593.151-1,.652-1.322.886-.45.755.012,1.478-.278s.142-.535,1.364-.624l.992,1.863.984.6a10.769,10.769,0,0,0,.9,1.049c.982.947,1.758.61,3.133.4,5.117-.783,2.595-2.437,4.642-3.369.906-.412,2.378-.192,3.253-.671,1-.547.98-1.483,1.765-2.337.61-.664,1.655-.93,2.37-1.541.674-.575.227-.532.89-1.063.838-.672,1.055.119.76-1.391-.431-.164-4.826.186-.849-2.417.651-.426,2.651-1.8,2.77-.324.037.469-.041.342-.088.652a2.929,2.929,0,0,0,.084,1.572c1.683.019.709-.856,2.4-1.063,2.1-.256,2.558-1.712,6.945-3.19,1.909-.643,7-5.64,7.167-6.376-.061-1.557-1.3-1.5-.049-3.132.6-.787,1.528-1.5,2.071-2.343-.312-.621-.624-.437-.632-1.157-.006-.533.329-.7.382-1.581-.143-.547-2.311-2.6-2.194-3.52.477-1.025,1.881-1.294,2.532-1.951,1.138-1.147-.637-1.725,2.364-2.112,1.465-.189,1.531-1.217,2.986-1.513a14.859,14.859,0,0,1,2.08-.039,13.077,13.077,0,0,0,1.923-.449c-.864-1.812-.572-2.653-3.03-3.029-3.942-.6-3.75-.119-6.71-2.45a19.476,19.476,0,0,0-1.818-1.309c-1.054-.655-3.174-.472-4.836-1.465-1.29,1.434-1.658.068-2.357-.729a8.945,8.945,0,0,0-2.846-1.319c-.39,3.063,1.117.123.033,6.093-.272,1.5-.752,1.378-2.112,1.651-1.422.285-1.663-.19-1.318-1.568" transform="translate(-1042.202 -1215.797)" fill="#737272" fill-rule="evenodd"></path>
        <path d="M788.813,2289.34c.493-.267,1.426-.388,1.847-.874.2-.231.321-.6.517-.851,1.471-1.91.241-.275,1.283-2.429.313-.647.579-1.062.869-1.684.6-1.3-.193-6.463-3.5-5.834-1.042,1.678.276.951-1.967,1.334a16.852,16.852,0,0,1-2.218,3.618c-1.344.167-1.608-.173-1.913-1.195-1.257.048-.776.137-1.864-.27-.824-.308-1.229-.012-1.461.785-.015.052-.026.107-.04.162-.559,2.155-2.176,1.806-4.081,2.163-1.268.238-.922.808-2.777.4-.989-.216-1.907-.666-2.724-.817-.405.342-.349.479-.746.812l-.81.55c.208,1.115.484,1.188-.209,2.146-.616.851-.207-.294-.472.96-.08.377.027.581-.23.889-.527.629-.371.11-.861.253-.836.244-.894,2.153-2.282.582-1.067-1.208-.38-.425-1.726-1.016-.615-.271-1.037-.822-1.49-1.04-.593-.285-1.146-.194-1.972-.579-2.638-1.23-1.94.267-3.36,1.638-.849.819-1.306.638-2.11,1.169-.1,1.5.06.676.52,1.588,1.028,2.041-2,2.832-1.52,3.589.269.425,1.583.188,2.01.22,2.145.159,1.271,2.135.131,3.025-1.812,1.415-1.871.667-2.534,1.17-.687.719-.283,1.51-1.262,1.881-1.07.406-1.367-.309-2.511-.016-1,.256-1.019.6-2.415.51a6.44,6.44,0,0,0-2.661-.069c-.869,1.224.118,1.384-.7,2.24-.479.386-1.023.11-1.929.09-2.043-.045-2.9-2.113-4.839-.458.206,1.549.745,1.506,1.856,2.208,1.3.82,1.029,1.051,1.367,2.572,1.422.642,2.563.771,2.581,2.9-.222.2-.471.394-.676.605-.635.655-.281-.08-.443.735.862.885,2.058.539,3,1.632,1.24,1.443.049,2.028-.886,2.837-.006,1.028.415.793.5,1.785a5.357,5.357,0,0,1-.4,1.93l1.2,1.368c1.357-.12,1.654-.886,2.629-1.366,1.344-.661,4.439.257,1.763,2.736.176.823.58.859.5,1.908a18.211,18.211,0,0,0-.336,2c.03,1.058.335.868-.113,2.008-.357.91-.617.789-.66,1.757.927-.5,1.175-1.559,2.464-.156a2.463,2.463,0,0,1,.114,3.069c-1.21,1.52-.818.182-1.222,2.7-.26,1.622-.863,1.409-1.516,2.356.031,1.476,1.006,1.305,1.1,2.372.091,1.083-.822,1.414-1.081,2.126,1.573,3.063.071,1.962.116,4.693.469.613.541.189,1,.8l.564,1.057c1.685.312,1.848.885,3.479.42,2.255-.643.618-1.39,3.829-2.823.911-.407.573-.395,1.191-.969.986-.917,2.013-.328,3.188-1.1.2-1.162.126-1.706.419-2.891.716-2.892-.928-2.812,1-5.079a3.427,3.427,0,0,1,1.82-1.319c1.048-.152,2,.429,3.006.1,1.158-.382.69-1,1.809-1.32,1.753-.5,3.178.364,5.492-.753-.514-2.4-4.075-2.536-2.111-5.659l4.088-4.923c.635-1.134-1.57-1.361.191-3.121,2.737-2.736,4.172.267,6.908-.52a6.613,6.613,0,0,0,2.906-1.418c-.315-.759-.984-.937-1.152-2.006-.134-.849.178-1.491.038-2.574-.847.5-1.372.874-2.246.083-.607-1.138,1.68-2.6,1.83-3.324-.2-1.484.168-2.949-.128-4.24s-1.12-1.407-1.133-3.02a3.345,3.345,0,0,1-2.4-1.539c.335-.983.794-.566,1.4-2.021l1.223.047c.4-1.465.641-.937.734-2.917.15-3.172,3.723-3.258,4.393-6.527-.739-.448-1.4-.509-1.169-1.859" transform="translate(-630.122 -1947.837)" fill="#737272" fill-rule="evenodd"></path>
        <path d="M1143.784,1270.043c.232.588,1.216,1.993-.819,2.07-.5.019-1.35-.1-1.951-.113-1.14-.027-.984.021-1.619-.519-1,1.064-.386.959-2.752,1.045.038.038.1.037.121.108l.245.2.125.088c.463.313,1.316.572,1.473,1.026a2.984,2.984,0,0,1-1.5,2.408c-1.356-.1-.7-.517-1.748-.6-.856.242-.3,2.118-5.566.21-1.121-.406-.714-.687-1.681-.927-.032.042-.07.06-.081.136s-.062.1-.076.137l-.376,1.189c-2.274.483-1.643-.344-2.81-1.163.04,1.135.869,1.34.953,2.35.1,1.262-.852.915-1.218,2.16,1.357-.188,1.687-1.281,3.176-1s1.4,1.318,1.717,2.583c1.77.3,1.33-1.351,2.775-.616a3.438,3.438,0,0,1,1.373,2.714c-.5.633-.7.441-1.04.863-1.039,1.3.67,2.044-2.847,1.845-1.68-.1-1,.442-1.307,1.4-.783.115-1,.039-1.621.581.264,1.495,1.805.51,1.73,2.347-.707.683-1.191.505-2.395.7-.613,1.254.032,1.107-1.207,1.914-1.267.825-.6,1.105-2.165.4-.633.716-.684,1.446-1.816,1.47-1.184-.676-.1-1.3-1.923-1.111.12.872.754,1.675-.14,2.384l-.7.486c-.426.469-.133.654-1.286.824-.308,1.771-.773,1.211-2.091,1.7-.328,1.054-.04,1.438-.823,2.062,1.507,1.176.551,1.13-.147,2.272.057,1.292.329,1.585-.3,2.761-.729,1.358-.161,1.671-.626,2.7-.575,1.281-2.983,1.754-3.731,2.747-.1,1.149.818,2.391,1.356,3.367.825,1.495,1.232,1.832-.073,3.281,1.186,1.273,2.074.007,1.69,3.533-.217,2-1.848,1.237-2.857,2.528.81.572.706-.534,1.516.746.263.416.905.959.971,1.4-.161,1.136-.624.938-1.036,1.725l-1.011,1.778c.818-.014,1.446-.4,1.9.12.561.637-.147.746.98,1.376,1.631.913,1.584.147,3.042,1.594.156,1.317-.126,1.159-.379,2.228s-.078,1.13-.864,1.671c-1.7,1.168-2,.128-3.251-.6-1.2-.189-1.719,1.8-2.116,2.264-.335.395-1.521.484-1.169,3.5.224,1.918-.518,1.5-.972,2.481,1.609.982,3.783.441,5.047,1.806.672.726.539,1.5,1.171,2.151.784.809,1.523.636,1.55,2.01-.659.6-.935.226-.947,1.094.921-.293.739-.74,1.738-.868l1.639,1.268c.159.823-.088.483-.131,1.075-.053.724.147.233.337,1.174.353,1.752-.341,1.1.851,2.379,1.631-1.816,2.548.17,4.489.076-.1-2.2-.252-.988.762-2.8.694-1.241.137-2.233.525-3.6.591-.907,2.771.049,5.725-4.733-.329-.779-.974-.682-.248-1.7,1.2-.148.559.369,1.889.319.323-.408.21-.392.424-.746s.326-.44.568-.792c1.094-1.592,1.694-1.848.691-3.464-.8-1.292.5-2.786-.77-3.915-.312-.277-1.059-.8-1.258-1.312-.236-.6-.1-.545-.138-1.1-.091-1.244.023-.258-.318-1-.479-1.04.074-.64.328-1.744-1-1.174-1.279-.41-2.38-1.252a1.726,1.726,0,0,1-.373-2.56l1.838-.334a18.278,18.278,0,0,0,2.374.256c2.707,0,1.51,1.552,2.761,2.163.662.177,1.222-.369,2.184.082.755.354.582.787,2.055.648-.234-1.012.074-1.3.157-2.445-5.754.784-4.3-3.923-4.565-6.334a16.045,16.045,0,0,1-.449-1.959c-.023-.872.3-1.159.085-1.838-.245-.763-.867-.779-.3-1.708.757-.343.967.158,1.915.173.028-.471-.1-.961-.047-1.277.181-1.009.151-.152.615-.9,1.013-1.625-.327-3.462,2.818-3.405,1.864.034,1.169-.3,2.385-.39.884.754.467,1.181,1.526,1.442.775-.773.343-1.348,1.216-2.025.851-.66.288.014.795-.971.479-.931.092-.2.876-.8-1.744-1.325.294-3.9.357-4.016,1.266-2.411.768-.619,2.121-1.984l.724-.87c-.415-.682-.771-.706-.749-1.76l.848-.524c-.541-2.827,3.575-1.845,5.3-4.169-.161-.838-.864-1.983-.149-2.931.37-.49,1.571-.515,2.319-1.122-1.354-.055-3.987,1.206-4.03-1.03.524-.614.876-.508,1.641-.852,1.091-.491.712-.483,1.195-1.344.366-.654.9-.8,1.212-1.339.335-.577.185-1.055.418-1.748-1.393-.033-2.46.421-3.34-.585-1.766-2.018-.652-3.145-1.367-4.5-.281-.533-.619-.458-.18-1.327.491-.971,1.494-1.149.177-2.579-1.308.314-1.652,2.8-3.915-1.561-.687-1.325-1.08-.879-1.719-1.8a5.909,5.909,0,0,0-1.618-1.849c-.387.151-1.214.683-1.714.928" transform="translate(-946.582 -1085.358)" fill="#737272" fill-rule="evenodd"></path>
        <path d="M1372.5,933.392c1.183.3,2.5.146,2.607,1.685.106,1.6-.365,1.921.658,3.26,3.72.412,2.257.7,3.96,3.1,2.607,3.677-1.688,2.592-2.3,2.57-.457,1.037-.82.92-1.476,1.607,1.042.537,2.353.453,2.47,1.784.172,1.954-.669,2.12-1.462,2.414l-.3.121c.935,1.947,2.91,1.873,3.712,2.395,1.839,1.2-.037.86,3.815,2.262.934.34,2.048,2.618-1.686,2.277-1.406-.128-1.557.419-2.486.42-1.592,0-1.928-2.741-4.278,2.039-.869,1.768-.58,1.9-3.027,1.681.209,3.25-.586,1.443-1.464,3.007-1.148,2.046-1.178.285-1.364,3.321-.237,3.854,1.774,3.423,2.229,6.307.068.434-.09.045.1.405a13.014,13.014,0,0,0,4.106.968c.187-.075,1.467-2.868,2.592-1.293.336.47.107.663.537,1.284,2.014-.508,2.028-1.467,3.378-1.236.387.889-.088.4.655,1.646.615,1.035.039,1.459.66,1.871.836-.288.149.2.462-.724.168-.5-.154-.456.434-.72.684-.308,1.076.38,1.6.615.139-.476.758-3.165,2.406-2.343,1.191.595.293,1.916,1.939,2.743.542-1.011-.736-1.4,1.955-1.313.475-.722.126-.846,1.053-1.081.7-.179,1.448.009,2.053-.12.973-.209.316-.5,1.308-.826.616-.2.96,0,1.616-.141,1.372-.284-.181-1.482,1.5-2.631.352-.242.8-.538,1.323-.179.825.572-.172.953.924.912,1.363-.051-.266-.41,1.027-.782a1.276,1.276,0,0,1,1.217.458l.777.986a3.705,3.705,0,0,1,.5,1.316c2.068-1.174,1.738.582,1.773,2.1a4.247,4.247,0,0,0,1.6.582c1.776-2.89,1.409-3.531,3.081-2.637.566-.524.214-.969.993-1.046.958-.1.569.606,1.354.913l.359-1.127,1.578.236a7.327,7.327,0,0,0,.1-2.507c-.212-1.445.093-1.037.633-1.872-.844-2.618-.525-1.785.765-2.61.667-.427.343-.75.963-1.187.641-.451,1.084-.2,1.755-.42s.521-.5,1.3-.832a16.094,16.094,0,0,0,.116-2.489c-.232-1-.824-.936-.574-2.405.411-2.42,2.154-1.725,3.349-2.543.061-1.415-1.083-1.322-1.932-2.355-.42-.511-.36-.8-.8-1.356-.469-.6-.731-.5-1.023-1.345-.526-1.52.525-1.769,1.034-3.188.3-.843.268-.926-.258-1.473-2.725-2.832-1.868.787-4.847-.243-1.742-.6-2.073.782-3.687.627-1.164-.112-1.8-1.674-2.6-2.174-1.265-.787-2.158.907-3.075,1.357-.884.028-.757-.143-1.409-.218-.8-.092-.916.13-1.559.147-1.21.032-1.156-.778-1.912-1.332-1.219-.894-1.313-.139-2.456.111-1.223.268-.925-.862-2.245-1.1-.9.652-.571,1.163-1.783,1.37-.38-.543-.152-.253-.418-.894-.464-1.115-.034-.265-.712-.869-.795-.707-.4-1.247-1.389-1.769-.845-.256-2.087.845-3.17,1.025-1.67.278-1.487-1.792-6.222-2.378-3.506-.435-.608-2.413-3.167-5.223-1.454-1.6-1.986.31-3.261-.632-.811-.6-.444-1.914-2.721-1.534-.808.135-.333.473-1.6.62-2.218.257-1.295-.13-1.661.6" transform="translate(-1171.511 -797.14)" fill="#737272" fill-rule="evenodd"></path>
        <path d="M843.534,1697.307c-.074,1.327-.081,1.47-.809,2.287-1.974.074-2.094-1.067-3.559-1.11-.573.638-.418.967-.836,1.678-.317.54-.966,1.043-.771,1.673.373,1.2,2.616.947,1.876,3.35l-1.414.178c-.285,1.458-.13.979-1.08,1.626-1.021.695-.387,1.168-1.013,1.92-.571.686-1.065.348-1.477,1.277-.488,1.1.261,1.057.476,2.056.233,1.081-.072,1.13.457,2.321a4.573,4.573,0,0,1-.3,4.643c-.78,1.053-.8.562-1.9.983l.071.818c.589.1,3.379.689,3.656,1.263.237,1.311-1.258,1.531-2.1,2.137a5.791,5.791,0,0,0-2.071,2.6l.923.733c-.058.849-.247.706-.286,1.258-.044.627.193.6.268,1.338-.345.41-.023.026-.373.359-.3.288-.1.034-.435.419.108,1.113.713,2.346.188,3.434-.471.975-1.318,1.061-1.853,2.432,1.7,1.39,1.225-.52,3.277.738.7-.587.447-1.009,1.844-.962.292.7.03.989.532,1.488.73-.6.169-1.206,1.1-1.925a19.719,19.719,0,0,1,1.919-1.211c2.371-1.172,2.99.427,4.411.768a14.887,14.887,0,0,0,1.67-1.147c1.026-.9.258-.844.59-1.9l3.611-.088c.986-2.787,1.089-.667.252-2.8.856-1.927,4.091-2.273,4.55-2.421,1.031-.333,1.429-1.019,2.625-.987s1.54.79,2.737,1.081c.743-.644.974-1.255,1.756-1.974-.038-.033-.106-.12-.126-.08s-.1-.062-.128-.077c-1.013-.491.584.222-.267-.127-.225-.092-.477-.143-.7-.224-.028-.853-.055-1.593.492-2.01.044-.032,4.2-.811,4.48-.8,1.417,2.079.175,2.481,3.4,3.515l-.041-1.374c-.762-.5-2.2-.111-2.188-2.348a3.44,3.44,0,0,0,1.034-.5c.448-.354.266-.393.892-.763,1.9,0,2.042,1.195,3.924,1.116-1.207-2.559,2.17-.762,3.841-1.865a8.386,8.386,0,0,0,1.529-1.6c1-1.1,1.362-.24,2.428-.885,1.07-1.678-.7-2.15.064-3.715-.044-.032-.122-.117-.146-.074s-.159-.078-.283-.145l-1.021-.765a1.553,1.553,0,0,1-1.743.773l-.393-1.308c.343-.3.763-.376,1.042-.828-.521-.675-.963-.644-1.414-1.182-1.414-1.684.757-2.2-4.418-3.18-1.63-.307-1.175-.506-1.774-.826-.638-.34-1.413-.11-2.357-.19-2.08-.175-2.348-.646-2.43-2.835-.044-1.181.074-1.139-.466-2.054-.3-.511-.676-1.055-.244-1.8.6-1.024.624.014.652-1.807.015-1,.264-1.52-.2-2.27-1.224-1.968-2.937-.669-3.441-.489-2.518.9-2.6-.4-4.567-.409-.656,2.82-1.888.547-3.3-.1-.673-.307-1.836-.061-2.49-.464-.631-.389-.549-1.318-1.169-1.951a19.351,19.351,0,0,0-2.645-.477c-1.583.371.726.845-2.485-.094.745,2.394-.3,1.9-.506,3.352-.25,1.721.954.724-1.337,2.521" transform="translate(-710.822 -1446.529)" fill="#737272" fill-rule="evenodd"></path>
        <path d="M2050.1,665.576c-1.067.214-.848.317-1.359,1.236-1.44,2.592-2.751,1.586-3.957,3.865-.6,1.133-.778,2.315-1.537,3.547-1.4,2.281-.309,1.792-3.387,1.893-.6.415-.758,1.126-1.943,1.054-2.3-.14-1.762-1.389-3.065.783-.286.477-.562.686-.761,1.01-.77,1.252.393,1.186.047,2.792-.229.365-2.377.552-4.093,1.145-.424,1.2-.155,1.083-1.42,1.725-.968.49-1.242.535-1.605,1.463.436.518,1.047.655,1.195,1.457.243,1.316-2.3,2.674-2.808,2.867-1.188.449-1.27-.242-2.358-.214-2.011.051-3.816,3.45-6.171.885-.682-.742-.288-1.082-1.635-1.276-.747,2.117.283,2.15.106,4.262-.115,1.376-.18.154-.071.99.2,1.513,2.448-.184,6.263,1.531,2.395,1.077-1.2,3.274.723,5.045,2.759-.681,4.43-3.058,8.188-2.419,2,.34,1.847,1.448,4.076.307,1.477-.756,3.533.083,4.967-.512,1.172-.486,1.3-2.1,2.214-3.063.947-1,.422-.553.978-1.754a4.983,4.983,0,0,1,1.315-1.424c.919-.828,1.619-2.317,2.461-3.02,1.116-.931,2.981-.508,4.535-.958-.191-1.676-1.2-1.522,2-1.543.906-2.678,1.639-.663,3.288-1.749,1.54-1.015.535-1.383,3.282-1.814s.193-2.068,5.04-2.578c.9-.1,1.279-.125,1.811.481.285,1.581-2.3,2.3-1.481,5.025.631,2.109,6.742,3.045.545,5.537-.34.137-.549.165-.867.265-1.78.56.307.689-3.1.706-1.256,3.047-.713,1.841-3.044,3.718.351.629.449.24.546,1.184.122,1.2-.327.679.4,1.563,1.229,1.486-.312,1.529.518,2.605,1.12.452.469-.538,1.9-.16l.044,1.562,1-.337c.057-1.251-.051-1.41.69-2.075l2.769-2.7c.774-.56,1.308-.426,1.863-1.066.905-1.044.9-3.262,1.848-3.638.737-.292,1.728.013,2.368-.344.814-.455-.48-.826,2.072-.518.99-1.272,1.789-3.052,3.243-.3.52.983.324,1.353,1.5,1.613a5.429,5.429,0,0,0,2.857.072,2.338,2.338,0,0,0-.3-2.032c-.609-.894-3.562-1.52-3.412-4.809.076-1.652,1.858-1.155,2.926-2.55a16.091,16.091,0,0,0,1.917-3.7,8.378,8.378,0,0,0-1.265-1.169c.07-1.321.813-1.479.331-1.959-.687-.374-.964.034-1.788-.356a6.7,6.7,0,0,1-1.09-.977c-.812.231-1.6.92-2.166.878-.916-.067-1.348-1.044-1.949-1.349-1.94-.985-3.856,1.757-5.044.773-.952-.807.108-1.691.622-2.184,2.749-2.631,3.145-2.149,1.476-4.434a15.873,15.873,0,0,1-1.2-2.659c-1.453.283-1.076.482-1.627,1.631-.929,1.938-3.29-.435-.787-2.346,1.1-.841,1.48-.361,1.261-2.106-1.021-.379-2.2-.322-2.719-1.179a1.674,1.674,0,0,0-2.735-.908c-.69.412-1.386,1.126-2.2,1.709a4.75,4.75,0,0,0-2.013,2.095c-.457,1.082-.7,1.837-1.673,2.238-1.781.733-2.055-.259-3-.758-2.635-1.4-3.733.993-5.552-2.563" transform="translate(-1723.218 -566.537)" fill="#737272" fill-rule="evenodd"></path>
        <path d="M1618.15,967.592c-1.181.3-.043.94-1.917.72-1.765-.208-1.03.236-2.189.318a5.435,5.435,0,0,0-1.083,0,9.922,9.922,0,0,1-1.1.268c-1.227.092-1.008-.534-2.591-.061-.4,2.822.043,2.773-.85,5.412-.385,1.138-.024.7-.058,1.686-.074,2.134-2.372,2.5-.673,4.2.69.691.39.367.846,1.3.536,1.092,1.436,1.272,2.094,2.03.906,1.043.126,2.1-1.082,2.318-1.229.218-2.174.609-1.982,2.265.2,1.732.828.592.465,3.512,2.6.829,1.641,1.344,1.734,4.135.107,3.232-.767,2.784-1.209,4.883a5.776,5.776,0,0,1-.731,2.2c-.224.466-.223.762-.42,1.149-.249.49-.381.392-.653.916-.469.9-.323,1.112-1.041,1.895-1.013,1.107-1.046.581-1.628-.12-.376.925-.341.335-1.195,1-.014.771.464,1.232-.041,1.7-.47.439-.906.005-1.689.677-1.69,1.451-2.15.1-2.9,1.6-.339.685-.208,1.025-.942,1.216-.96.25-.92-.334-1.5-.665-.776-.442-2.444.8-3.081,1.124a2.71,2.71,0,0,1-.907,2.647c-2.047,1.723-2.079-1.656-4.8,1.063a3.186,3.186,0,0,0-.936,2.609c1.175-.448,1.7-.848,2,.874,1.62.3,1.352,1.05,2.879,1.2,1.679.163,2.261-.771,3.5-.337a3.2,3.2,0,0,1,.416,3.31c1.314.681,1.032-.093,2.545.379.708,1.369-.282,1.3.041,2.256.315.929,1.384.5.406,2.308l1.119.438a8.883,8.883,0,0,1,0,1.307c.052.856.052.369.655,1.035.823.911.016,1.6-.259,2.24.637.641,2.621,1.82,3.76,2.851,1.36,1.231,3.686.989,5.524,1.341,1.681.322,1.86,1.055,2.783,1.815a3.987,3.987,0,0,0,1.538-.744c.132-1.723-.42-3.1,1.829-2.889.835.91.847,1.483,1.029,2.849a8.007,8.007,0,0,0,3.162-.609,6,6,0,0,0,1.57-2.3c1.315-.039,1.756.814,2.428,1.381l2.078-.47c-.015-.805-.39-.934-.2-1.962.17-.93.731-1.179.3-2.052-.676-1.366-1.7-1.118-1.714-3.7-.017-2.367-.817-2.712-.909-4.507-.046-.894.422-1.916.351-2.307-.115-.633-2.378-1.8.155-2.713a4.645,4.645,0,0,0-.356-2.048c-1.38.022-2.157.4-3.135-.441-.135-1.084.514-1.319.938-2.071.4-2.482-5.055-3.078-2.987-5.672.587-.737,1.83-1.417,2.073-2.63.159-.8-.307-1.016-.568-1.611-.49-1.117.006-1.377-.169-2.374-.275-1.568-2.185-.862-3.481-.78-2.586.163-4.43-3.026-4.434-4.942,0-1.953,1.376-1.421,3-1.8.628-1.9-.366-3.041,1.453-3.649,2.336-.782.483-1.257,3.911-1.133,1.816.065,2.168-1.857,1.465-3.092-.743-1.306-1.822.928-1.912-1.844-.041-1.243-.16-.909-.285-1.062-.43-.042-1.65.466-2.434.5-1.561.063-1.349-.723-1.881-1.44-.37-.5-1.46-.813-1.933-1.2-.354-.29-.421-.468-.787-.772-1.467-1.219-2.194-.69-1.079-2.691.573-1.028.106-1.382,1.079-2.257,1.962-1.762,2.025-1.131,2.391-3.007.286-1.466-.408,1.025.077-.334.189-.53-.115-.093.259-.435,1.055-.5,1.212,1.617,1.366,2.691.212,1.482.637,2.335,2.375,1.886,0-1.177-.854-.969-.567-2.109.984-1.058,1.285-.5,2.442-.176.9-2.848,2.525,1.5,3.227,2.094a13.8,13.8,0,0,0,2.309,1.225,2.446,2.446,0,0,0,2.676-.857,5.489,5.489,0,0,0-.314-2.917c-.276-.986.005-.662-.017-1.28-.026-.733-.169-.11-.352-1.152.219-.647.416-.685.486-.9.179-.553-.138-.289,0-1.235l1.588-.2-.694-2.478a2.175,2.175,0,0,1-2.287-1.041c-.652-.565-.528-.131-1.268-.47-.756-.347-.129-.423-1.061-.71-.354.255-.939,1.061-1.311,1.249-1.19.6-1.025-.388-1.836-.079-.639.243-.627.867-1.454,1.067-.968.233-1.013-.415-1.452-.823" transform="translate(-1356.442 -826.283)" fill="#737272" fill-rule="evenodd"></path>
        <path d="M1935.322,799.9a5.112,5.112,0,0,1-.595,1.313l-1.921.046.346,1.07c-1.367,1.122-2.035.608-3.863.892-1.452.226-1.686,1.292-2.514,2.385-.651.859-1.829,1.645-2.179,2.513-1.14,2.828-1.048,1.076-1.84,3.047-1.411,3.511-4.241,1.237-6.991,2.591-2.455,1.208-3.379-1.7-7.633-.008-1.228.488-2.132,1.135-3.163,1.529-1.247.478-.948.074-1.123,1.219-.333,2.183-2.1.235-3.582.9-.6.269-.737.779-1.506.9-.8.126-1.509-.27-2.265.013-.637.238-.522.805-1.822.757-3.373-.125-1.531.572-3.466,1.208-4.351,1.429-5.62-2.567-7.39-1.523-.418.247-.034.185-.73.445-1.923.719-1.031-.231-1.848,1.834-1.885.161-.987-.821-2.416-.794-.157.362-.195.674-.351.995-.381.781-.271.209-.7.943.083,1.571.756,1.893.516,2.97l-1.518.077c.257,1.464-.057.931-.488,1.841.935,1.453.029.752.332,2.02a11.106,11.106,0,0,1,.365,2.477c3.469,1.517.932,2.936,1.248,4.46a2.435,2.435,0,0,0,1.187,1.362c.739-.312.448-.247.923-.761-.295-.764-.981-1.443-.922-2.507a6.7,6.7,0,0,1,1.139-2.615c.843-.349.822.108,1.663-.252.511-.219.582-.65,1.274-.866a17.274,17.274,0,0,1,3.466-.5c.107.241.152.474.189.559l.137.287c.022.042.064.108.083.143a.872.872,0,0,0,.088.143c.223-.42.692-1.124,1.4-1.156.942-.043.559.8.928,1.686.795-.089,1.036-.475,1.739-.4.949.1.4.517,1.807.381,1.163-1.868,1.265-.9,1.583-1.332.177-.653.233-1.136.924-1.395.845-.317.951.249,1.376.747.514-.361.338-.512.91-.793.54-.265.872-.135,1.451-.276,1.018-.248,1.078-1.073,1.745-1.814,2.286-.072,2.11,1.675,2.306,2.22.222.619.323.217.4,1.173l-.9.706.67,1.4c1.364-.059,1.415-1.045,2.587-.967,1.391.092-.18.507,2.622,1.119,1.28,3.246.025,2.113-.012,3.477l1.7-.388c1.954,3.757-.989,4.738-1.319,5.207-.3.432-.212.785-.576.995-.656.378-1.667-.674-1.495.982,1.316.624,3.041.14,3.561,1.558a14.13,14.13,0,0,1-2.86,1.138c.35.859,1.474,1.172,1.281,2.267s-1.826.937-1.512,2.372c.331,1.516,1.345-.867,1.855,1.479.383,1.758-.292,2.24,1.128,2.857.978-2.217,1.13-1.219,2.482-.326,2.1-1.241.547-1.34,1.11-2.671a4.617,4.617,0,0,1,2.41-1.8l.153.34c.335,1.04-.023.715.407,1.24.85-.875.418-1.273,1-2.078.654-.907,1.065-.526.5-2.061-.435-1.188-.218-1.309.438-2.078.825-.967.857-.823.789-2.512-.063-1.571.246-1.233,1.006-2.149,1.811-2.184-.329-2.884-.506-4.342-.253-2.084.195-1.287-1.176-2.161.035-1.389.726-1.431,1.55-2.036s.179-1.221,1.421-2.291.443-1.531,1.291-2.426c.931-.983,1.687-.011,2.857-.069-.163-1.925-.553-3.394.454-4.835,1.422-2.033.682-2.694,1.67-4.348,1.209-.007,1.167.3,2.214.49.02-1.711.306-2.218,2.057-3.888l3.255-2.8a18.029,18.029,0,0,1,1.581-1.353c.741-.382,1.379-.252,2.2-.728,2.275-1.314,1.45-1.337,2.639-3.4a10.552,10.552,0,0,0,2.025-.177c.771-.32-.033-.291,1.456-.657a6.916,6.916,0,0,0,2.843-1.535c-.376-1.8-4.85-1.723-2.95-6.21.875-2.066,1.166-.95,1.277-2.153-3.925-.9-3.818,1.9-5.723,2.4-1.964.516-1.373-.239-2.837,1.267-1.1,1.132-1.535.92-3.332,1" transform="translate(-1604.606 -679.937)" fill="#737272" fill-rule="evenodd"></path>
        <path d="M1422.889,1157.052l-1.293-.111c-.783,1.284-1.025,1.736-2.145.206l-.7,1.007c-1.14,0-.585-.134-1.456-.4-.724.729-1.44,4.509-3.923,2.329-.921-.808-.155-1.18-.51-2.181-.032-.014-.093-.042-.106-.005l-.918.153c-.878-.084-.72-1.889-2.222-2.782-.448.487-.339.858-1.3.862-1.19.006-.968-.455-1.387-1.123-1.685.576-.866,1.458-1.544,2.9-1.571.293-1.626-.329-2.773.574-.866.682-2.879.354-2.963.682l-.328.334c-.177.213.03.23-.45.535-.432.275-.972.056-1.569.039.074,1.423-.213,2.062-1.561,1.026-.8-.614-.787-1.638-1.385-2.509-1.47.2-1.114,1.386-1.69,2.431-1.444.049-.742-.271-1.77-.6l-.278,1.434-1.712-.136a7.689,7.689,0,0,0-.314-1.892l-.643-1.094c-.168-.416.022-.165-.182-.418a4.224,4.224,0,0,1-3.39,1.188l-.416-1.619c-1.641.329-.708,2.169-2.926,1.681a10.267,10.267,0,0,0-1.876-.472c-1.3-.13-.976-.358-2.057-.5.066,2.21-.612,2.054-.684,3.615-.123,2.7.2,1.8,1.166,3.147,1.018,1.418,1.505,1.5,2.045,2.259.757,1.057.677,2.138,1.88,2.609.432.046,2.407-2.326,3,.706.188.956-.518,1.433-.885,2.04.187,1.111.629.392.508,2.041a3.226,3.226,0,0,0,.385,2.186c1.3,2.139,1.914.722,4.094,1.39a3.609,3.609,0,0,1-1.481,3.527c-.651.776-.1.863-1.138,1.6-.565.4-1.419.516-1.8,1.076,1.687.591,2.8-.726,3.949.124.821,1.325-1.9,1.465-2.494,2.134l1.067.657c.974.514.885,1.265,1.92,1.635a1.942,1.942,0,0,0,1.683-.125c1.713-.724,2.034-.167,3-.519.536-.194.543-.509,1.124-.671.785-.218,1.1.045,1.924.017.546-.3.96-1.026,1.672-.878.792.164.887.881.7,1.664-.314,1.3-.068,3.694.806,4.406,1.574.411,1.735-.932,3.108-1.07a6.732,6.732,0,0,1,3.3.631c.766-.319,1-.754,1.832-.543.245.805-.205.882-.4,1.8l2.125-.3.682-3.822c.067-1.01-1.24-1.589-.29-3.631,1.354-.341,1.516.44,2.644.813,1.553.513,1,1.088,2.01,1.75l.222-.213c.874-.754.372-.635,1.8.1a7.439,7.439,0,0,0,2.668.586c.458-.745,1.166-1.112.452-1.947-1.078-1.259-.763-.226-.592-2.179-.9-.109-.855.059-1.436-.512.132-1.148,1.22-.794.085-2.031-.535-.583-.3-.828-.179-1.593l-.077-.735c-1.266-.333-1.09.738-2.582-.725,0-1.8.526-.2-.087-2.992-1.491.081-2.495,1.03-4.352.217-.918-.4-.431-.472-1.473-.835-1.234-.43-.678-.489-1.151-1.4-.92.368-.273.572-1.542.528a4.291,4.291,0,0,1,2.442-5.059c1.519-.461,3.231,1.523,3.93-.75.479-1.557-.808-1.48,2.366-2.909,1.884-.848,1.773.384,2.826.5.77-1.07.573-1.774,2.132-2.035,2.129-.357.33-.666,3.014-1.239-.047-1.36-.769-1.2.744-2.189.759-.5,1.442-1.848,1.825-.143a3.569,3.569,0,0,0,.939-1.2,23.741,23.741,0,0,0,2.067-4.974c.263-1.2,1.088-1.875,1.187-3.284a25.382,25.382,0,0,0-.111-4.576c-1.688-.5-1.267.911-3.031,1.226-.978.174-1.1-.132-1.6.732-.834,1.44-.313.347-1.326,1.048-.619.429-.035.652.132,1.262.255.933-.353,1.067-.542,1.6-.236.669.49,2.356-.427,3.9" transform="translate(-1177.11 -981.078)" fill="#737272" fill-rule="evenodd"></path>
        <path d="M698.689,384.942c.356.9,1.427,2.1,1.532,2.837.125.872-.633,2.559-.725,3.45-.411,3.958-3.359,1.5-2.705,6.057.814.606,1.673.887,2.553,1.55,1.612,1.214.287,1.658.53,3.325.093.637.446.874.741,1.471.757,1.532.469.747.888,1.256.837,1.017.028,2,1.544,2.705.921-.475.472-1.082,1.76-1.278,1.249.486.7.928,1.322,1.961.776,1.277,1.347.7,2.236,1.282,1.053,1.5-.043,2.523.156,3.957,1,.479,1.021-.552,2.225.7,1.095,1.141.969,0,2.441,1.084,1.826,1.35,2.088,1.977,1.836,4.858,1.923.426,2.006-.7,3.461.222.877.557.455.351,1.474.085a12.107,12.107,0,0,0,1.691-.459c.12-2.234-.573-1.792-.944-3.059-.434-1.483.8-1.638,1.482-2.455.4-1.222-1.942-1.282,2.233-4.047,3.118-2.065,2.538-.94,3.624-1.654.559-.367.381-.608,1.205-.756.939.533.993,1.121,1.59,1.7.63-.164.844-.551,1.613-.382,0,0,2.587,1.32,1.988-.825-.213-.76-.372-.383-.6-1-.429-1.151.588-1.127,1.229-1.637-.289-.918-1-1.489-1.257-2.427-.443-1.609.664-1.76.235-3.133-.383-1.225-1.35-1.111-1.655-2.115-.282-.927.2-.851-.466-1.449-.578-.523-.6-.122-1.154-.848-.1-1.433.544-.6.343-1.848a14.072,14.072,0,0,1-.431-1.886c-4.4.243-1.42-1.7-1.148-4.779-3.607,1.6-1.3.659-2.909,2.368-.4.427-.725.855-1.308.742-.4-.217-.408-1.427-.526-1.7-.354-.831-.718-.16-1.073-1.214-.276-.819.2-.185-.205-.668-.421-.5-.254.169-.574-.516-.308-.659.388-.672.446-1.639-1.553.449-1.3-.325-2.144-1.167l-.473,1.791a12.971,12.971,0,0,1-1.713.063c-.847.114-.154.591-1.347.645-.224.01-2.346-.926-2.922-1.143-1.444-.543-1.9-.291-2.638-1.468a9.806,9.806,0,0,0-1.864-2.263c-.484.24.005-.048-.326.274-1.621,1.576-1.182-.117-3.449-.249a8.912,8.912,0,0,1-1.559,1.31c-.84.659-.718,1.2-1.539,1.587a5.262,5.262,0,0,1-1.3.279c-.942.166-.553.1-1.051.5-1.022.82-1.221.3-2.371.006" transform="translate(-595.821 -326.032)" fill="#737272" fill-rule="evenodd"></path>
        <path d="M869.441,566.9c-.752,0-.494-.18-1.078-.193a5.016,5.016,0,0,1-1.351.051c-.579-.1-.662-.352-1.223-.347-.87.009-.278.3-1.365.374-.879-.39-1.054-1.062-1.64-1.669-.642.517-.4.759-1.37.958-1.39.285-.977.046-2.063.721-.583.363-.968.6-1.549.993-.668.45-1.074.805-1.571,1.14l.288,2.4a11.11,11.11,0,0,0-1.652,1.258c.177,1.394,1.051,1.433,1.092,3.246.035,1.542-1.321,1.4-2.635,1.757-.106.286-.242.568-.325.866l-.072.805c.114.932,1.123.259,2.126,1l1.663,1.06c.057.594-1.026,3.48-.905,7.594.966-.17,1.934-1.879,2.583-.109.068.186.07.274.14.461l.139.324a1.01,1.01,0,0,0,.08.163,3.416,3.416,0,0,0,1.527-1.036c0-1.25-.309-2.587.82-3.228,1.088.319.632.42,1.084,1.353.407.838,1.341.381,2.541,2.136.524.766.172.905,0,1.867.373.018,1.523.182,1.66.167.922-.1.221-.438,1.291-.467.9.673-.006.615.87,1.254.681.5.811.07,1.134.99-.594,1.041-.77.32-1.314,1.173.357,1.453.782.39,1.727,1.369-.043.618.082.384-.638,1.169l-.215.237c1.257.21,2.71.041,3.323.813.775.977.509,1.768,2.386,1.774,2.341.007.978,1.062,2.512,1.524,2.452.738,1.7-.561,3.418-.6,1.051.913.366,1.595,1.729,2.02l.24-.448a2.315,2.315,0,0,1,.305-.5c.576-.836.319-.019.3-.972-.032-1.281.462-1,1.792-1.214.2-.977-.292-.855-.015-1.759.174-.568.666-.686,1.063-1.3,1.214-1.867-.465-1.637-.425-3.285.057-2.328,1.318-.3,1.4-3.135.055-2.012.661-1.8,2.16-2.576.2-.973-.089-1.745,1.017-1.845,1.008-.09,1.277.1,1.758-.848.986-1.936-.082-1.766,2.259-2.216a2,2,0,0,0,.608-.183c1.135-.63.249-1.727-.125-1.9-.979-.466-2.317.489-2.84-1.093-.089-.268-.153-.856-.218-1.116a10.226,10.226,0,0,0-2.236-.407c-1.609-.063-.872-.2-1.8-.658-.717-.355-1.394-.075-1.87-.679s-.274-1.613-.356-2.385c-.581-.174-.992-.07-1.417-.347-.763-.5.074-.536-1.029-.934a5.207,5.207,0,0,1-2.473-1.23c-1.682-1.3-1.112-.572-2.473-.2-1.158.316-1.864-.727-2.25-1.331-.725-1.136-1.446-.956-1.643-2.137-.323-1.936-.022-1.225-1.513-2.136-.6-.368-1.111-1.836-2.064-1.138-.43.315-.9,1.991-1.312,2.606" transform="translate(-729.431 -482.426)" fill="#737272" fill-rule="evenodd"></path>
        <path d="M551.474,453.752a8.333,8.333,0,0,1-.781,1.072c.4,1.047,1.786,2.242.092,3.662-2.3,1.926-2.514-1.115-5.6,2.021-1.912,1.94-1.664-.317-3.2,1.88-.559.8-.453.732-1.3,1.177.02,1.523.783,1.34,1.259,2.574,1.926,4.99-.978,2.809-1.238,4.755.221,1.692,1.5,1.01,1.069,2.829-.958.217-1.6-.054-2.5.412-1.173.9.469,2.409-2.315,4.538-.9.688-.427.308-.958,1.385-.806,1.636-1.889,1.145-2.38,2.143-.651,1.323.789,2.075.358,3.866-.586.376-1.046.256-1.721.616,1.186,1.819,1.745.808,3.747.917a5.4,5.4,0,0,0,2.247.018,4.641,4.641,0,0,1,2.267.128l.345-.9c.624-1.614,1.556.272,2.392.062.651-.477.476-.619.934-1.123,1.073.028,1.383.543,2.3,1.043,1.537.84.818.239,1.709,1.583.619.1,2.076-.012,2.1,2.042,0,.155-.14.977.057,1.162,1.068.623,1.136-.733,1.642-1.621.583-1.022,1.439-.705,2.562-1.34,2.089-1.181,1.7.49,6.549.529a5.884,5.884,0,0,1,.774-2.795c.307-.739.394-1.717.814-2.707,3.956-1,1.955.985,4.1.776.155-.672-.27-1.874-.073-3.064.377-.229.636-.233,1.042-.467.789-.453.452-.86,1.97-1.147.611-.115.968-.064,1.333-.474-.267-.152.026-.076-.433-.123-.836-.085-.794.21-1.431-.193-3.086-1.958.207-3.921,3.126-1.338.416-.324.342-.213.6-.7-1.289-1.251-.947-.583-2.51-1.168-.683-.256-.564-.621-1.079-.867-.695-.331-.84.028-1.77-.185-.962-1.62.3-2.126-.207-3.995-.046-.034-.129-.116-.157-.07s-.119-.051-.158-.066l-.756-.264a3.812,3.812,0,0,1-1.886-2.785c-1.244.174-1.054,1.692-2.59,1.039-1.4-.6-.843-1.507-1.348-2.575-.306-.647-.378-.155-.85-1.114-1.886-3.829-.741-1.794-.731-4.592-2.849-2.487-3.649-.871-3.363-3.748.4-3.99,2.246-1.662,2.716-4.58-.537.308-.954.665-1.563,1.04-2.291,1.409-.6,2.514-3.157,1.581Z" transform="translate(-455.185 -386.539)" fill="#737272" fill-rule="evenodd"></path>
        <path d="M619.109,632.739c0,.96.439,2.471.087,3.074-1.117.892-2.11-.18-2.564-.827-2.509.427-1.535.12-2.185,2.3-.21.705-.525.786-.685,1.476-.207.891.048,1.273-.424,1.954-2,.633-5.076-1.016-6.032-.779-.378.094-.583.406-1.185.579-1.022.293-1.442-.314-2.743,2.906a3.1,3.1,0,0,1-1.981-.444c-.1-.967.265-1.409-.037-2.138-.487-1.178-.959-.407-1.759-.975-.617-.438-.108-.582-.85-1.109l-2.285-1.289-.576.658c-.916.917-1.577.108-2.581-.225-.143,1.8.737.427.769,2.163.024,1.3-.734.891-1.2,1.828,1.449.535,1.259-.48,2.553.192.167.843-.489,1.428-1.162,1.813-.015,1.623.267,1.746-.882,2.618a14.079,14.079,0,0,0,1.125,1.346c.952-.239,2.021-1.513,4.41.692,2.634,2.431,2.179.078,4.193.167.833.588,1.08,1.547,1.676,2.378,1.2,1.669.209,2.011.819,3.482l1.154,2.952c.7,2.5-.371.987,1.253,3.05a4.985,4.985,0,0,0,.879,1.075c.35.262,3.2,1.43,2.773,3.581-.234,1.18-.472-.191-.066,1.528.256,1.083-.076.85-.314,1.613-.456,1.458,1.493,1.32,2.695,1.167a2.684,2.684,0,0,1,.05-2.875l1.383.161c-.109-1.5-.97-1.107-.223-2.526,1.321-.168,1.426.432,2.691,2.442.464.737.137.728,1.069.706.761-1.1-.553-.913,1.067-2.077.186-.134,2.495-2.844,3.362.97.112.5.084.9.2,1.372.159.621.321.541.4,1.279-.527.522-.766.311-.766,1.36a16.452,16.452,0,0,0,.226,1.921c.446-.21.182-.229.549-.574.467-.439-.181-.308.829-.318.411.586.226.761.54,1.289.823-1.507-.212-.92-.355-2.109,1-1.257,1.258-.181,2.775-.233-.244-1.7-.322-.831.638-2.021.808-1-.153-.413,1.229-1.127.041-.021.1-.045.135-.067.9-.513.218-.973.054-1.375-.742-1.82,1.064-2.874-.528-4.63-1.472,1.517-2.1.187-3.52-.3-1.047,1.41-1.686,1.655-2.272.072-.563-1.519-.63-1.445.717-2.567a7.864,7.864,0,0,1,.109-1.717c.155-.9-.071-.965.083-1.866l1.723-.249c-.354-1.9-.5-4.241-.716-6.237a23.238,23.238,0,0,0-.722-2.812c-.409-2.059,1.523-8.325,3.889-10.188,1.392-1.1.925-.056,1.473-2.226-1.678-1.894-3.162.378-4.242-1.038-.5-.572-.128-.914-.094-1.72a5.542,5.542,0,0,0-.331-1.736c-2.232.975-1.437,2.27-2.618,2.665-.851.285-1.237,0-1.976.565-.9.688-.358.663-1.712.975" transform="translate(-507.034 -537.528)" fill="#737272" fill-rule="evenodd"></path>
        <path d="M591.349,2352.077a4.536,4.536,0,0,0-1.7-2.236c-1.69-.158-.7-.332-1.985-.9-2.984-1.313.132-1.788-4.353-1.094,1.022,1.879,1.745,2.033,2.272,4.935a7.192,7.192,0,0,0,.894,2.828c.713,1.318.61,1.04,2.024,1.516.952.321,1.294,1.124,1.856,1.838a11.281,11.281,0,0,0,1.872,1.84c1.846,1.452.127,2.508,2.236,4.942.754-.324.727-.577,1.239-1.151,1.27.108,1.536.852,1.521,2.1-.429.34-.9.436-1.45.829-.2,2.124.612,1.726,1.363,2.844.7,1.049.108,2.142.742,3.564.584,1.31-.028,2.039.915,3.384.708,1.01.8,1.634,1.39,2.634.528.4-.207,0,.357.086l.277.021c.626.1.641-.082,1.337,1.33.525,1.066,1.341,1.4,1.145,2.479-1.077.2-1.677-.409-2.459-.718a9.633,9.633,0,0,0,1.414,3.219c1.369,2.315-.22,5.535,1.78,7.412,1.331,1.249.939,1.757.428,3.235.715,1.174,1.437.939,1.762,2.56.314,1.568,2.5,3.008,4.205,4.43a11.574,11.574,0,0,1,1.042,1.112c.634.6.8.264,1.736.437.711,1.385-.154,1.281,1.32,2.371a5.948,5.948,0,0,1,1.006.961l.625.47c.02.008.089.013.106.017.427.111.458-.824.458-.825l.47-2.213c.4-1.579-.541-1.4-.624-2.894l1.142-1.538c-.28-.915-.41-.495-.84-1.213-1.211-2.026,1.036-1.961,1.295-4.086.3-2.472.338-1.26,1.264-2.663a1.7,1.7,0,0,0-.64-2.689c-.765.548-.669.91-1.836.735-.408-1.3-.227-1.189.3-2.181.552-1.034.34-1.017.264-2.039-.07-.952.355-1.425.334-2.29-.024-.98-.483-.918-.61-1.955.628-.718.959-.465,1.209-1.564-2.485-2.4-3.324,3.323-6.221-.092-1.285-1.514.6-1.6-.337-3.583-.889-1.87.494-1.394,1.186-2.777-.571-1.413-1.445-1.062-2.746-1.714-2.026-1.015.364-2.624.364-2.624-.333-2.311-2.121-1.145-2.612-2.77-.341-1.13.042-1.172-.925-1.8a9.92,9.92,0,0,1-1.52-1.021c-1.116-1.1-.6-3.086-1.489-3.986-.812-.82-1.206.033-1.932-.805-.269-.31-.567-1.266-.83-1.678-1.611-.212-1.282.811-4.037.057l-.157-1.554c-1.348-.363-1.947.056-2.824-1.1-.9-1.181-.524-.958-1.85-1.868-1.007-.691-.928-1.069-1.177-2.571" transform="translate(-498.854 -2007.628)" fill="#737272" fill-rule="evenodd"></path>
        <path d="M2115.531,1178.206c.213,1.434.254,1.789-.751,2.619-1.24,1.023-1.493.128-2.243-.493-.528.486-1.594,2.079-1.286,3.235.206.776.579.712.644,1.684.073,1.091-.325,1.061-.939,1.537-.151,2.145.234,1.068.389,3.988,1.11.653,1.073,1.466,1.1,2.855.054,2.542,1.813,2.164,1.724,4.891-.033,1.018-.395.853-.619,1.644-.36,1.264.891,1.848,1.5,2.684,1.12,1.551.152,2.194.536,3.364.183.557.627.9.78,1.408.246.809-.115,1.049-.218,1.716-.2,1.276.761,1.9.8,3.447.031,1.374-.278,3.07,1.129,2.8l.4-1.853a2.513,2.513,0,0,1,2.191,1.432l1.481.031c.166-1.076-.042-1.9.587-2.765.323-.444,1.23-1.339,1.289-2,.07-.794-.656-1.492-.574-2.714.11-1.655.592-.978-.138-2.758-.443-1.081-.134-1.687-.586-2.736-2.538-5.889,2.067-3.909,2.808-5.617a5.537,5.537,0,0,0-.218-3.429c-.691-1.173-1-1.236-.168-2.773s.091-1.226.03-3.018a13.848,13.848,0,0,1,.191-3.675c-.571-.366-1.521-1.346-1.821-1.48-1.136-.511-1.812.419-2.953.245-2.39-.365-1.15-3.052-1.593-4.872-.741.642-.2.754-1.45.784l-.572-1.1c-.016-.032-.055-.1-.068-.121a.806.806,0,0,0-.07-.119c-.449.381-.922.783-1.308,1.158" transform="translate(-1805.278 -1006.622)" fill="#737272" fill-rule="evenodd"></path>
        <path d="M1906.635,1019.85c-.481.5-.165.091-.407.725-.665,1.742-.375.211-1.4,1.173-.337.316-.008.388-.648.72-1.044.542-1.6-.115-2.117-.2-.735-.124-.912.495-1.953.362-.5-.5-.39-.966-.709-1.62-1.182.445-.566,1.208-1.955,1.141l-.587-1.261c-4.841.978-2.411.915-3.9,1.477a5.033,5.033,0,0,1-1.48.1c-1.781,3.94.125,3.157.152,4.4.02.93-1.317,1.235-1.718,2.075-.273.572.016.344-.454.885-.641.738-1.166.51-.388,2.475.388.982-.038.482.587.856,1.056.531,1.115-.393,2.327.143.682.3.935.945,1.853.87,4.189-.345,1.549-.089,5.235.121,3.311-3.243,2.922,1.231,6.2-1.161,1.3-.95,2.119-.2,3.395.31a14.46,14.46,0,0,0,4.228.33c.821-.177,0-1.257,1.5-1.194.926.039,1.531.128,2.6.093.758-.848.552-1.917,2.135-1.282.395-1.569,1.275-1.12,1.809-1.946a3.228,3.228,0,0,0-.075-2.884c-.73.353-1.328.61-1.874-.145-.422-.612.128-.843.357-1.306.3-.6,0-1.079-.143-1.828-1.558-.233-1.885-.986-2.39-1-1.146-.036-.67,1.169-2.556.883a3.99,3.99,0,0,1-1.3-2.14c.419-.6.251-.352.933-.8-.868-1.971-.147-2.106-1.589-2.5-.562.471-.543.9-.974,1.338-.607.623-1.119.4-1.934.6-1.253.3-.452.669-1.343,1.019-.849.334-.595-.5-1.42-.815" transform="translate(-1615.215 -870.355)" fill="#737272" fill-rule="evenodd"></path>
        <path d="M2176.99,1045.155c.511,1.377.041,1.423-.58,2.206-.788.993-.064,1.35-.477,2.438-1.909.3-.462-1.424-3.2-.843-.6,2.3-.494,1.917-1.793,3.264a21.064,21.064,0,0,1-.1,2.647c-.222.779-.878.909-1.2,1.582-.47.994.25,1.121.265,2.182.013.994-.61,1.3-1.071,1.949.174.926.456.908.448,1.952-.005.627-.741,3.218,1.024,3.448.6.079,1.237-.388,2.124-.382,1.767.014,1.881,1.744,3.117,1.745a7.168,7.168,0,0,1,1.97-.362c1.363.077.937.414,1.753.831.592-.161.62-.357,1.189-.37.962-.022.606.3,1.246.516,1.181.408,1.708-.586,2.25-1.122-.224-.428-.842-.828-.383-1.947.348-.848.691-.644.814-1.96.383-4.128.506-2.533,1.646-3.8.855-.948-.307-2.393,1.341-4.138.72-.763.693-.8.708-2.036a22.646,22.646,0,0,0,.091-2.485c-1.061-.514-1.666-.349-1.853-2.029-.189-1.7.2-2.054,1.434-2.476l-.342-.347c-2.672-2.233-.388-2.425-.534-4.031-1.811.826-1.846,4.1-4.875,3.375l-.648-.059c-1.215-.066-2.073-1.609-4.371.248" transform="translate(-1854.809 -890.776)" fill="#737272" fill-rule="evenodd"></path>
        <path d="M2187.82,909.672c-.9,1.635.832.438-1.641,4.237-.783,1.2.24,3.414-.367,4.715-1.547.389-1.459-.514-2.767-.191a13.419,13.419,0,0,0-.579,1.731c-.306.707-.875.753-1.234,1.31-.464.722-.044,1.2-.766,1.777s-.726.1-1.421,1.086l.39.363c.6.576.555.7.641,1.64a3.383,3.383,0,0,0,1.085,2.341c1.991-.173,1.453-.609,2.942.657-.008-1.083-.088-1.332.6-2.055,1.055-1.115.349-.585.418-1.969a3.186,3.186,0,0,1,2.49-1.285,4.516,4.516,0,0,1,1.794.314c1.176.325.155-.009,1.342-.2l.544.745c2.762-.653,2.5-3.34,4.344-3.692,2.409,1.832-2.29,2.817,1.564,4.568,1.451-.768,1.5-2.161,1.884-2.86,1.437-2.623.156-2.171.71-4.375.226-.9.824-1.292.61-2.47a15.686,15.686,0,0,1-.477-2.665c-.146-1.857-2.589-2.622-.024-4.341,1.026-.688,1.493-.453,1.7-1.725-3.268,1.074-1.916-1.926-2.054-2.347-1.06-1.29-.678-.073-.855-2.138-.2-2.381-2.453-.359-3.251.376a20.824,20.824,0,0,1-1.72,1.412c-4.554,3.473-2.772,4.772-3.684,5.313-.748.444-1.281-.666-2.209-.271" transform="translate(-1863.537 -771.155)" fill="#737272" fill-rule="evenodd"></path>
        <path d="M2024.512,1182.609a12.978,12.978,0,0,1,.015,2.943c-1.138.195-2.29-1.4-3.912.809-.505.688-.052.62-1.093.813-3.562.66-2.237,1.825-3.193,4.653-1.178,3.483-1.277,2.882.691,5.412,2.368,3.044.914,3.332,1.719,5.122.327.727.19.379.446.575.692-1.092-.33-1.437.731-2.275,1.579-.316,1.309,2.107,1.405,3.458,1.574.333,2.165.552,3.067-.713a3.4,3.4,0,0,0,.254-3.431c-.681-1.834-.4-1.7.8-2.94s.055-2.251.664-3.646c.729-.5,1.63-.319,2.162-.769.916-.777-.059-1.729.66-2.462.36-.367,1.273.121.262-1.964-.53-1.093-.157-1.631-.035-2.7-.549-.863-.793-.249-.921-1.575a4.478,4.478,0,0,0-.449-2.211c-1.41.227-.52.239-1.431.6a14.93,14.93,0,0,1-1.846.3" transform="translate(-1723.658 -1010.608)" fill="#737272" fill-rule="evenodd"></path>
        <path d="M1728.2,856.153c-.4,1.843,1.049,1.917,1.623,3.162-.062,2.077-1.961,1.226-2.038,3.907a19.257,19.257,0,0,0,.417,2.594c.122,1.107-.407,1.578-.786,2.3l2.394,4.139c1.087-.082.794-.305,1.968-.034a11.131,11.131,0,0,0,3.855-.429c1.013-.335,1.228-.025,2.241.034.436-.864.92-1.084,1.74-.426.491.394-.168.049.558.5a3.24,3.24,0,0,0,1.531-1.241c-.806-.758-2.2-.7-2.783-1.7-.637-1.106.246-.466-.846-1.477a1.5,1.5,0,0,1-.561-1.638c.328-2.13,1.346-.6-.008-3.079s2.755-3.68.313-6.37c-.653-.719-1.243-2.083-2.405-2.29-2-.356-2.1.885-3.049,1.52-1.19.8-2.706.148-4.165.534" transform="translate(-1477.301 -730.379)" fill="#737272" fill-rule="evenodd"></path>
        <path d="M485.271,2066.57c-.113-.7-.357-.258-.211-1.462.406-.444,1.037-.606.767-1.589a6.826,6.826,0,0,0-.8-1.727c-.6.082-.836.272-1.735.444-2.035.39-1.276.986-2.888-.728-.282-.3-.728-.728-1.041-1.021a14.337,14.337,0,0,1-2.63,1.689c.98,1.462.551,2.194,1.225,3.345.663,1.133.623,1.8,1.485,2.812a6.765,6.765,0,0,1,1.6,2.9c.611,1.676.353.038,1.825,2.468.694-.646.285-.809.717-1.427.464-.663.748-.231,1.1-.894.57-1.365-.091-2.22.226-3.459.158-.617.467-.737.366-1.354" transform="translate(-407.702 -1762.145)" fill="#737272" fill-rule="evenodd"></path>
        <path d="M806.4,817.112l.577,1.612c.84-.476.589-.658,1.23-1.154,1.231.138,1.254.96,2.737,1.058l.884-1.089a21.414,21.414,0,0,0-1.52-2.332,13.868,13.868,0,0,0-1.358-2.511l-1.279-.006a10.409,10.409,0,0,1,.035,1.235c-.107.8-.172.171-.184,1.14-.014,1.133-.408,1.415-1.122,2.047" transform="translate(-689.643 -695.019)" fill="#737272" fill-rule="evenodd"></path>
        <path d="M1311.88,1952.408c.976.072,1.212-.3,1.5-1.1.37-1.044.126-1.09-.242-1.915-.63-1.41,1.17-2.783.028-3.55a1.24,1.24,0,0,0-1.865.479c-.267.727.379,5.491.584,6.083" transform="translate(-1121.377 -1663.903)" fill="#737272" fill-rule="evenodd"></path>
        <path d="M428.648,1637.463l.2.787a16.008,16.008,0,0,1,2.038.487,14.805,14.805,0,0,0,1.869.711c.127-1.37-.2-.975-1-1.787-.861-.869-.5-1.029-.029-1.725-.924-.168-.983.134-1.637.628-.625.473-.905.383-1.442.9" transform="translate(-366.583 -1399.026)" fill="#737272" fill-rule="evenodd"></path>
        <path d="M1056.108,2442.282a2.6,2.6,0,0,0,1.108.757c.738.227,1.089.222,1.379-.306.227-.414-.439-3.552-2.487-.451" transform="translate(-903.192 -2087.502)" fill="#737272" fill-rule="evenodd"></path>
        <path d="M411.23,1598.791l.327,1.246,1.978.1c0-1.033.06-.162-.314-.954l-.373-.99a.968.968,0,0,0-.08-.134,3.588,3.588,0,0,0-1.538.729" transform="translate(-351.687 -1366.676)" fill="#737272" fill-rule="evenodd"></path>
        <path d="M783.378,625.5a2.076,2.076,0,0,0,1.255.984,2.538,2.538,0,0,0,1.049-.118c.846-.249.414-.007.714-.475-.546-.539-2-1.495-3.018-.391" transform="translate(-669.952 -534.5)" fill="#737272" fill-rule="evenodd"></path>
        <path d="M1290.18,1974.414l-.245.575c1.452,1.436,1.914.97,2.333.759l-.051-1.647c-.56.191-.164.288-.885.343-.781.059-.493-.276-1.151-.029" transform="translate(-1103.163 -1688.267)" fill="#737272" fill-rule="evenodd"></path>
        <path d="M31.367,1291.4c1.475.01,2.769-.157,2.935-1.39a2.176,2.176,0,0,0-2.354.716l-.482.551c-.022.027-.066.082-.1.123" transform="translate(-26.825 -1103.176)" fill="#737272" fill-rule="evenodd"></path>
        <path d="M1067.417,2520.276a1.941,1.941,0,0,0,1.61-.766l-.14-1.308a2.727,2.727,0,0,0-1.47,2.074" transform="translate(-912.864 -2153.587)" fill="#737272" fill-rule="evenodd"></path>
        <path d="M667.015,2471.439a2.775,2.775,0,0,0-.152-.666c-.118-.307-.112-.207-.258-.391-.567.287-.61.323-.86,1.055.621.342.526.26,1.269,0" transform="translate(-569.351 -2112.691)" fill="#737272" fill-rule="evenodd"></path>
      </g>
    </g>
    <g transform="translate(113 625)">
      <g transform="translate(3538.122 -2406.878)">
        <g transform="matrix(1, 0, 0, 1, -3538.12, 2406.88)" filter="url(#b)">
          <g transform="translate(38 204)" fill="#e4f8ff" stroke="#fff" stroke-width="0.5">
            <rect width="10" height="10" rx="5" stroke="none"></rect>
            <rect x="0.25" y="0.25" width="9.5" height="9.5" rx="4.75" fill="none"></rect>
          </g>
        </g>
        <g transform="matrix(1, 0, 0, 1, -3538.12, 2406.88)" filter="url(#d)">
          <rect width="6" height="6" rx="3" transform="translate(40 206)" fill="#41bfe7"></rect>
        </g>
      </g>
      <g transform="translate(3545.122 -2418.878)">
        <g transform="matrix(1, 0, 0, 1, -3545.12, 2418.88)" filter="url(#f)">
          <g transform="translate(45 192)" fill="#e4f8ff" stroke="#fff" stroke-width="0.5">
            <rect width="10" height="10" rx="5" stroke="none"></rect>
            <rect x="0.25" y="0.25" width="9.5" height="9.5" rx="4.75" fill="none"></rect>
          </g>
        </g>
        <g transform="matrix(1, 0, 0, 1, -3545.12, 2418.88)" filter="url(#h)">
          <rect width="6" height="6" rx="3" transform="translate(47 194)" fill="#41bfe7"></rect>
        </g>
      </g>
      <g transform="translate(3555.122 -2361.878)">
        <g transform="matrix(1, 0, 0, 1, -3555.12, 2361.88)" filter="url(#j)">
          <g transform="translate(55 249)" fill="#e4f8ff" stroke="#fff" stroke-width="0.5">
            <rect width="10" height="10" rx="5" stroke="none"></rect>
            <rect x="0.25" y="0.25" width="9.5" height="9.5" rx="4.75" fill="none"></rect>
          </g>
        </g>
        <g transform="matrix(1, 0, 0, 1, -3555.12, 2361.88)" filter="url(#l)">
          <rect width="6" height="6" rx="3" transform="translate(57 251)" fill="#41bfe7"></rect>
        </g>
      </g>
      <g transform="translate(3578.122 -2396.878)">
        <g transform="matrix(1, 0, 0, 1, -3578.12, 2396.88)" filter="url(#n)">
          <g transform="translate(78 214)" fill="#e4f8ff" stroke="#fff" stroke-width="0.5">
            <rect width="10" height="10" rx="5" stroke="none"></rect>
            <rect x="0.25" y="0.25" width="9.5" height="9.5" rx="4.75" fill="none"></rect>
          </g>
        </g>
        <g transform="matrix(1, 0, 0, 1, -3578.12, 2396.88)" filter="url(#p)">
          <rect width="6" height="6" rx="3" transform="translate(80 216)" fill="#41bfe7"></rect>
        </g>
      </g>
      <g transform="translate(3608.122 -2487.878)">
        <g transform="matrix(1, 0, 0, 1, -3608.12, 2487.88)" filter="url(#r)">
          <g transform="translate(108 123)" fill="#e4f8ff" stroke="#fff" stroke-width="0.5">
            <rect width="10" height="10" rx="5" stroke="none"></rect>
            <rect x="0.25" y="0.25" width="9.5" height="9.5" rx="4.75" fill="none"></rect>
          </g>
        </g>
        <g transform="matrix(1, 0, 0, 1, -3608.12, 2487.88)" filter="url(#t)">
          <rect width="6" height="6" rx="3" transform="translate(110 125)" fill="#41bfe7"></rect>
        </g>
      </g>
      <g transform="translate(3632.122 -2345.878)">
        <g transform="matrix(1, 0, 0, 1, -3632.12, 2345.88)" filter="url(#v)">
          <g transform="translate(132 265)" fill="#e4f8ff" stroke="#fff" stroke-width="0.5">
            <rect width="10" height="10" rx="5" stroke="none"></rect>
            <rect x="0.25" y="0.25" width="9.5" height="9.5" rx="4.75" fill="none"></rect>
          </g>
        </g>
        <g transform="matrix(1, 0, 0, 1, -3632.12, 2345.88)" filter="url(#x)">
          <rect width="6" height="6" rx="3" transform="translate(134 267)" fill="#41bfe7"></rect>
        </g>
      </g>
      <g transform="translate(3695.122 -2428.878)" style="isolation:isolate">
        <g transform="matrix(1, 0, 0, 1, -3695.12, 2428.88)" filter="url(#z)">
          <g transform="translate(195 182)" fill="#e4f8ff" stroke="#fff" stroke-width="0.5">
            <rect width="10" height="10" rx="5" stroke="none"></rect>
            <rect x="0.25" y="0.25" width="9.5" height="9.5" rx="4.75" fill="none"></rect>
          </g>
        </g>
        <g transform="matrix(1, 0, 0, 1, -3695.12, 2428.88)" filter="url(#ab)">
          <rect width="6" height="6" rx="3" transform="translate(197 184)" fill="#41bfe7"></rect>
        </g>
      </g>
    </g>
  </g>
</svg>
