<?xml version="1.0" encoding="UTF-8"?>
<svg xmlns="http://www.w3.org/2000/svg" xmlns:xlink="http://www.w3.org/1999/xlink" id="Group_38643" data-name="Group 38643" width="43.266" height="41.823" viewBox="0 0 43.266 41.823">
  <defs>
    <clipPath id="clip-path">
      <path id="Path_45075" data-name="Path 45075" d="M0-14.177H43.265V-56H0Z" transform="translate(0 56)" fill="none"></path>
    </clipPath>
  </defs>
  <g id="Group_38617" data-name="Group 38617" clip-path="url(#clip-path)">
    <g id="Group_38603" data-name="Group 38603" transform="translate(8.653 5.769)">
      <path id="Path_45061" data-name="Path 45061" d="M-4.4-4.4a.722.722,0,0,1-.307-.069l-12.259-5.769a.722.722,0,0,1-.414-.653.721.721,0,0,1,.414-.652l12.259-5.769a.724.724,0,0,1,.614,0L8.166-11.542a.721.721,0,0,1,.414.652.722.722,0,0,1-.414.653L-4.093-4.468A.722.722,0,0,1-4.4-4.4m-10.565-6.49L-4.4-5.917,6.165-10.89-4.4-15.862Z" transform="translate(17.379 17.38)" fill="#3db5e5"></path>
    </g>
    <g id="Group_38604" data-name="Group 38604" transform="translate(12.258 13.234)">
      <path id="Path_45062" data-name="Path 45062" d="M-3.178-3.825A.73.73,0,0,1-3.5-3.9l-8.653-4.326a.724.724,0,0,1-.4-.646v-5.514A.721.721,0,0,1-12.217-15a.724.724,0,0,1,.693-.044l8.347,3.928,8.346-3.928A.722.722,0,0,1,5.861-15a.72.72,0,0,1,.335.609v5.514a.724.724,0,0,1-.4.646L-2.855-3.9a.73.73,0,0,1-.323.075M-11.11-9.318l7.932,3.966L4.755-9.318V-13.25L-2.871-9.662a.718.718,0,0,1-.614,0L-11.11-13.25Z" transform="translate(12.552 15.107)" fill="#3db5e5"></path>
    </g>
    <g id="Group_38605" data-name="Group 38605" transform="translate(20.912 11.538)">
      <path id="Path_45063" data-name="Path 45063" d="M-4.4-.489H-16.658a.721.721,0,0,1-.721-.721.721.721,0,0,1,.721-.721H-4.4a.721.721,0,0,1,.721.721A.722.722,0,0,1-4.4-.489" transform="translate(17.379 1.931)" fill="#3db5e5"></path>
    </g>
    <g id="Group_38606" data-name="Group 38606" transform="translate(33.17 11.537)">
      <path id="Path_45064" data-name="Path 45064" d="M-.245-2.689A.722.722,0,0,1-.966-3.41V-9.9a.722.722,0,0,1,.721-.721A.722.722,0,0,1,.477-9.9V-3.41a.722.722,0,0,1-.721.721" transform="translate(0.966 10.621)" fill="#3db5e5"></path>
    </g>
    <g id="Group_38607" data-name="Group 38607" transform="translate(20.912 10.095)">
      <path id="Path_45065" data-name="Path 45065" d="M-.244-1.467a.721.721,0,0,1-.721-.721V-5.072a.721.721,0,0,1,.721-.721.721.721,0,0,1,.721.721v2.884a.722.722,0,0,1-.721.721" transform="translate(0.965 5.793)" fill="#3db5e5"></path>
    </g>
    <g id="Group_38608" data-name="Group 38608" transform="translate(31.728 18.027)">
      <path id="Path_45066" data-name="Path 45066" d="M-.244-1.222a.719.719,0,0,1-.4-.121.721.721,0,0,1-.2-1L.6-4.507a.719.719,0,0,1,1-.2.721.721,0,0,1,.2,1L.356-1.544a.72.72,0,0,1-.6.321" transform="translate(0.964 4.829)" fill="#3db5e5"></path>
    </g>
    <g id="Group_38609" data-name="Group 38609" transform="translate(33.17 18.027)">
      <path id="Path_45067" data-name="Path 45067" d="M-.733-1.222a.72.72,0,0,1-.6-.321L-2.776-3.706a.721.721,0,0,1,.2-1,.719.719,0,0,1,1,.2L-.135-2.343a.721.721,0,0,1-.2,1,.719.719,0,0,1-.4.121" transform="translate(2.897 4.829)" fill="#3db5e5"></path>
    </g>
    <g id="Group_38610" data-name="Group 38610" transform="translate(20.912 17.306)">
      <path id="Path_45068" data-name="Path 45068" d="M-.244-1.222a.721.721,0,0,1-.721-.721V-4.107a.721.721,0,0,1,.721-.721.722.722,0,0,1,.721.721v2.163a.722.722,0,0,1-.721.721" transform="translate(0.965 4.828)" fill="#3db5e5"></path>
    </g>
    <g id="Group_38611" data-name="Group 38611" transform="translate(0 0)">
      <path id="Path_45069" data-name="Path 45069" d="M-14.421-9.288H-56.244a.721.721,0,0,1-.721-.721V-33.8A2.889,2.889,0,0,1-54.08-36.69h37.5A2.889,2.889,0,0,1-13.7-33.8v23.8a.721.721,0,0,1-.721.721m-41.1-1.442h40.381V-33.8a1.445,1.445,0,0,0-1.443-1.443h-37.5A1.444,1.444,0,0,0-55.523-33.8Z" transform="translate(56.965 36.69)" fill="#0f3863"></path>
    </g>
    <g id="Group_38612" data-name="Group 38612" transform="translate(0 25.959)">
      <path id="Path_45070" data-name="Path 45070" d="M-13.688-2.444h-37.5a2.888,2.888,0,0,1-2.885-2.885V-8.934a.721.721,0,0,1,.721-.721h41.823a.721.721,0,0,1,.721.721v3.605a2.888,2.888,0,0,1-2.885,2.885M-52.626-8.213v2.884a1.444,1.444,0,0,0,1.443,1.443h37.5a1.444,1.444,0,0,0,1.443-1.443V-8.213Z" transform="translate(54.068 9.655)" fill="#0f3863"></path>
    </g>
    <g id="Group_38613" data-name="Group 38613" transform="translate(18.748 28.844)">
      <path id="Path_45071" data-name="Path 45071" d="M-1.711-.489H-6.038a.722.722,0,0,1-.721-.721.721.721,0,0,1,.721-.721h4.326A.721.721,0,0,1-.99-1.21a.721.721,0,0,1-.721.721" transform="translate(6.759 1.931)" fill="#0f3863"></path>
    </g>
    <g id="Group_38614" data-name="Group 38614" transform="translate(2.885 2.884)">
      <path id="Path_45072" data-name="Path 45072" d="M-12.466-8.311H-48.52a.721.721,0,0,1-.721-.721V-32.107a.721.721,0,0,1,.721-.721h36.055a.721.721,0,0,1,.721.721V-9.031a.721.721,0,0,1-.721.721M-47.8-9.753h34.612V-31.385H-47.8Z" transform="translate(49.241 32.828)" fill="#0f3863"></path>
    </g>
    <g id="Group_38615" data-name="Group 38615" transform="translate(10.095 37.497)">
      <path id="Path_45073" data-name="Path 45073" d="M-7.088-1.467H-25.837A2.166,2.166,0,0,1-28-3.63a2.166,2.166,0,0,1,2.163-2.163H-7.088A2.165,2.165,0,0,1-4.926-3.63,2.166,2.166,0,0,1-7.088-1.467M-25.837-4.351a.722.722,0,0,0-.721.721.722.722,0,0,0,.721.721H-7.088a.722.722,0,0,0,.721-.721.722.722,0,0,0-.721-.721Z" transform="translate(28 5.793)" fill="#0f3863"></path>
    </g>
    <g id="Group_38616" data-name="Group 38616" transform="translate(12.98 31.728)">
      <path id="Path_45074" data-name="Path 45074" d="M-5.622-2.444H-21.486a.722.722,0,0,1-.721-.721.721.721,0,0,1,.721-.721c2.392,0,3.605-1.7,3.605-5.048a.721.721,0,0,1,.721-.721h7.211a.721.721,0,0,1,.721.721c0,3.35,1.213,5.048,3.606,5.048a.721.721,0,0,1,.721.721.721.721,0,0,1-.721.721M-17.973-3.886h8.84A6.9,6.9,0,0,1-10.65-8.213h-5.808a6.907,6.907,0,0,1-1.515,4.326" transform="translate(22.207 9.655)" fill="#0f3863"></path>
    </g>
  </g>
</svg>
