<?xml version="1.0" encoding="UTF-8"?>
<svg xmlns="http://www.w3.org/2000/svg" xmlns:xlink="http://www.w3.org/1999/xlink" id="Group_38644" data-name="Group 38644" width="40.8" height="40.8" viewBox="0 0 40.8 40.8">
  <defs>
    <clipPath id="clip-path">
      <path id="Path_45011" data-name="Path 45011" d="M0-15.2H40.8V-56H0Z" transform="translate(0 56)" fill="none"></path>
    </clipPath>
  </defs>
  <g id="Group_38547" data-name="Group 38547" clip-path="url(#clip-path)">
    <g id="Group_38542" data-name="Group 38542" transform="translate(4.862 30.76)">
      <path id="Path_45006" data-name="Path 45006" d="M-3.86-.594a.8.8,0,0,0,.8-.8.8.8,0,0,0-.8-.8h-9.562a.8.8,0,0,0-.8.8.8.8,0,0,0,.8.8Z" transform="translate(14.219 2.188)" fill="#0f3863"></path>
    </g>
    <g id="Group_38543" data-name="Group 38543" transform="translate(0 0)">
      <path id="Path_45007" data-name="Path 45007" d="M-14.992-7.821-23.9-10.6a.8.8,0,0,0-.256-.043h0a.818.818,0,0,0-.256.042l-1.185.37V-21a.792.792,0,0,0-.233-.563l-7.012-7.012a.791.791,0,0,0-.563-.234H-52.842a2.393,2.393,0,0,0-2.39,2.39v21.6a.8.8,0,0,0,.8.8.8.8,0,0,0,.8-.8v-21.6a.8.8,0,0,1,.8-.8H-34.2v4.731a2.284,2.284,0,0,0,2.28,2.281h4.732V-9.734l-6.128,1.913a.8.8,0,0,0-.56.761v.081h-15.7a.8.8,0,0,0-.8.8.8.8,0,0,0,.8.8h15.7v2.871h-15.7a.8.8,0,0,0-.8.8.8.8,0,0,0,.8.8h15.7V.393A11.762,11.762,0,0,0-31.7,7.207H-52.842a.8.8,0,0,1-.8-.8V-6.42a.8.8,0,0,0-.8-.8.8.8,0,0,0-.8.8V6.41a2.393,2.393,0,0,0,2.39,2.39h22.5A11.757,11.757,0,0,0-24.3,11.974a.8.8,0,0,0,.15.014.8.8,0,0,0,.15-.014A11.806,11.806,0,0,0-14.432.393V-7.06a.8.8,0,0,0-.56-.761M-31.921-21.8a.688.688,0,0,1-.687-.687v-3.6l4.292,4.292ZM-16.026.393a10.209,10.209,0,0,1-8.128,9.985A10.209,10.209,0,0,1-32.282.393V-6.473l8.128-2.538,8.128,2.538Z" transform="translate(55.232 28.812)" fill="#0f3863"></path>
    </g>
    <g id="Group_38544" data-name="Group 38544" transform="translate(24.543 21.508)">
      <path id="Path_45008" data-name="Path 45008" d="M-2.346-.013-8.083,1.778a.8.8,0,0,0-.56.761V7.647a8.625,8.625,0,0,0,6.323,8.3.8.8,0,0,0,.211.028.8.8,0,0,0,.211-.028,8.624,8.624,0,0,0,6.323-8.3V2.539a.8.8,0,0,0-.56-.761L-1.871-.013a.8.8,0,0,0-.475,0M2.832,3.124V7.647a7.027,7.027,0,0,1-4.94,6.7,7.027,7.027,0,0,1-4.94-6.7V3.124l4.94-1.542Z" transform="translate(8.643 0.05)" fill="#3db5e5"></path>
    </g>
    <g id="Group_38545" data-name="Group 38545" transform="translate(27.731 26.894)">
      <path id="Path_45009" data-name="Path 45009" d="M-.507-.619a.8.8,0,0,0-1.127,0,.8.8,0,0,0,0,1.127L.2,2.344a.8.8,0,0,0,1.127,0L4.593-.92a.8.8,0,0,0,0-1.127.8.8,0,0,0-1.127,0L.766.654Z" transform="translate(1.867 2.28)" fill="#3db5e5"></path>
    </g>
    <g id="Group_38546" data-name="Group 38546" transform="translate(9.324 7.808)">
      <path id="Path_45010" data-name="Path 45010" d="M-2.91,0H-6.734a.8.8,0,0,0-.8.8v2.39h-2.39a.8.8,0,0,0-.8.8V7.809a.8.8,0,0,0,.8.8h2.39V11a.8.8,0,0,0,.8.8H-2.91a.8.8,0,0,0,.8-.8V8.607H.278a.8.8,0,0,0,.8-.8V3.985a.8.8,0,0,0-.8-.8h-2.39V.8a.8.8,0,0,0-.8-.8m2.39,4.782V7.012H-2.91a.8.8,0,0,0-.8.8V10.2H-5.937V7.809a.8.8,0,0,0-.8-.8h-2.39V4.782h2.39a.8.8,0,0,0,.8-.8V1.594h2.231v2.39a.8.8,0,0,0,.8.8Z" transform="translate(10.719)" fill="#3db5e5"></path>
    </g>
  </g>
</svg>
