<?xml version="1.0" encoding="UTF-8"?>
<svg xmlns="http://www.w3.org/2000/svg" xmlns:xlink="http://www.w3.org/1999/xlink" id="Group_38642" data-name="Group 38642" width="41.823" height="22.947" viewBox="0 0 41.823 22.947">
  <defs>
    <clipPath id="clip-path">
      <path id="Path_45051" data-name="Path 45051" d="M0-7.778H41.823V-30.725H0Z" transform="translate(0 30.725)" fill="none"></path>
    </clipPath>
  </defs>
  <g id="Group_38590" data-name="Group 38590" clip-path="url(#clip-path)">
    <g id="Group_38587" data-name="Group 38587" transform="translate(12.42 0)">
      <path id="Path_45048" data-name="Path 45048" d="M-5.006-.732A7.628,7.628,0,0,0-13.473-2.2,7.59,7.59,0,0,0-15.223-.988c0-.415-.013-.772.005-1.128.011-.22-.047-.285-.275-.282q-2,.017-4,0c-.229,0-.277.07-.277.285q.009,10.946,0,21.893c0,.232.077.275.289.273,1.366-.008,2.732-.013,4.1,0,.271,0,.353-.053.352-.342-.014-2.182-.008-4.364-.008-6.545v-.4a7.432,7.432,0,0,0,1.412,1.049,7.02,7.02,0,0,0,7.09-.182A8.209,8.209,0,0,0-2.354,6.845,8.955,8.955,0,0,0-5.006-.732m-6.076,10.767A4.014,4.014,0,0,1-15.149,5.9a4.018,4.018,0,0,1,4.082-4.152A3.987,3.987,0,0,1-7.014,5.883a3.988,3.988,0,0,1-4.067,4.152" transform="translate(19.774 2.891)" fill="#263077"></path>
    </g>
    <g id="Group_38588" data-name="Group 38588" transform="translate(32.552 4.146)">
      <path id="Path_45049" data-name="Path 45049" d="M-1.574-3.141A4.623,4.623,0,0,1-6.217-7.749a4.644,4.644,0,0,1,4.632-4.659A4.635,4.635,0,0,1,3.054-7.792,4.616,4.616,0,0,1-1.574-3.141" transform="translate(6.217 12.408)" fill="#14bcef"></path>
    </g>
    <g id="Group_38589" data-name="Group 38589" transform="translate(0 4.146)">
      <path id="Path_45050" data-name="Path 45050" d="M-1.569-3.141A4.609,4.609,0,0,1-6.2-7.819a4.632,4.632,0,0,1,4.63-4.589,4.65,4.65,0,0,1,4.64,4.654A4.631,4.631,0,0,1-1.569-3.141" transform="translate(6.199 12.408)" fill="#14bcef"></path>
    </g>
  </g>
</svg>
