<?xml version="1.0" encoding="UTF-8"?>
<svg xmlns="http://www.w3.org/2000/svg" xmlns:xlink="http://www.w3.org/1999/xlink" id="Group_38502" data-name="Group 38502" width="61.665" height="60" viewBox="0 0 61.665 60">
  <defs>
    <clipPath id="clip-path">
      <rect id="Rectangle_4148" data-name="Rectangle 4148" width="61.665" height="60" fill="#0d3461"></rect>
    </clipPath>
  </defs>
  <g id="Group_38501" data-name="Group 38501" clip-path="url(#clip-path)">
    <path id="Path_44714" data-name="Path 44714" d="M25.422,59.88a3.507,3.507,0,0,1-1.085-.241,6.017,6.017,0,0,1-2.409-3.012,2.476,2.476,0,0,1-2.048-.483,3.2,3.2,0,0,1-1.446-2.168,3.44,3.44,0,0,1-2.771-.482,3.412,3.412,0,0,1-1.085-2.168c-1.807.241-2.53-.482-2.891-1.085a3.194,3.194,0,0,1,.361-3.614c1.567-1.325,3.133-2.651,4.7-4.1C19.639,40,22.771,37.35,25.783,34.7a.631.631,0,0,1,.482-.24l1.687-.12c1.928-.241,4.1,1.807,5.663,3.252l.361.361a1.463,1.463,0,0,0,1.807.122c.6-.483.482-1.446-.241-2.53a6.756,6.756,0,0,1-.6-.964,16.913,16.913,0,0,0-1.446-2.169c-.964-1.2-4.337-2.53-5.542-2.891-2.892-.964-4.7,0-4.819.12l-6.627,3.976a.726.726,0,0,1-.482.12l-2.771.241a.905.905,0,1,1-.12-1.807l2.53-.242,6.506-3.854c.241-.121,2.53-1.446,6.385-.362.482.241,4.82,1.687,6.386,3.494a16.562,16.562,0,0,1,1.566,2.41,6.754,6.754,0,0,0,.6.964c1.445,2.289.843,3.976-.121,4.819a3.282,3.282,0,0,1-4.217-.12l-.361-.362c-1.085-.965-3.253-2.892-4.338-2.771l-1.325.121c-3.012,2.53-5.9,5.18-8.8,7.71l-4.7,3.976a1.684,1.684,0,0,0,0,1.326c.241.361.964.361,1.928,0a1.057,1.057,0,0,1,.843.12,1.3,1.3,0,0,1,.362.843c-.121.362-.121,1.446.482,1.808a2.419,2.419,0,0,0,2.048,0,.568.568,0,0,1,.723.119.816.816,0,0,1,.482.723c0,.362.12,1.447.722,1.807.362.241.844.121,1.567-.119.241-.122.482,0,.723.119a.816.816,0,0,1,.482.724,3.422,3.422,0,0,0,1.445,2.529.712.712,0,0,0,.844-.119L28.916,55.9l.482-.361a.805.805,0,0,1,1.2.12.945.945,0,0,1-.121,1.325L30,57.349,26.988,59.4a2.419,2.419,0,0,1-1.566.482M44.217,46.627a.859.859,0,0,1-.723-.361.945.945,0,0,1,.121-1.326l4.578-3.253a.805.805,0,0,1,1.2.121.954.954,0,0,1-.121,1.325L44.7,46.386a.913.913,0,0,1-.482.241" fill="#0d3461" fill-rule="evenodd"></path>
    <path id="Path_44715" data-name="Path 44715" d="M12.771,48.072a.443.443,0,0,1-.361-.12L8.434,46.144a.986.986,0,0,1-.482-1.205,1.039,1.039,0,0,1,1.2-.481l4.1,1.927a.937.937,0,0,1,.361,1.205.805.805,0,0,1-.843.482" fill="#0d3461" fill-rule="evenodd"></path>
    <path id="Path_44716" data-name="Path 44716" d="M40,31.807a5.56,5.56,0,0,1-4.1-1.325A10.915,10.915,0,0,0,32.169,28.8c-.964-.241-2.892-.121-3.374.361a.856.856,0,1,1-1.325-1.084c1.084-1.446,3.976-1.325,5.181-.964a11.348,11.348,0,0,1,4.337,1.928c.964.723,1.566,1.084,4.94.843a.772.772,0,0,1,.964.723c.12.6-.241.964-.844,1.085-.723,0-1.446.12-2.048.12" fill="#0d3461" fill-rule="evenodd"></path>
    <path id="Path_44717" data-name="Path 44717" d="M43.374,51.325h-.482a3.251,3.251,0,0,1-2.048-1.205.944.944,0,0,1,.12-1.325.964.964,0,0,1,1.326.241c.12.241.482.361.843.482a1.3,1.3,0,0,0,.964-.241,1.22,1.22,0,0,0,.482-.844.937.937,0,0,0-.241-.963l-2.651-3.615a1.22,1.22,0,0,0-.843-.482.938.938,0,0,0-.964.241,1.22,1.22,0,0,0-.482.844.937.937,0,0,0,.241.963.981.981,0,0,1-.241,1.326.935.935,0,0,1-1.2-.241,3.018,3.018,0,0,1-.6-2.289A2.81,2.81,0,0,1,38.8,42.168a3.015,3.015,0,0,1,2.289-.6,3.251,3.251,0,0,1,2.048,1.2l2.651,3.614a3.018,3.018,0,0,1,.6,2.289,2.81,2.81,0,0,1-1.205,2.049,3.588,3.588,0,0,1-1.807.6" fill="#0d3461" fill-rule="evenodd"></path>
    <path id="Path_44718" data-name="Path 44718" d="M40.723,55.18a3.2,3.2,0,0,1-2.53-1.2l-4.578-6.024a3.085,3.085,0,0,1,.723-4.338,2.657,2.657,0,0,1,1.807-.723,3.141,3.141,0,0,1,2.53,1.326l4.458,6.024a2.981,2.981,0,0,1-.6,4.337,2.535,2.535,0,0,1-1.808.6M36.145,44.819a.885.885,0,0,0-.723.241,1.208,1.208,0,0,0-.241,1.807l4.458,6.024a1.173,1.173,0,0,0,1.084.482,1.706,1.706,0,0,0,.723-.241,1.207,1.207,0,0,0,.241-1.807L37.229,45.3a1.173,1.173,0,0,0-1.084-.482" fill="#0d3461" fill-rule="evenodd"></path>
    <path id="Path_44719" data-name="Path 44719" d="M36.868,57.59a.915.915,0,0,1-.482-.12,2.813,2.813,0,0,1-2.048-1.205.824.824,0,0,1,.241-1.2.806.806,0,0,1,1.205.12,1.042,1.042,0,0,0,.843.482,1.229,1.229,0,0,0,1.085-.241,1.438,1.438,0,0,0,.241-1.807.805.805,0,0,1,.12-1.2.944.944,0,0,1,1.325.121,3.346,3.346,0,0,1-.6,4.458,3.647,3.647,0,0,1-1.928.6m-5.542-6.024a1.093,1.093,0,0,1-.843-.361A3.39,3.39,0,0,1,30,48.795a3.05,3.05,0,0,1,1.2-2.048,3.1,3.1,0,0,1,4.337.723.8.8,0,0,1-.121,1.2.944.944,0,0,1-1.325-.12,1.35,1.35,0,0,0-1.807-.362,1.489,1.489,0,0,0-.482.964,1.061,1.061,0,0,0,.241.964.935.935,0,0,1-.241,1.205.913.913,0,0,1-.482.241" fill="#0d3461" fill-rule="evenodd"></path>
    <path id="Path_44720" data-name="Path 44720" d="M33.132,60a3.144,3.144,0,0,1-2.53-1.326l-3.614-4.939a3.024,3.024,0,0,1-.6-2.29,3.26,3.26,0,0,1,1.2-2.048,3.647,3.647,0,0,1,1.928-.6A2.966,2.966,0,0,1,31.928,50l3.735,4.939a3.347,3.347,0,0,1-.6,4.458,3.636,3.636,0,0,1-1.928.6m-3.614-9.4a1.736,1.736,0,0,0-.843.241,1.22,1.22,0,0,0-.482.843.936.936,0,0,0,.241.964l3.614,4.94a1.439,1.439,0,0,0,1.084.6,2.227,2.227,0,0,0,.844-.241,1.636,1.636,0,0,0,.241-1.927l-3.735-4.94a1.489,1.489,0,0,0-.964-.482" fill="#0d3461" fill-rule="evenodd"></path>
    <path id="Path_44721" data-name="Path 44721" d="M15.422,51.084a.915.915,0,0,1-.6-.241.944.944,0,0,1,0-1.325L19.036,45.3a.8.8,0,0,1,1.2,0,.944.944,0,0,1,0,1.325l-4.1,4.1a1.041,1.041,0,0,1-.723.361" fill="#0d3461" fill-rule="evenodd"></path>
    <path id="Path_44722" data-name="Path 44722" d="M19.157,53.735c-.241,0-.482,0-.6-.241a.8.8,0,0,1,0-1.2l3.373-3.373a.8.8,0,0,1,1.2,0,.946.946,0,0,1,0,1.325l-3.374,3.253c-.12.241-.361.241-.6.241" fill="#0d3461" fill-rule="evenodd"></path>
    <path id="Path_44723" data-name="Path 44723" d="M22.651,56.385a.915.915,0,0,1-.6-.24.945.945,0,0,1,0-1.326l1.927-1.928A.938.938,0,0,1,25.3,54.217l-1.928,1.928a1.7,1.7,0,0,1-.723.24" fill="#0d3461" fill-rule="evenodd"></path>
    <path id="Path_44724" data-name="Path 44724" d="M52.048,44.579a5.473,5.473,0,0,1-4.7-2.771L41.566,31.687a5.383,5.383,0,0,1,2.049-7.47l4.1-2.409a5.594,5.594,0,0,1,2.771-.723,5.47,5.47,0,0,1,4.7,2.771l5.783,10a5.657,5.657,0,0,1-2.048,7.59l-4.1,2.289a5.728,5.728,0,0,1-2.771.844M50.482,22.892a2.9,2.9,0,0,0-1.807.482l-4.217,2.41a3.58,3.58,0,0,0-1.325,4.939l5.783,10.121a3.365,3.365,0,0,0,3.132,1.807,3.129,3.129,0,0,0,1.807-.482l4.217-2.289A3.835,3.835,0,0,0,59.4,34.82L53.615,24.7a3.749,3.749,0,0,0-3.133-1.807" fill="#0d3461" fill-rule="evenodd"></path>
    <path id="Path_44725" data-name="Path 44725" d="M5.9,49.277a1.791,1.791,0,0,1-1.084-.241l-2.53-.843A3.3,3.3,0,0,1,.242,43.855l5.3-14.819A3.361,3.361,0,0,1,8.8,26.747a1.789,1.789,0,0,1,1.084.241l2.53.843a3.4,3.4,0,0,1,2.049,4.337l-5.3,14.82A3.525,3.525,0,0,1,5.9,49.277M8.8,28.554A1.715,1.715,0,0,0,7.23,29.638l-5.3,14.82a1.56,1.56,0,0,0,.963,2.048l2.531.843a.719.719,0,0,0,.481.121,1.716,1.716,0,0,0,1.567-1.085l5.3-14.819a1.662,1.662,0,0,0-.964-2.048l-2.53-.844a.728.728,0,0,0-.482-.12" fill="#0d3461" fill-rule="evenodd"></path>
    <path id="Path_44726" data-name="Path 44726" d="M53.374,39.518a2.994,2.994,0,0,1-2.651-1.566,3.572,3.572,0,0,1-.361-2.289,3.076,3.076,0,0,1,1.446-1.807,2.419,2.419,0,0,1,1.566-.482,3.141,3.141,0,0,1,2.651,1.566,3.847,3.847,0,0,1,.361,2.289,3.325,3.325,0,0,1-1.446,1.928,3.708,3.708,0,0,1-1.566.361m0-4.337a.915.915,0,0,0-.6.241c-.362.12-.482.361-.6.723a1.361,1.361,0,0,0,.121.964,1.265,1.265,0,0,0,1.084.6.9.9,0,0,0,.6-.12,1.4,1.4,0,0,0,.6-.844,1.057,1.057,0,0,0-.121-.843,1.157,1.157,0,0,0-1.084-.723" fill="#0d3461" fill-rule="evenodd"></path>
    <path id="Path_44727" data-name="Path 44727" d="M30.844,12.53a.915.915,0,0,1-.6-.241l-1.567-1.566a.947.947,0,0,1,0-1.326.8.8,0,0,1,1.2,0l.964.964L34.1,6.988a1.3,1.3,0,0,1,1.325,0,.944.944,0,0,1,0,1.325l-3.976,3.976a.915.915,0,0,1-.6.241" fill="#0d3461" fill-rule="evenodd"></path>
    <path id="Path_44728" data-name="Path 44728" d="M32.049,16.385a6.748,6.748,0,1,1,6.627-6.747,6.736,6.736,0,0,1-6.627,6.747m0-11.566a4.861,4.861,0,0,0-4.94,4.819,4.88,4.88,0,1,0,9.759,0,4.833,4.833,0,0,0-4.819-4.819" fill="#0d3461" fill-rule="evenodd"></path>
    <path id="Path_44729" data-name="Path 44729" d="M27.109,25.3c-.12,0-.241-.12-.361-.12a.907.907,0,0,1-.6-.844v-5.06H24.338a3.24,3.24,0,0,1-3.253-3.253V3.253A3.24,3.24,0,0,1,24.338,0H39.76a3.216,3.216,0,0,1,3.132,3.253V16.024a3.216,3.216,0,0,1-3.132,3.253H33.495L27.711,24.94a.661.661,0,0,1-.6.361M24.338,1.807a1.392,1.392,0,0,0-1.446,1.446V16.024a1.393,1.393,0,0,0,1.446,1.446h2.771a.823.823,0,0,1,.843.843v3.855l4.458-4.457a.92.92,0,0,1,.6-.241H39.76a1.368,1.368,0,0,0,1.325-1.446V3.253A1.367,1.367,0,0,0,39.76,1.807Z" fill="#0d3461" fill-rule="evenodd"></path>
  </g>
</svg>
