<?xml version="1.0" encoding="UTF-8"?>
<svg xmlns="http://www.w3.org/2000/svg" xmlns:xlink="http://www.w3.org/1999/xlink" id="Group_38500" data-name="Group 38500" width="59.445" height="60" viewBox="0 0 59.445 60">
  <defs>
    <clipPath id="clip-path">
      <rect id="Rectangle_4147" data-name="Rectangle 4147" width="59.445" height="60" fill="#0d3461"></rect>
    </clipPath>
  </defs>
  <g id="Group_38499" data-name="Group 38499" clip-path="url(#clip-path)">
    <path id="Path_44700" data-name="Path 44700" d="M16.873,12.389a2.624,2.624,0,0,0-2.622-2.623H7.877a2.624,2.624,0,0,0-2.622,2.623v6.373a2.624,2.624,0,0,0,2.622,2.623h6.374a2.624,2.624,0,0,0,2.622-2.623Zm-1.626,6.373a1.007,1.007,0,0,1-1.006,1.006H7.877a1.007,1.007,0,0,1-1-1.006V12.389a1.007,1.007,0,0,1,1-1.006h6.374a1.007,1.007,0,0,1,1,1.006v6.373Z" fill="#0d3461"></path>
    <path id="Path_44701" data-name="Path 44701" d="M16.873,28.04a2.624,2.624,0,0,0-2.622-2.623H7.877A2.624,2.624,0,0,0,5.255,28.04v6.373a2.624,2.624,0,0,0,2.622,2.623h6.374a2.624,2.624,0,0,0,2.622-2.623Zm-1.626,6.373a1.007,1.007,0,0,1-1.006,1.006H7.877a1.007,1.007,0,0,1-1-1.006V28.04a1.007,1.007,0,0,1,1-1.006h6.374a1.007,1.007,0,0,1,1,1.006v6.373Z" fill="#0d3461"></path>
    <path id="Path_44702" data-name="Path 44702" d="M14.251,41.068H7.877a2.624,2.624,0,0,0-2.622,2.623v6.373a2.624,2.624,0,0,0,2.622,2.623h6.374a2.624,2.624,0,0,0,2.622-2.623V43.691a2.624,2.624,0,0,0-2.622-2.623m1,9a1.007,1.007,0,0,1-1.006,1.006H7.877a1.007,1.007,0,0,1-1-1.006V43.691a1.007,1.007,0,0,1,1-1.006h6.374a1.007,1.007,0,0,1,1,1.006v6.373Z" fill="#0d3461"></path>
    <path id="Path_44703" data-name="Path 44703" d="M35.306,13.837H20.482a.809.809,0,0,0,0,1.617H35.3a.809.809,0,0,0,.009-1.617Z" fill="#0d3461"></path>
    <path id="Path_44704" data-name="Path 44704" d="M20.483,19.119H31.472a.808.808,0,0,0,0-1.616H20.483a.808.808,0,1,0,0,1.616Z" fill="#0d3461"></path>
    <path id="Path_44705" data-name="Path 44705" d="M36.115,30.3a.808.808,0,0,0-.808-.808H20.483a.808.808,0,1,0,0,1.616H35.3a.81.81,0,0,0,.818-.808" fill="#0d3461"></path>
    <path id="Path_44706" data-name="Path 44706" d="M32.279,33.962a.808.808,0,0,0-.808-.808H20.482a.808.808,0,1,0,0,1.616H31.471a.808.808,0,0,0,.808-.808" fill="#0d3461"></path>
    <path id="Path_44707" data-name="Path 44707" d="M30.794,45.947a.808.808,0,0,0-.808-.808h-9.5a.808.808,0,1,0,0,1.616h9.5a.8.8,0,0,0,.808-.808" fill="#0d3461"></path>
    <path id="Path_44708" data-name="Path 44708" d="M20.483,48.795a.809.809,0,1,0,0,1.617h5.893a.809.809,0,0,0,0-1.617Z" fill="#0d3461"></path>
    <path id="Path_44709" data-name="Path 44709" d="M12.709,13.649,10.4,15.961l-.6-.6a.811.811,0,0,0-1.147,1.147l1.175,1.175a.817.817,0,0,0,1.147,0L13.856,14.8a.811.811,0,1,0-1.147-1.147" fill="#0d3461"></path>
    <path id="Path_44710" data-name="Path 44710" d="M12.709,29.149,10.4,31.461l-.6-.6a.811.811,0,0,0-1.147,1.147l1.175,1.175a.817.817,0,0,0,1.147,0L13.856,30.3a.811.811,0,0,0-1.147-1.147" fill="#0d3461"></path>
    <path id="Path_44711" data-name="Path 44711" d="M12.709,44.65,10.4,46.962l-.6-.6a.811.811,0,0,0-1.147,1.147l1.175,1.175a.817.817,0,0,0,1.147,0L13.856,45.8a.811.811,0,0,0-1.147-1.147" fill="#0d3461"></path>
    <path id="Path_44712" data-name="Path 44712" d="M53.533,35.513l1.166-2,3.017-.536a.811.811,0,1,0-.282-1.6l-2.594.461-.461-2.595a.811.811,0,0,0-1.6.282l.555,3.093-1.2,2.087a13.167,13.167,0,0,0-6.007-1.448,13.334,13.334,0,1,0,7.407,2.256ZM46.126,58.28A11.7,11.7,0,1,1,51.3,36.1L50.1,38.145a9.34,9.34,0,1,0,1.4.818l1.194-2.04A11.692,11.692,0,0,1,46.126,58.28Zm-.414-11a.828.828,0,0,0,.4.113.8.8,0,0,0,.7-.4l1.8-3.073a3.657,3.657,0,1,1-2.5-1,3.539,3.539,0,0,1,1.1.188l-1.795,3.074A.8.8,0,0,0,45.712,47.282Zm.414-5.988a5.31,5.31,0,1,0,3.337,1.194l1.231-2.106a7.749,7.749,0,1,1-1.4-.818l-1.241,2.115a4.878,4.878,0,0,0-1.927-.385" fill="#0d3461"></path>
    <path id="Path_44713" data-name="Path 44713" d="M35.964,58.383H4.061a2.442,2.442,0,0,1-2.444-2.435V4.061A2.442,2.442,0,0,1,4.061,1.626H34.469a.566.566,0,0,0,.123-.009h9a1.406,1.406,0,0,1,1.4,1.41V30.38a.809.809,0,1,0,1.617,0V3.036A3.033,3.033,0,0,0,43.578,0H34.46a.553.553,0,0,0-.122.009H4.061A4.06,4.06,0,0,0,0,4.061V55.948A4.06,4.06,0,0,0,4.061,60h31.9a.809.809,0,0,0,0-1.617Z" fill="#0d3461"></path>
  </g>
</svg>
