<?xml version="1.0" encoding="UTF-8"?>
<svg xmlns="http://www.w3.org/2000/svg" xmlns:xlink="http://www.w3.org/1999/xlink" width="190" height="190" viewBox="0 0 190 190">
  <defs>
    <clipPath id="clip-path">
      <rect id="Rectangle_3946" data-name="Rectangle 3946" width="59.542" height="49.89" fill="none"></rect>
    </clipPath>
  </defs>
  <g id="Group_42929" data-name="Group 42929" transform="translate(-979 -576)">
    <g id="Ellipse_1675" data-name="Ellipse 1675" transform="translate(997 594)" fill="none" stroke="#0d3461" stroke-width="1" opacity="0.5">
      <circle cx="77" cy="77" r="77" stroke="none"></circle>
      <circle cx="77" cy="77" r="76.5" fill="none"></circle>
    </g>
    <g id="Ellipse_1680" data-name="Ellipse 1680" transform="translate(979 576)" fill="none" stroke="#0d3461" stroke-width="1" stroke-dasharray="3" opacity="0.2">
      <circle cx="95" cy="95" r="95" stroke="none"></circle>
      <circle cx="95" cy="95" r="94.5" fill="none"></circle>
    </g>
    <g id="Ellipse_1674" data-name="Ellipse 1674" transform="translate(1013 610)" fill="#f1f1f1" stroke="rgba(60,180,231,0.15)" stroke-width="7">
      <circle cx="61.5" cy="61.5" r="61.5" stroke="none"></circle>
      <circle cx="61.5" cy="61.5" r="58" fill="none"></circle>
    </g>
    <g id="Group_13744" data-name="Group 13744" transform="translate(1044 646)">
      <g id="Group_13743" data-name="Group 13743" clip-path="url(#clip-path)">
        <path id="Path_16865" data-name="Path 16865" d="M43.169,6.328c-7.153.892-17.524,8.065-22.26,16.361,7.607-3.048,25.427-6.445,26-6.336l5.783-2.87s.735-8.435-9.528-7.155" transform="translate(-18.35 -5.437)" fill="#e8faff"></path>
        <path id="Path_16866" data-name="Path 16866" d="M79.737,98.17s-.644-.171-1.531-.32c-15.252-2.572-37.5-14-32.633-24.738,1.782-3.928,6.8-4.492,6.8-4.492V64.479H39.763L29.012,72.147c2.679-.589,4.967-.473,6.1.265,2.634,1.711.852,5.444-3.718,4.122-8.605-2.49-10.535,7-5.965,10.578l1.553,8.874,27.65,9.559,25.118,0Z" transform="translate(-20.212 -56.589)" fill="#b2edff"></path>
        <path id="Path_16867" data-name="Path 16867" d="M69.763,92.677c-12.349-3.993-27.22-12.371-28.257-20.939-.5-4.161,0-8.633,7.514-11.783l-1.055-.944a16.621,16.621,0,0,0-16.123,3.757l-4.857,4.521c.066-.023.129-.051.2-.072,3.447-1.116,6.545-1.126,7.934-.223,2.634,1.711.852,5.445-3.718,4.122-8.605-2.49-10.535,7-5.965,10.578l.677,3.869,13.728-4.521a29.29,29.29,0,0,0,6.58,6.175.928.928,0,0,0,1.294-.233.937.937,0,0,0-.233-1.3,23.869,23.869,0,0,1-8.33-9.417.979.979,0,0,1,.438-1.256.9.9,0,0,1,1.244.427c4.4,9.115,19.412,16.122,28.363,19.017a.94.94,0,0,0,.285.045.934.934,0,0,0,.285-1.822" transform="translate(-20.212 -51.169)" fill="#80dbd1"></path>
        <path id="Path_16868" data-name="Path 16868" d="M184.452,43.866a14.528,14.528,0,0,0-7.336-2.21,21.748,21.748,0,0,0-7.427,1.305c4.55.465,9.5,3.152,11.645,6.388,2.6,3.923,8.056-1.867,3.118-5.483" transform="translate(-148.925 -36.559)" fill="#d1f4ff"></path>
        <path id="Path_16869" data-name="Path 16869" d="M55.267,262.86s11.163,15.478,42.06,15.784a.936.936,0,0,1,0,1.871H59.682A17.453,17.453,0,0,1,46.2,273.982c-2.981-3.9-1.859-11.2-1.859-11.2Z" transform="translate(-38.737 -230.625)" fill="#3cb4e7"></path>
        <path id="Path_16870" data-name="Path 16870" d="M97.516,278.649H69.61c-7.553,0-12.955-2.581-16.433-5.987a2.023,2.023,0,0,1,1.446-3.446h.017a4.649,4.649,0,0,0,4.138-2.921,23.243,23.243,0,0,1-3.344-3.434l-10.922-.078s-1.122,7.3,1.859,11.2a17.453,17.453,0,0,0,13.478,6.533H97.491a.933.933,0,0,0,.025-1.867" transform="translate(-38.883 -230.625)" fill="#3cb4e7"></path>
        <path id="Path_16871" data-name="Path 16871" d="M33.151,160.315a6.52,6.52,0,0,1-1.754-.269c-8.605-2.49-10.535,7-5.965,10.578l.677,3.869,9.259-3.049c-.408-.936-.8-1.907-1.183-2.92a16.413,16.413,0,0,1-1.035-8.209" transform="translate(-20.212 -140.101)" fill="#3cb4e7"></path>
        <path id="Path_16872" data-name="Path 16872" d="M74.453,56.852a12.372,12.372,0,0,0-8.089,3.013l-6.931,5.989c3.008-.923,5.706-1,7.192-.352,3.173-5.93,9.734-8.65,9.734-8.65H74.453" transform="translate(-52.16 -49.895)" fill="#3cb4e7"></path>
        <path id="Path_16873" data-name="Path 16873" d="M29.65,222.427c-1.329,5.51,3.641,10.344,3.641,10.344s-2.658-4.642-.639-7.992c1.336-2.217,4.067-2.683,7.146.525,2.347,2.445,5.566-1.016,4.077-3.635,1.347.249,2.729-.236,2.894-1.5.607-4.631-14.718-7.7-17.119,2.256" transform="translate(-25.823 -189.415)" fill="#e8faff"></path>
        <path id="Path_16874" data-name="Path 16874" d="M41.5,245.241c1.336-2.217,4.067-2.683,7.146.525,2.347,2.445,5.566-1.016,4.077-3.635-2.76-3.754-9.712-4.182-12.094-.1-2.475,4.244-.349,8.711,1.511,11.2,0,0-2.658-4.642-.639-7.992" transform="translate(-34.67 -209.876)" fill="#d1f4ff"></path>
        <path id="Path_16875" data-name="Path 16875" d="M58.782,40.7a61,61,0,0,1-18.809-6.156C33.382,31.151,28.592,27.2,26.486,23.4a7.478,7.478,0,0,1-.582-7,5.5,5.5,0,0,1,3.424-2.926,8.579,8.579,0,0,1,2.132-.426c.077.108.153.217.227.328a3.414,3.414,0,0,0,2.871,1.65,3.6,3.6,0,0,0,.791-.09,4.527,4.527,0,0,0,3.358-3.657c.264-1.812-.734-3.5-2.741-4.623-.222-.125-.446-.243-.671-.358A7.859,7.859,0,0,0,32.21,1.584C29.984.007,26.928-.4,23.127.39,17.987,1.451,12.914,4.465,7.619,9.6a.872.872,0,1,0,1.215,1.252c5.05-4.9,9.84-7.764,14.646-8.756,3.294-.68,5.884-.38,7.7.893a5.974,5.974,0,0,1,1.964,2.366q-.491-.179-.985-.327a.872.872,0,1,0-.5,1.671A17.082,17.082,0,0,1,35.112,8.18c1.381.775,2.027,1.761,1.868,2.85a2.8,2.8,0,0,1-2.016,2.207,1.642,1.642,0,0,1-1.827-.825,15.485,15.485,0,0,0-6.363-5.526,12.252,12.252,0,0,0-1.8-.65,15.622,15.622,0,0,1,3.158-.153.872.872,0,1,0,.1-1.742c-4.767-.266-9.858,1.541-14.721,5.222a36.218,36.218,0,0,0-5.739,5.416A22.162,22.162,0,0,0,3.9,16.4c.7-.912,1.554-1.958,2.546-3.062a.872.872,0,0,0-1.3-1.166A48.541,48.541,0,0,0,.13,18.73.872.872,0,0,0,1.381,19.9a20.81,20.81,0,0,1,7.843-3.459c1.7-.341,4.065-.488,5.158.22a1.4,1.4,0,0,1,.725,1.752c-.375.824-1.677,1.389-3.739.795a8.752,8.752,0,0,0-5.618.01A6.092,6.092,0,0,0,2.456,22.2a7.231,7.231,0,0,0-.614,4.626,6.828,6.828,0,0,0,1.975,3.667A9.643,9.643,0,0,0,2.9,32.889a10.733,10.733,0,0,0,1.415,7.867,16.018,16.018,0,0,0,2.477,3.3A.872.872,0,1,0,8,42.8c-.046-.045-4.612-4.539-3.41-9.5a7.122,7.122,0,0,1,4.271-5.1,11.616,11.616,0,0,1,6.575-.611c2.749.512,4.774,1.892,4.61,3.142a.92.92,0,0,1-.363.684,1.384,1.384,0,0,1-1.077.125c-.026-.006-.051-.011-.077-.014a4.686,4.686,0,0,0-1.185-1.116.872.872,0,0,0-.967,1.451,2.182,2.182,0,0,1,1.133,2.187,2.273,2.273,0,0,1-1.408,1.815,1.449,1.449,0,0,1-1.556-.5c-1.932-2.005-4.317-2.878-6.223-2.279a3.269,3.269,0,0,0-2.316,2.689.872.872,0,1,0,1.723.274,1.542,1.542,0,0,1,1.117-1.3c1.521-.478,3.344.685,4.444,1.825a3.329,3.329,0,0,0,2.4,1.1,3.071,3.071,0,0,0,.954-.154,3.832,3.832,0,0,0,2.13-1.834,25.767,25.767,0,0,0,4.375,3.632c3.437,2.322,9.589,5.535,19.381,7.654a.872.872,0,1,0,.369-1.7c-9.442-2.043-15.359-5.108-18.661-7.319A19.775,19.775,0,0,1,19.3,33.61c-.01-.014-.02-.027-.031-.04q-.006-.124-.02-.246a2.833,2.833,0,0,0,1.425-.476,2.636,2.636,0,0,0,1.1-1.893,3.644,3.644,0,0,0-1.736-3.363A10.6,10.6,0,0,0,15.76,25.87c-3.853-.718-8.309.105-10.933,3.165a5.452,5.452,0,0,1-.814-6.046c.543-1.073,2.3-3.426,6.873-2.108,3.061.882,5.123-.243,5.809-1.748a3.105,3.105,0,0,0-1.365-3.94,7.748,7.748,0,0,0-4.735-.724,35.566,35.566,0,0,1,4-3.541,28.341,28.341,0,0,1,4.417-2.755l.015-.005a8.942,8.942,0,0,1,7.028.308,13.1,13.1,0,0,1,4.1,2.984,7.7,7.7,0,0,0-5.846,4.221,9.132,9.132,0,0,0,.645,8.571c4.875,8.774,21.619,16.62,33.6,18.174a.872.872,0,1,0,.224-1.729" transform="translate(0 0)" fill="#0d3862"></path>
        <path id="Path_16876" data-name="Path 16876" d="M163.456,80.811a.872.872,0,0,0-.978-1.444,10.918,10.918,0,0,0-4.314,9.553.872.872,0,0,0,.87.819l.055,0a.872.872,0,0,0,.817-.924,9.17,9.17,0,0,1,3.551-8" transform="translate(-138.789 -69.524)" fill="#0d3862"></path>
        <path id="Path_16877" data-name="Path 16877" d="M84.409,307.122a16.755,16.755,0,0,1-4.206-4.616.872.872,0,0,0-1.543.813,18.086,18.086,0,0,0,4.671,5.173.872.872,0,1,0,1.079-1.37" transform="translate(-68.945 -265.08)" fill="#0d3862"></path>
      </g>
    </g>
  </g>
</svg>
