<?xml version="1.0" encoding="UTF-8"?>
<svg xmlns="http://www.w3.org/2000/svg" xmlns:xlink="http://www.w3.org/1999/xlink" id="Group_38646" data-name="Group 38646" width="63.086" height="20.368" viewBox="0 0 63.086 20.368">
  <defs>
    <clipPath id="clip-path">
      <path id="Path_45029" data-name="Path 45029" d="M0-10.627H63.086V-30.994H0Z" transform="translate(0 30.994)" fill="none"></path>
    </clipPath>
  </defs>
  <g id="Group_38567" data-name="Group 38567" transform="translate(0 0)" clip-path="url(#clip-path)">
    <g id="Group_38563" data-name="Group 38563" transform="translate(21.823 7.596)">
      <path id="Path_45025" data-name="Path 45025" d="M-4.234-2.608l-.7,3.5A2.705,2.705,0,0,1-7.841,3.253c-2,0-2.531-1.242-2.092-2.989.622-2.479,2.644-3.217,5.7-2.872m3.154-5-2.129.135-.673,3.424C-4.7-4.077-4.953-4.1-5.909-4.1c-3,0-5.611,1.259-6.3,4.213-.623,2.663.89,4.731,4.19,4.731,3.38,0,4.85-1.763,5.379-4.243Z" transform="translate(12.348 7.608)" fill="#2b3896"></path>
    </g>
    <g id="Group_38564" data-name="Group 38564" transform="translate(0 11.282)">
      <path id="Path_45026" data-name="Path 45026" d="M-5.215-.764c-3.122-.285-5.807-.025-5.851,1.035-.067,1.591,5.145.2,5.045,3.131-.147,4.3-7.395,3.312-9.189,2.765l.326-1.277c3.093.491,6.355.532,6.426-1.174C-8.381,1.9-13.615,3.532-13.493.6-13.4-1.59-10.13-2.769-4.775-1.983Z" transform="translate(15.21 2.227)" fill="#2b3896"></path>
    </g>
    <g id="Group_38565" data-name="Group 38565" transform="translate(10.267 11.2)">
      <path id="Path_45027" data-name="Path 45027" d="M-4.25-2.332A3.665,3.665,0,0,1-7.82.59c-1.772,0-2.57-1.028-2.095-2.923a3.757,3.757,0,0,1,3.587-3c1.693,0,2.529,1.205,2.079,3M-6.056-6.8c-3.1,0-5.6,1.8-6.213,4.471s1.056,4.472,4.16,4.472A6.058,6.058,0,0,0-1.9-2.332C-1.281-5.007-2.952-6.8-6.056-6.8" transform="translate(12.395 6.803)" fill="#2b3896"></path>
    </g>
    <g id="Group_38566" data-name="Group 38566" transform="translate(42.705 11.283)">
      <path id="Path_45028" data-name="Path 45028" d="M-5.1-4.6H-7.8a48.838,48.838,0,0,1-7.072-8.815h1.981C-10.7-10.394-5.1-4.6-5.1-4.6" transform="translate(14.868 13.414)" fill="#2b3896"></path>
    </g>
  </g>
  <g id="Group_38568" data-name="Group 38568" transform="translate(51.678)">
    <path id="Path_45030" data-name="Path 45030" d="M-2.539,0-3.781,2.588-5.99,1.578-5,3.92l-2.4,1.369,2.468.334-.785,2.719L-3.63,6.413l1.425,2.023L-2.064,5.7.5,5.5l-1.92-1.487L.347,1.746l-2.532.886Z" transform="translate(7.406)" fill="#2b3896"></path>
  </g>
  <g id="Group_38572" data-name="Group 38572" transform="translate(0 0)" clip-path="url(#clip-path)">
    <g id="Group_38569" data-name="Group 38569" transform="translate(52.292 11.155)">
      <path id="Path_45031" data-name="Path 45031" d="M-4.317-2.37A3.722,3.722,0,0,1-7.942.6c-1.8,0-2.612-1.044-2.128-2.969A3.815,3.815,0,0,1-6.429-5.419c1.722,0,2.571,1.225,2.112,3.048M-6.151-6.913c-3.152,0-5.687,1.825-6.312,4.543s1.074,4.543,4.226,4.543S-2.549.348-1.926-2.37-3-6.913-6.151-6.913" transform="translate(12.591 6.913)" fill="#2b3896"></path>
    </g>
    <g id="Group_38570" data-name="Group 38570" transform="translate(40.66 8.404)">
      <path id="Path_45032" data-name="Path 45032" d="M0-5.709A47.383,47.383,0,0,0,12.664-16.651C10.406-9.585,4.973-5.783,0-5.709" transform="translate(0 16.651)" fill="#ed1c23"></path>
    </g>
    <g id="Group_38571" data-name="Group 38571" transform="translate(32.55 11.184)">
      <path id="Path_45033" data-name="Path 45033" d="M-3.179-.693c.976,0,1.507.354,1.507,1.031,0,1.8-3.5,1.678-5.048,1.364A3.712,3.712,0,0,1-3.179-.693M.428.241c0-1.3-1.038-2.261-3.395-2.261-3.821,0-6.3,2.481-6.3,5.552,0,1.983,1.647,3.632,4.654,3.632A6.266,6.266,0,0,0-1.161,6.142c-2.637.283-5.876,0-5.876-2.822,0-.112.006-.223.015-.335,3.6.747,7.45-.157,7.45-2.745" transform="translate(9.271 2.02)" fill="#2b3896"></path>
    </g>
  </g>
</svg>
