<?xml version="1.0" encoding="UTF-8"?>
<svg xmlns="http://www.w3.org/2000/svg" xmlns:xlink="http://www.w3.org/1999/xlink" width="190" height="190" viewBox="0 0 190 190">
  <defs>
    <clipPath id="clip-path">
      <rect id="Rectangle_3942" data-name="Rectangle 3942" width="37.502" height="47.975" fill="none"></rect>
    </clipPath>
  </defs>
  <g id="Group_42927" data-name="Group 42927" transform="translate(-199 -576)">
    <g id="Ellipse_2707" data-name="Ellipse 2707" transform="translate(217 594)" fill="none" stroke="#0d3461" stroke-width="1" opacity="0.5">
      <circle cx="77" cy="77" r="77" stroke="none"></circle>
      <circle cx="77" cy="77" r="76.5" fill="none"></circle>
    </g>
    <g id="Ellipse_2708" data-name="Ellipse 2708" transform="translate(199 576)" fill="none" stroke="#0d3461" stroke-width="1" stroke-dasharray="3" opacity="0.2">
      <circle cx="95" cy="95" r="95" stroke="none"></circle>
      <circle cx="95" cy="95" r="94.5" fill="none"></circle>
    </g>
    <g id="Ellipse_2706" data-name="Ellipse 2706" transform="translate(232 610)" fill="#f1f1f1" stroke="rgba(60,180,231,0.15)" stroke-width="7">
      <circle cx="61.5" cy="61.5" r="61.5" stroke="none"></circle>
      <circle cx="61.5" cy="61.5" r="58" fill="none"></circle>
    </g>
    <g id="Group_13734" data-name="Group 13734" transform="translate(275 648)">
      <g id="Group_13734-2" data-name="Group 13734" clip-path="url(#clip-path)">
        <path id="Path_16842" data-name="Path 16842" d="M40.523,53.67A16.413,16.413,0,0,1,12.465,42.093c0-7.174,7.991-16.436,13.757-23.11.953-1.135,1.861-2.179,2.679-3.178.817,1,1.725,2.043,2.679,3.133,5.766,6.674,13.757,15.891,13.757,23.11A16.52,16.52,0,0,1,40.523,53.67" transform="translate(-10.15 -12.869)" fill="#3cb4e7"></path>
        <path id="Path_16843" data-name="Path 16843" d="M109.487,56.13c-2.327-5.307-7.018-10.972-11.04-15.649-2.686,3.391-5.4,7.348-5.4,10.566a9.556,9.556,0,0,0,2.621,6.608,8.662,8.662,0,0,0,12.66-.026,9.636,9.636,0,0,0,1.156-1.5" transform="translate(-75.766 -32.961)" fill="#80dbd1"></path>
        <path id="Path_16844" data-name="Path 16844" d="M23.2,4.615c-1.362-1.589-2.588-3-3.541-4.177C19.614.348,19.523.3,19.477.257a1.159,1.159,0,0,0-1.634.181c-.953,1.18-2.179,2.588-3.541,4.177C8.309,11.562,0,21.187,0,29.223A18.665,18.665,0,0,0,5.494,42.481a18.856,18.856,0,0,0,13.257,5.494A18.757,18.757,0,0,0,37.5,29.223c0-8.036-8.309-17.661-14.3-24.608M30.374,40.8A16.413,16.413,0,0,1,2.315,29.223c0-7.174,7.991-16.436,13.757-23.11.953-1.135,1.861-2.179,2.679-3.178.817,1,1.725,2.043,2.679,3.133,5.766,6.674,13.757,15.891,13.757,23.11A16.52,16.52,0,0,1,30.374,40.8" transform="translate(0 0)" fill="#0d3862"></path>
        <path id="Path_16845" data-name="Path 16845" d="M47.1,164.427A10.076,10.076,0,0,1,36.977,154.3a1.135,1.135,0,0,0-2.27,0A12.324,12.324,0,0,0,47.1,166.7a1.135,1.135,0,0,0,0-2.27" transform="translate(-28.26 -124.715)" fill="#0d3862"></path>
      </g>
    </g>
  </g>
</svg>
