<?xml version="1.0" encoding="UTF-8"?>
<svg xmlns="http://www.w3.org/2000/svg" xmlns:xlink="http://www.w3.org/1999/xlink" id="Group_38648" data-name="Group 38648" width="36.8" height="40.409" viewBox="0 0 36.8 40.409">
  <defs>
    <clipPath id="clip-path">
      <path id="Path_45040" data-name="Path 45040" d="M0-21.083H36.8V-61.492H0Z" transform="translate(0 61.492)" fill="none"></path>
    </clipPath>
  </defs>
  <g id="Group_38579" data-name="Group 38579" clip-path="url(#clip-path)">
    <g id="Group_38574" data-name="Group 38574" transform="translate(8.635 0)">
      <path id="Path_45035" data-name="Path 45035" d="M-13.937-17.482a1.965,1.965,0,0,0-2.682-.726l-.005,0-1.143.657-1.314-2.274.572-.329a1.318,1.318,0,0,0,.48-1.794l-.657-1.143.572-.329a1.972,1.972,0,0,0,.833-2.661,1.972,1.972,0,0,0-2.661-.833c-.049.026-.1.054-.144.083l-.572.329-7.229-12.519a1.314,1.314,0,0,0-1.794-.486h0l-.657-1.137a1.322,1.322,0,0,0-.8-.611,1.293,1.293,0,0,0-1,.131l-1.314-2.274a1.311,1.311,0,0,0-1.788-.49l-.006,0-.013.007L-39.52-50.99l-1.13.67,4.258,7.1a1.34,1.34,0,0,0-.6.8,1.3,1.3,0,0,0,.131,1l1.314,2.274A1.323,1.323,0,0,0-36.208-38a1.293,1.293,0,0,0,.177.651l.657,1.137a1.318,1.318,0,0,0-.611.8,1.3,1.3,0,0,0,.131,1l4.094,7.091,1.137-.657-4.094-7.091,5.691-3.286.657,1.137-2.845,1.643.657,1.137,2.845-1.643.657,1.137-1.709.986.657,1.137,1.709-.986.657,1.143-2.845,1.643.657,1.137,2.845-1.643.657,1.137-1.709.986.657,1.137,1.709-.986.657,1.137-2.845,1.643.657,1.143,2.845-1.643.657,1.137-5.691,3.286-2.385-4.127-1.137.657,2.385,4.127-.572.329a1.971,1.971,0,0,0-.725,2.692,1.97,1.97,0,0,0,1.717.988,1.9,1.9,0,0,0,.979-.269l.572-.329L-26-17.344a1.31,1.31,0,0,0,1.788.483l.006,0,.572-.329,1.314,2.274-1.143.657a1.973,1.973,0,0,0-.723,2.694,1.973,1.973,0,0,0,2.694.723l6.834-3.943a1.972,1.972,0,0,0,.716-2.694m-21.791-24.6,1.143-.657,1.314,2.274-1.143.657Zm1.492,5.2-.657-1.137,3.417-1.971.657,1.137ZM-27.882-19.3a.657.657,0,0,1-.887-.278.657.657,0,0,1,.23-.859l9.108-5.257a.658.658,0,0,1,.887.277.658.658,0,0,1-.23.86ZM-24.859-18l-.657-1.143,5.691-3.286.657,1.143Zm2.366.151,2.274-1.314,1.314,2.274-2.274,1.314Zm7.485,1.525a.665.665,0,0,1-.3.4l-6.834,3.943a.658.658,0,0,1-.894-.243.634.634,0,0,1-.066-.5.665.665,0,0,1,.3-.4l6.834-3.943a.622.622,0,0,1,.322-.085.655.655,0,0,1,.572.329.634.634,0,0,1,.066.5" transform="translate(40.65 50.99)" fill="#0f3863"></path>
    </g>
    <g id="Group_38575" data-name="Group 38575" transform="translate(1.314 27.278)">
      <path id="Path_45036" data-name="Path 45036" d="M-8.229,0V7.229H-22.686V5.914H-24V9.2a3.286,3.286,0,0,0,3.286,3.286H-9.543A2.629,2.629,0,0,0-6.914,9.857V0Zm0,9.857a1.318,1.318,0,0,1-1.314,1.314H-20.714A1.977,1.977,0,0,1-22.686,9.2V8.543H-8.229Z" transform="translate(24)" fill="#0f3863"></path>
    </g>
    <g id="Group_38576" data-name="Group 38576" transform="translate(5.914 25.306)">
      <path id="Path_45037" data-name="Path 45037" d="M-1.714-4.114H-.4A1.314,1.314,0,0,0,.914-5.429v-.657h.657A1.314,1.314,0,0,0,2.886-7.4V-8.714a1.314,1.314,0,0,0-1.314-1.314H.914v-.657A1.314,1.314,0,0,0-.4-12H-1.714a1.314,1.314,0,0,0-1.314,1.314v.657h-.657A1.314,1.314,0,0,0-5-8.714V-7.4A1.314,1.314,0,0,0-3.686-6.086h.657v.657A1.314,1.314,0,0,0-1.714-4.114M-3.686-7.4V-8.714h1.314a.657.657,0,0,0,.657-.657v-1.314H-.4v1.314a.657.657,0,0,0,.657.657H1.571V-7.4H.257A.657.657,0,0,0-.4-6.743v1.314H-1.714V-6.743A.657.657,0,0,0-2.371-7.4Z" transform="translate(5 12)" fill="#0f3863"></path>
    </g>
    <g id="Group_38577" data-name="Group 38577" transform="translate(0 16.106)">
      <path id="Path_45038" data-name="Path 45038" d="M-8.229-3.429v1.314H-21.371V5.752h-1.314V-4.743A1.318,1.318,0,0,1-24-6.057V-8.029A1.977,1.977,0,0,1-22.029-10h9.857v1.314h-9.857a.657.657,0,0,0-.657.657v1.971H-10.2v1.314H-21.371v1.314Z" transform="translate(24 10)" fill="#0f3863"></path>
    </g>
    <g id="Group_38578" data-name="Group 38578" transform="translate(22.343 0.335)">
      <path id="Path_45039" data-name="Path 45039" d="M-7.543-4.457V-7.086H-8.857v.657h-1.367a4.574,4.574,0,0,0-.867-2.092l.968-.968.465.465.929-.929-1.86-1.858-.929.929.465.465-.968.967a4.56,4.56,0,0,0-2.092-.867v-1.367h.657V-13h-2.629v1.314h.657v1.367a4.56,4.56,0,0,0-2.092.867l-.968-.967.465-.465-.929-.929-1.858,1.858.929.929.465-.465.967.968a4.574,4.574,0,0,0-.867,2.092h-1.367v-.657H-22v2.629h1.314v-.657h1.367a4.574,4.574,0,0,0,.867,2.092l-.968.968-.465-.465-.929.929L-18.955.269l.929-.929-.465-.465.969-.967a4.574,4.574,0,0,0,2.092.867V.143h-.657V1.457h2.629V.143h-.657V-1.224a4.574,4.574,0,0,0,2.092-.867l.968.968-.465.465.929.929,1.858-1.858-.929-.931-.465.465-.967-.968a4.574,4.574,0,0,0,.867-2.092h1.367v.657Zm-7.229,1.971a3.286,3.286,0,0,1-3.286-3.286,3.286,3.286,0,0,1,3.286-3.286,3.286,3.286,0,0,1,3.286,3.286,3.289,3.289,0,0,1-3.286,3.286" transform="translate(22 13)" fill="#3db5e5"></path>
    </g>
  </g>
  <path id="Path_45041" data-name="Path 45041" d="M42-51.982h1.314v1.314H42Z" transform="translate(-14.4 58.231)" fill="#3db5e5"></path>
  <path id="Path_45042" data-name="Path 45042" d="M46-49.982h1.314v1.314H46Z" transform="translate(-15.771 57.546)" fill="#3db5e5"></path>
</svg>
